<svg width="100" height="200" viewBox="0 0 1177 1166" fill="none" xmlns="http://www.w3.org/2000/svg">
<path d="M989.86 223.55H947.33V266.08H989.86V223.55Z" fill="#FFF4DE"/>
<path d="M970.88 218.31H966.31V228.99H970.88V218.31Z" fill="#F1B104"/>
<path d="M920.9 223.55V309.94C920.9 313.799 919.367 317.5 916.638 320.228C913.91 322.957 910.209 324.49 906.35 324.49H831.57C835.297 324.308 838.812 322.698 841.385 319.995C843.958 317.292 845.392 313.702 845.39 309.97V223.55H920.9Z" fill="#D6EAF2"/>
<path d="M883.12 218.31H878.55V228.99H883.12V218.31Z" fill="#F1B104"/>
<path d="M859.88 244.43H904.6" stroke="#639AD6" stroke-width="3" stroke-miterlimit="10"/>
<path d="M859.88 255.52H904.6" stroke="#639AD6" stroke-width="3" stroke-miterlimit="10"/>
<path d="M859.88 266.6H904.6" stroke="#639AD6" stroke-width="3" stroke-miterlimit="10"/>
<path d="M859.88 277.69H904.6" stroke="#639AD6" stroke-width="3" stroke-miterlimit="10"/>
<path d="M859.88 288.78H904.6" stroke="#639AD6" stroke-width="3" stroke-miterlimit="10"/>
<path d="M638.11 781.58L581.75 1055.29H587.14L662.55 781.65" fill="#D6EAF2"/>
<path d="M837.98 775.12L895.45 1055.29H890.23L814.89 781.53" fill="#D6EAF2"/>
<path d="M759.71 781.58L816.06 1055.29H810.67L735.26 781.65" fill="#D6EAF2"/>
<path d="M899.52 647.15L865.52 748.2C862.069 758.459 855.482 767.374 846.689 773.686C837.897 779.999 827.344 783.39 816.52 783.38H624C613.177 783.388 602.624 779.997 593.832 773.684C585.04 767.372 578.453 758.458 575 748.2L547 665.08C545.869 661.717 545.554 658.133 546.081 654.625C546.609 651.116 547.964 647.784 550.034 644.902C552.105 642.021 554.831 639.674 557.988 638.054C561.145 636.435 564.642 635.59 568.19 635.59H589.74C594.667 635.611 599.435 633.846 603.16 630.621C606.886 627.396 609.316 622.93 610 618.05L622.56 528.9C624.009 518.601 629.13 509.172 636.98 502.35C644.829 495.527 654.88 491.77 665.28 491.77H838.62C844.791 491.771 850.891 493.095 856.507 495.654C862.123 498.212 867.125 501.946 871.175 506.603C875.225 511.259 878.229 516.731 879.984 522.647C881.74 528.564 882.205 534.788 881.35 540.9L870.57 617.82C870.26 620.029 870.427 622.278 871.06 624.417C871.693 626.556 872.777 628.534 874.239 630.218C875.702 631.902 877.508 633.253 879.537 634.18C881.566 635.107 883.77 635.587 886 635.59H891.2C892.592 635.587 893.965 635.916 895.205 636.549C896.445 637.183 897.516 638.103 898.33 639.233C899.143 640.363 899.675 641.671 899.882 643.047C900.089 644.424 899.965 645.831 899.52 647.15V647.15Z" fill="#D6EAF2"/>
<path d="M885 634.51H870.76C861.45 634.431 852.352 637.287 844.757 642.673C837.162 648.058 831.456 655.698 828.45 664.51L804.06 732.27C800.935 741.549 794.977 749.614 787.026 755.328C779.075 761.042 769.531 764.117 759.74 764.12H582.3" stroke="white" stroke-width="3" stroke-miterlimit="10"/>
<path d="M733.78 264.85C777.59 265.85 759.7 311.91 784.56 319.98C802.16 325.69 824.3 334.1 823.83 369.41C823.44 398.54 820.91 402.6 843.14 415.04C873.6 432.04 865.38 489.34 803.97 487.3" stroke="#41465A" stroke-width="3" stroke-miterlimit="10"/>
<path d="M667 298C668.07 295.08 677 256.48 735.17 263.28C778.69 268.37 761.17 317.6 781.77 324.55C797.39 329.81 821.4 337.8 818.83 373.02C816.71 402.07 813.94 406.02 835.39 419.71C864.79 438.55 853.17 495.21 791.99 489.51C730.81 483.81 639.24 486 635.1 474.14C632.1 465.44 606.23 413.95 643.86 391.65C655.18 384.94 676.08 376.79 673.86 363.75C669.36 337.35 655.78 328.58 667 298Z" fill="#252954"/>
<path d="M740.1 352.23C740.1 352.23 736.87 394.01 753.6 406.82L708.06 406C708.06 406 709.13 359.73 708.06 352.25L740.1 352.23Z" fill="#FFB3A4"/>
<path d="M718.29 386.24C735.549 386.24 749.54 376.019 749.54 363.41C749.54 350.801 735.549 340.58 718.29 340.58C701.031 340.58 687.04 350.801 687.04 363.41C687.04 376.019 701.031 386.24 718.29 386.24Z" fill="#242854"/>
<path d="M751.52 336.94C751.52 336.94 742.4 376.76 709.58 375.36C687.76 374.43 676.48 336.78 674.89 318.75C673.56 303.7 693.18 292.13 707.55 295.18C725.25 298.94 726.21 328.31 744.81 326.6L751.52 336.94Z" fill="#FFB3A4"/>
<path d="M698.38 321.31C690.82 323.238 683.455 325.863 676.38 329.15C675.274 325.428 674.515 321.612 674.11 317.75C673.11 306.75 683.32 297.64 694.48 294.69C695.65 295.07 696.86 295.49 698.13 295.96C703.9 298.09 694.7 309.13 698.38 321.31Z" fill="#EA786C"/>
<path d="M705.28 294.42C711.35 296.66 697.94 308.42 700.87 321.42C688.005 324.197 675.297 327.659 662.8 331.79C662.8 331.79 651.31 314.14 660.39 302.11C669.47 290.08 685.77 287.22 705.28 294.42Z" fill="#252954"/>
<path d="M745.05 338.87C751.142 338.87 756.08 333.932 756.08 327.84C756.08 321.748 751.142 316.81 745.05 316.81C738.958 316.81 734.02 321.748 734.02 327.84C734.02 333.932 738.958 338.87 745.05 338.87Z" fill="#FFB3A4"/>
<path d="M652.43 427.49C667.33 419.97 683.59 430.16 675.53 453.85C669.69 471 617.58 572.31 611.67 581.11C575.78 601.19 435 578.4 435 578.4C435 578.4 415.42 586.75 409.74 586.82C407.25 586.82 392.1 583.98 392.1 583.98C392.1 583.98 391.61 582.23 393.94 580.05C396.27 577.87 412.56 580.33 406.78 575.05C404.21 572.72 390.78 577.2 384.78 582.52C378.78 587.84 376.23 583.33 376.23 583.33C376.23 583.33 382.16 573.27 384.23 571.49C386.3 569.71 399.76 562.33 408.71 561.49C415.2 560.88 430.71 562.7 438.79 565.01C470.23 558.91 534.43 550.48 576.11 552.95C576.05 553 619.33 444.2 652.43 427.49Z" fill="#FFB3A4"/>
<path d="M751.41 392.09C751.41 392.09 761.01 409.6 813.71 427.69C813.71 427.69 813.52 450.35 804.97 480.15C791.44 527.31 773.97 593.25 774.23 619.22C774.23 619.22 717.4 635.59 658.78 619.22C658.78 619.22 659.22 540.54 654.23 536.98C649.24 533.42 636.35 500.42 640.62 484.05C644.89 467.68 661.89 424.93 661.89 424.93C661.89 424.93 696.68 414.52 699.66 393.87C716.916 395.462 734.304 394.864 751.41 392.09V392.09Z" fill="#FFF4DE"/>
<path d="M456.27 921C447.17 954.83 417.7 987.21 419.52 994.48C421.34 1001.75 432.69 1010.66 429.72 1022.12C427.64 1030.12 410.98 1026.24 398.07 1032.67C385.16 1039.1 389.39 1045.78 368.65 1046.5C347.91 1047.22 330.44 1046.5 330.44 1046.5C330.44 1046.5 330.8 1038.5 340.26 1036.68C349.72 1034.86 380.6 1016.68 390.06 979.93C398.82 945.93 401.7 921 401.7 921H456.27Z" fill="#FFB3A4"/>
<path d="M456.27 921C453.58 931 448.89 940.84 444.17 950C423.09 948.44 408.55 943.29 399.01 938.62C400.94 927.62 401.7 921.05 401.7 921.05L456.27 921Z" fill="#3A193F"/>
<path d="M659.2 609.63L644.34 624.55C638.88 626 490.83 672.93 470.82 700.21C450.81 727.49 385.7 925.73 385.7 925.73C385.7 925.73 413.34 945.14 480.29 937.83C480.29 937.83 518.47 858.09 523.93 748.59C523.93 748.59 693.08 760.24 717.82 719.49C742.56 678.74 721.49 617.27 721.49 617.27C721.49 617.27 677.94 615.34 659.2 609.63Z" fill="#A1CBE2"/>
<path d="M427.52 1046.85H319.76C317.071 1046.85 314.89 1049.03 314.89 1051.72V1052.21C314.89 1054.9 317.071 1057.08 319.76 1057.08H427.52C430.21 1057.08 432.39 1054.9 432.39 1052.21V1051.72C432.39 1049.03 430.21 1046.85 427.52 1046.85Z" fill="#83CBF2"/>
<path d="M384.73 1046.85C384.73 1046.85 371.15 1030.98 368.6 1015.32C367.7 1009.78 350.48 1017.81 340.8 1021.79C314.49 1032.6 320 1046.85 320 1046.85H384.73Z" fill="#83CBF2"/>
<path d="M580.17 922.52C586.68 936.74 605.75 984.06 606.17 999.94C606.85 1023.32 565.48 1043.29 562.68 1045.62C558.03 1049.49 563.53 1052.48 563.53 1052.48C563.53 1052.48 640.88 1043.68 649.53 1039.68C658.18 1035.68 638.26 1013.6 636.25 997.36C634.24 981.12 637.13 936.02 633.56 915.93L580.17 922.52Z" fill="#FFB3A4"/>
<path d="M635.51 945.64C623.7 949.51 608.27 953.75 593.51 955.32C588.4 941.63 583.05 928.82 580.16 922.52L633.61 915.93C634.94 923.33 635.38 934.14 635.51 945.64Z" fill="#3A193F"/>
<path d="M774.32 609.63C774.32 609.63 822.22 694.39 786.94 736.57C748.85 782.12 590.15 765 590.15 765C590.15 765 641.43 820.63 649.07 940.31C649.07 940.31 596.64 950.14 564.65 941.77C564.65 941.77 518.59 787.77 514.83 744.63C510.11 690.39 685.08 654 685.08 654L692.15 615C692.15 615 728.19 620.13 774.32 609.63Z" fill="#A1CBE2"/>
<path d="M655.415 1039.99L548.465 1053.18C545.796 1053.5 543.899 1055.94 544.228 1058.61L544.288 1059.09C544.617 1061.76 547.048 1063.66 549.718 1063.33L656.667 1050.14C659.337 1049.81 661.234 1047.38 660.905 1044.71L660.845 1044.22C660.516 1041.55 658.085 1039.66 655.415 1039.99Z" fill="#83CBF2"/>
<path d="M612.89 1045.26C612.89 1045.26 602.89 1021.26 578.55 1024.26C554.21 1027.26 548.65 1053.19 548.65 1053.19L612.89 1045.26Z" fill="#83CBF2"/>
<path d="M853.8 591.24C826.51 608.55 693.8 554.67 693.8 554.67C693.8 554.67 685.8 566.18 676.97 566.18C668.14 566.18 659.97 562.74 655.37 566.3C650.77 569.86 645.97 575.64 642.45 576.15C638.23 576.84 633.904 576.444 629.88 575C629.88 575 632.88 569.66 636.03 564.52C633.22 566.41 629.4 570.62 627.27 572.27C626.438 572.97 625.396 573.373 624.309 573.414C623.223 573.456 622.153 573.134 621.27 572.5C621.27 572.5 627.43 563.97 629.81 561.71C632.19 559.45 638.95 556.52 643.23 554.95C647.93 553.13 675.12 542.51 688.54 540.95C702.78 539.29 818.75 550.68 818.75 550.68C818.75 550.68 792.34 484.88 790.63 467.83C788.11 442.68 798.8 427.41 811.63 427.39C834.47 427.3 876.43 576.89 853.8 591.24Z" fill="#FFB3A4"/>
<path d="M634.16 576.06C634.06 576.063 633.963 576.035 633.88 575.98C633.822 575.943 633.772 575.896 633.732 575.84C633.693 575.784 633.665 575.72 633.65 575.653C633.635 575.586 633.634 575.517 633.646 575.45C633.658 575.382 633.683 575.318 633.72 575.26C634.64 573.82 642.79 561.11 645.67 559.68C650.67 557.22 657.18 553.97 657.18 553.97L657.65 554.91L646.14 560.62C643.92 561.72 637.06 571.97 634.6 575.82C634.553 575.895 634.488 575.956 634.411 575.998C634.334 576.04 634.248 576.061 634.16 576.06V576.06Z" fill="#DB7800"/>
<path d="M639.88 576.06C639.786 576.06 639.694 576.034 639.613 575.985C639.533 575.937 639.467 575.867 639.423 575.784C639.378 575.701 639.358 575.607 639.363 575.513C639.367 575.419 639.398 575.328 639.45 575.25C639.77 574.77 647.4 563.63 650.32 562.19C655.32 559.72 661.83 556.48 661.83 556.48L662.3 557.41C662.3 557.41 655.78 560.66 650.79 563.12C648.56 564.22 642.47 572.67 640.31 575.84C640.261 575.908 640.196 575.964 640.122 576.002C640.047 576.04 639.964 576.06 639.88 576.06V576.06Z" fill="#DB7800"/>
<path d="M1101.18 595.72H89.29V617.41H1101.18V595.72Z" fill="#FFF4DE"/>
<path d="M1073.14 982.06H947.14V997.27H1073.14V982.06Z" fill="#F4E8CE"/>
<path d="M1055.62 618.13H964.49V638.29H1055.62V618.13Z" fill="#FFF4DE"/>
<path d="M1090.89 1057.07C1088.72 1057.07 1086.63 1056.31 1084.96 1054.93C1083.3 1053.54 1082.17 1051.62 1081.78 1049.49L1012.15 670.65C1012.06 670.16 1011.8 669.717 1011.42 669.398C1011.04 669.079 1010.55 668.905 1010.06 668.905C1009.56 668.905 1009.07 669.079 1008.69 669.398C1008.31 669.717 1008.05 670.16 1007.96 670.65L938.32 1049.49C937.929 1051.62 936.803 1053.55 935.138 1054.93C933.474 1056.32 931.376 1057.07 929.21 1057.07V1057.07C927.852 1057.07 926.511 1056.77 925.282 1056.2C924.052 1055.62 922.964 1054.78 922.095 1053.74C921.226 1052.7 920.597 1051.47 920.252 1050.16C919.907 1048.85 919.855 1047.48 920.1 1046.14L995.2 637.58H1024.9L1100 1046.14C1100.25 1047.48 1100.2 1048.85 1099.85 1050.16C1099.51 1051.48 1098.88 1052.7 1098.01 1053.74C1097.14 1054.79 1096.05 1055.62 1094.82 1056.2C1093.59 1056.78 1092.25 1057.07 1090.89 1057.07Z" fill="#FFF4DE"/>
<path d="M243.51 982.06H117.51V997.27H243.51V982.06Z" fill="#F4E8CE"/>
<path d="M225.98 618.13H134.85V638.29H225.98V618.13Z" fill="#FFF4DE"/>
<path d="M261.26 1057.07C259.095 1057.07 256.998 1056.31 255.334 1054.93C253.669 1053.54 252.543 1051.62 252.15 1049.49L182.51 670.66C182.42 670.17 182.161 669.727 181.778 669.408C181.396 669.089 180.913 668.915 180.415 668.915C179.917 668.915 179.434 669.089 179.052 669.408C178.669 669.727 178.41 670.17 178.32 670.66L108.69 1049.49C108.297 1051.62 107.171 1053.54 105.506 1054.93C103.842 1056.31 101.745 1057.07 99.58 1057.07C98.2218 1057.07 96.8798 1056.78 95.6494 1056.2C94.4189 1055.62 93.3302 1054.79 92.4606 1053.74C91.591 1052.7 90.9619 1051.48 90.6178 1050.16C90.2738 1048.85 90.2233 1047.48 90.47 1046.14L165.56 637.58H195.27L270.37 1046.14C270.615 1047.48 270.563 1048.85 270.218 1050.16C269.874 1051.47 269.244 1052.7 268.375 1053.74C267.506 1054.78 266.418 1055.62 265.188 1056.2C263.959 1056.77 262.618 1057.07 261.26 1057.07V1057.07Z" fill="#FFF4DE"/>
<path d="M370.71 414.26C376.03 414.26 379.71 409.08 379.71 403.63V373.11C379.711 371.702 379.435 370.308 378.898 369.007C378.36 367.706 377.572 366.523 376.577 365.527C375.583 364.531 374.402 363.74 373.102 363.2C371.802 362.66 370.408 362.381 369 362.38H299.51C298.101 362.38 296.707 362.658 295.405 363.197C294.104 363.736 292.922 364.527 291.926 365.523C290.931 366.52 290.141 367.703 289.603 369.005C289.065 370.306 288.789 371.701 288.79 373.11V403.63C288.79 406.473 289.919 409.2 291.93 411.21C293.94 413.221 296.667 414.35 299.51 414.35H340.24C350.24 414.35 355.58 430.35 355.58 430.35C355.58 430.35 359 414.26 370.71 414.26Z" fill="#FFF4DE"/>
<path d="M314.38 392.1C316.589 392.1 318.38 390.309 318.38 388.1C318.38 385.891 316.589 384.1 314.38 384.1C312.171 384.1 310.38 385.891 310.38 388.1C310.38 390.309 312.171 392.1 314.38 392.1Z" fill="#39A2DB"/>
<path d="M334.24 392.36C336.449 392.36 338.24 390.569 338.24 388.36C338.24 386.151 336.449 384.36 334.24 384.36C332.031 384.36 330.24 386.151 330.24 388.36C330.24 390.569 332.031 392.36 334.24 392.36Z" fill="#39A2DB"/>
<path d="M354.1 392.36C356.309 392.36 358.1 390.569 358.1 388.36C358.1 386.151 356.309 384.36 354.1 384.36C351.891 384.36 350.1 386.151 350.1 388.36C350.1 390.569 351.891 392.36 354.1 392.36Z" fill="#39A2DB"/>
<path d="M506.86 451.9H344.25C342.454 451.898 340.684 452.33 339.091 453.16C337.498 453.991 336.13 455.194 335.103 456.668C334.076 458.142 333.422 459.842 333.195 461.624C332.968 463.406 333.175 465.216 333.8 466.9L374.8 578.3H565.22L522.82 463C521.614 459.74 519.437 456.928 516.583 454.944C513.729 452.959 510.336 451.897 506.86 451.9V451.9Z" fill="#59B8EB"/>
<path d="M503.66 457.55H345.1C343.352 457.55 341.631 457.973 340.081 458.781C338.532 459.59 337.201 460.761 336.201 462.194C335.202 463.628 334.563 465.282 334.34 467.015C334.117 468.749 334.316 470.51 334.92 472.15L374.92 580.78H560.57L519.23 468.41C518.056 465.225 515.935 462.477 513.151 460.535C510.367 458.593 507.054 457.551 503.66 457.55Z" fill="#83CBF2"/>
<path d="M374.43 578.27H686.35C688.443 578.27 690.516 578.682 692.45 579.483C694.384 580.284 696.141 581.459 697.621 582.939C699.101 584.419 700.276 586.176 701.077 588.11C701.878 590.044 702.29 592.117 702.29 594.21V594.64H390.37C386.142 594.64 382.088 592.961 379.099 589.971C376.109 586.982 374.43 582.928 374.43 578.7V578.27Z" fill="#59B8EB"/>
<path d="M456.819 532.185C462.643 525.717 460.893 514.647 452.91 507.459C444.927 500.271 433.734 499.688 427.91 506.156C422.086 512.625 423.836 523.695 431.819 530.883C439.802 538.071 450.994 538.654 456.819 532.185Z" fill="#FFFCF6"/>
<path d="M605.48 584.13H592.19V588.9H605.48V584.13Z" fill="#3A193F"/>
<path d="M630.87 584.13H617.58V588.9H630.87V584.13Z" fill="#F1B104"/>
<path d="M948.67 549.85H943.53V539.44H896.62V586.82C896.619 587.989 896.848 589.147 897.295 590.227C897.742 591.308 898.397 592.289 899.224 593.116C900.051 593.943 901.032 594.598 902.113 595.045C903.193 595.492 904.351 595.721 905.52 595.72H934.63C936.991 595.72 939.254 594.782 940.923 593.113C942.592 591.444 943.53 589.18 943.53 586.82V570.67H948.67C951.431 570.67 954.079 569.573 956.031 567.621C957.983 565.669 959.08 563.021 959.08 560.26C959.08 557.499 957.983 554.851 956.031 552.899C954.079 550.947 951.431 549.85 948.67 549.85V549.85ZM952.33 564.14C951.821 564.649 951.216 565.053 950.55 565.328C949.884 565.602 949.17 565.742 948.45 565.74H943.53V554.74H948.45C949.535 554.738 950.597 555.058 951.5 555.66C952.403 556.262 953.107 557.119 953.523 558.121C953.938 559.124 954.047 560.227 953.834 561.292C953.622 562.356 953.099 563.333 952.33 564.1V564.14Z" fill="white" stroke="#F7FCFF" stroke-width="3" stroke-miterlimit="10"/>
<path d="M923.65 535C921.18 532.47 908.24 524 911.13 511.81C914.02 499.62 932.34 502.26 931.78 488.64C931.3 477.09 921.18 481.72 918.96 485.93C918.96 485.93 920.3 470.69 934.22 475.78C957.72 484.37 930.44 508.78 922.64 515.53C915.48 521.74 923.65 535 923.65 535Z" fill="#FFF4DE"/>
<path d="M940.08 502.33C940.08 502.33 937.08 512.62 924.87 517.68C924.87 517.68 943.61 517.68 940.08 502.33Z" fill="#FFF4DE"/>
<path d="M1075.25 595.72C1075.25 595.72 1110.41 403.09 934.31 376.2" stroke="#F7FCFF" stroke-width="3" stroke-miterlimit="10"/>
<path d="M1075.94 594.65H982.2C988.74 579.48 1007.2 568.54 1029.07 568.54C1050.94 568.54 1069.4 579.48 1075.94 594.65Z" fill="#83CBF2"/>
<path d="M1075.94 594.65H1064.14C1057.93 580.26 1040.37 569.88 1019.67 569.88C1018.21 569.88 1016.77 569.88 1015.35 570.04C1019.85 569.04 1024.46 568.537 1029.07 568.54C1050.88 568.54 1069.4 579.48 1075.94 594.65Z" fill="#67C5F8"/>
<path d="M935.82 378C934.97 381.81 931.97 384.79 927.71 386.6C922.83 388.68 916.29 389.23 909.49 387.72C902.69 386.21 897 383 893.43 379C890.33 375.56 888.86 371.59 889.7 367.78C891.51 359.6 903.3 355.25 916.04 358.06C928.78 360.87 937.63 369.8 935.82 378Z" fill="#B8E1F7"/>
<path d="M935.82 378C935.03 381.57 932.33 384.42 928.47 386.26C930.284 384.828 931.563 382.828 932.1 380.58C933.79 372.94 925.53 364.63 913.66 362C902.46 359.53 892.04 363 889.47 369.8C889.481 369.127 889.558 368.457 889.7 367.8C891.51 359.61 903.3 355.26 916.04 358.07C928.78 360.88 937.63 369.81 935.82 378Z" fill="#83CBF2"/>
<path d="M925.13 384.69C920.255 386.415 914.994 386.737 909.945 385.619C904.896 384.502 900.262 381.99 896.57 378.37C894.92 374.77 904.66 373.51 912.25 375.19C919.84 376.87 928.27 382.79 925.13 384.69Z" fill="#67C5F8"/>
<path d="M239.07 296.53H572.4V327.05L239 298.88C238.12 298.79 238.18 296.53 239.07 296.53Z" fill="#FFF4DE"/>
<path d="M536.46 145.58H522.44C519.596 145.58 517.29 147.886 517.29 150.73V265.58C517.29 268.424 519.596 270.73 522.44 270.73H536.46C539.304 270.73 541.61 268.424 541.61 265.58V150.73C541.61 147.886 539.304 145.58 536.46 145.58Z" fill="white" stroke="#A2D7F3" stroke-width="3" stroke-miterlimit="10"/>
<path d="M510.76 156.17H494.02C491.242 156.17 488.99 158.422 488.99 161.2V268.18C488.99 270.958 491.242 273.21 494.02 273.21H510.76C513.538 273.21 515.79 270.958 515.79 268.18V161.2C515.79 158.422 513.538 156.17 510.76 156.17Z" fill="#83CBF2"/>
<path d="M484.3 127.75H479.78C477.19 127.75 475.09 129.85 475.09 132.44V268.52C475.09 271.11 477.19 273.21 479.78 273.21H484.3C486.89 273.21 488.99 271.11 488.99 268.52V132.44C488.99 129.85 486.89 127.75 484.3 127.75Z" fill="#D6EAF2"/>
<path d="M468.95 164.65H456.91C454.071 164.65 451.77 166.951 451.77 169.79V266.59C451.77 269.429 454.071 271.73 456.91 271.73H468.95C471.789 271.73 474.09 269.429 474.09 266.59V169.79C474.09 166.951 471.789 164.65 468.95 164.65Z" fill="white" stroke="#A2D7F3" stroke-width="3" stroke-miterlimit="10"/>
<path d="M410.26 273.21H390.78L439.51 142.64C439.699 142.134 440.037 141.697 440.48 141.388C440.923 141.079 441.45 140.912 441.99 140.91H455.81C456.242 140.916 456.666 141.026 457.047 141.23C457.428 141.435 457.753 141.728 457.997 142.085C458.24 142.442 458.393 142.853 458.445 143.282C458.496 143.711 458.443 144.146 458.29 144.55L410.26 273.21Z" fill="#83CBF2"/>
<path d="M571.45 273.21H239.8V295.09H571.45V273.21Z" fill="white" stroke="#A2D7F3" stroke-width="3" stroke-miterlimit="10"/>
<path d="M273.32 224.7H357V233.89C357 244.321 352.856 254.325 345.481 261.7C338.105 269.076 328.101 273.22 317.67 273.22H312.61C302.179 273.22 292.175 269.076 284.8 261.7C277.424 254.325 273.28 244.321 273.28 233.89V224.7H273.32Z" fill="#83CBF2"/>
<path d="M348.63 224.7H286.63C286.63 224.7 268.49 239.49 258.14 227.36C250.64 218.58 286.52 218.19 286.52 218.19L287.6 217.81C287.6 217.81 272.21 185.49 286.76 180.1C296.76 176.37 299.24 203.75 299.76 212.64C305.05 210.43 315.37 207.24 316.26 215.64C316.26 215.64 317.41 181.05 331.9 184.35C343.95 187.1 326.08 219.61 326.08 219.61L327.33 220.37C327.33 220.37 360.44 196.19 368.56 201.81C374.7 206.06 348.63 224.7 348.63 224.7Z" fill="#A1CBE2"/>
<path d="M296.12 224.7C296.12 224.7 296.76 194.88 307.99 195.7C319.22 196.52 303.57 224.7 303.57 224.7H296.12Z" fill="#D6EAF2"/>
<path d="M296.12 224.7C296.12 224.7 284.86 196.56 269.6 203.77C254.69 210.77 286.76 224.7 286.76 224.7H296.12Z" fill="#D6EAF2"/>
<path d="M319.26 224.7C319.26 224.7 329.37 199.35 345.4 201.76C361.43 204.17 325.61 224.7 325.61 224.7H319.26Z" fill="#D6EAF2"/>
<path d="M335.75 224.7C335.75 224.7 367.11 208.91 372.75 218.43C378.39 227.95 335.75 224.7 335.75 224.7Z" fill="#D6EAF2"/>
<path d="M706.47 358.91C706.47 358.91 714.73 359.85 721.35 349.98" stroke="#3A1A3F" stroke-width="3" stroke-linecap="round" stroke-linejoin="round"/>
<path d="M739.34 330.59C739.34 330.59 739.34 321.47 747.34 321.59" stroke="#E2564B" stroke-width="3" stroke-linecap="round" stroke-linejoin="round"/>
<path d="M741.19 325.66L746.52 328.15" stroke="#E2564B" stroke-width="3" stroke-linecap="round" stroke-linejoin="round"/>
<path d="M753.6 340.02C755.837 340.02 757.65 338.207 757.65 335.97C757.65 333.733 755.837 331.92 753.6 331.92C751.363 331.92 749.55 333.733 749.55 335.97C749.55 338.207 751.363 340.02 753.6 340.02Z" fill="#FFCDC5"/>
<path d="M701.02 331.92V347.55L705.19 349.24" stroke="#E2564B" stroke-width="3" stroke-linecap="round" stroke-linejoin="round"/>
<path d="M708.06 318.44C708.06 318.44 712.63 314.9 720.52 318.44" stroke="#3A1A3F" stroke-width="3" stroke-linecap="round" stroke-linejoin="round"/>
<path d="M715.7 333.162C717.196 332.9 718.134 331.117 717.794 329.181C717.455 327.244 715.967 325.887 714.471 326.149C712.975 326.411 712.037 328.193 712.377 330.13C712.716 332.067 714.204 333.424 715.7 333.162Z" fill="#242854"/>
<path d="M690.624 339.534C692.102 339.187 692.935 337.353 692.485 335.439C692.035 333.525 690.471 332.256 688.993 332.604C687.514 332.952 686.681 334.785 687.131 336.699C687.582 338.613 689.145 339.882 690.624 339.534Z" fill="#242854"/>
<path d="M564.65 941.76C564.65 941.76 518.59 787.76 514.83 744.62C510.11 690.39 685.08 654 685.08 654" stroke="#639AD6" stroke-width="3" stroke-miterlimit="10"/>
</svg>
