<svg id="Capa_1" enable-background="new 0 0 512 512" height="512" viewBox="0 0 512 512" width="512" xmlns="http://www.w3.org/2000/svg"><g><g><path d="m470.371 504.5h-428.742v-368.769c0-26.49 21.474-47.964 47.964-47.964h332.813c26.49 0 47.964 21.474 47.964 47.964v368.769z" fill="#c8beb9"/><path d="m494.776 504.5h-477.552v-42.086c0-66.57 53.966-120.537 120.537-120.537h236.479c66.571 0 120.537 53.966 120.537 120.537v42.086z" fill="#f5f0eb"/><path d="m374.239 341.878h-30c66.57 0 120.537 53.966 120.537 120.537v42.085h30v-42.086c0-66.57-53.966-120.536-120.537-120.536z" fill="#ebe1dc"/><g fill="#7d7878"><path d="m410.109 318.56c5.93-1.272 12.363.396 16.97 5.004 7.223 7.222 7.223 20.018 0 27.24-45.801 45.8-106.695 75.374-171.465 75.374-64.33 0-124.928-29.28-170.632-74.545-7.257-7.187-7.313-19.984-.126-27.24 5.054-5.102 12.344-6.645 18.749-4.612"/><path d="m107.378 254.696h-59.899c-15.062 0-27.272-12.21-27.272-27.272v-59.058c0-15.062 12.21-27.272 27.272-27.272h59.899z"/><path d="m404.621 254.696h59.899c15.062 0 27.272-12.21 27.272-27.272v-59.058c0-15.062-12.21-27.272-27.272-27.272h-59.899z"/></g><ellipse cx="256" cy="200.007" fill="#f5f0eb" rx="192.507" ry="192.507" transform="matrix(.707 -.707 .707 .707 -66.446 239.6)"/><path d="m256 77.115c-63.64.112-118.86 27.886-146.588 68.58-1.311 1.925-2.034 4.19-2.034 6.519v106.199c0 2.329.722 4.594 2.034 6.519 27.727 40.695 82.948 68.468 146.588 68.581 63.64-.112 118.86-27.886 146.588-68.581 1.311-1.925 2.034-4.19 2.034-6.519v-106.199c0-2.329-.722-4.594-2.034-6.519-27.728-40.694-82.948-68.468-146.588-68.58z" fill="#bed9fd"/><path d="m256 7.5c-5.048 0-10.05.197-15 .578 99.308 7.654 177.507 90.658 177.507 191.929s-78.199 184.275-177.507 191.929c4.95.382 9.952.578 15 .578 106.319 0 192.507-86.188 192.507-192.507s-86.189-192.507-192.507-192.507z" fill="#ebe1dc"/><path d="m402.587 145.696c-27.727-40.695-82.947-68.469-146.587-68.581-5.059.009-10.057.212-15 .563 57.238 4.066 106.064 30.558 131.588 68.018 1.312 1.925 2.034 4.19 2.034 6.519v106.199c0 2.329-.722 4.594-2.034 6.519-25.523 37.46-74.35 63.952-131.588 68.018 4.943.351 9.941.554 15 .563 63.64-.112 118.86-27.886 146.588-68.581 1.312-1.925 2.034-4.19 2.034-6.519v-106.2c-.001-2.329-.723-4.594-2.035-6.518z" fill="#9ec8fc"/><path d="m405.376 504.5h-298.753v-17.732c0-13.745 11.143-24.887 24.887-24.887h248.978c13.745 0 24.887 11.142 24.887 24.887v17.732z" fill="#80b6fc"/><path d="m380.489 461.881h-30c13.745 0 24.888 11.142 24.888 24.887v17.732h30v-17.732c-.001-13.745-11.143-24.887-24.888-24.887z" fill="#5392f9"/></g><g><path d="m477.871 387.071v-127.543c12.566-5.245 21.422-17.658 21.422-32.103v-59.058c0-14.445-8.856-26.857-21.422-32.102v-.533c0-30.583-24.881-55.464-55.464-55.464l-6.203.128c-36.508-48.774-94.733-80.396-160.205-80.396-37.923 0-74.833 10.662-106.738 30.834-3.501 2.214-4.545 6.846-2.331 10.347 2.213 3.502 6.848 4.544 10.347 2.332 29.504-18.654 63.641-28.513 98.722-28.513 102.013 0 185.007 82.994 185.007 185.007s-82.994 185.007-185.007 185.007-185.006-82.994-185.006-185.007c0-53.633 23.249-104.575 63.787-139.766 3.128-2.715 3.462-7.452.747-10.58-2.717-3.128-7.453-3.463-10.581-.747-10.906 9.468-20.653 19.992-29.145 31.352h-6.208c-30.583 0-55.465 24.881-55.465 55.464v.533c-12.565 5.245-21.421 17.658-21.421 32.102v59.058c0 14.445 8.856 26.857 21.421 32.103v127.689c-1.643 2.262-3.22 4.577-4.718 6.951-12.879 20.407-19.687 44.006-19.687 68.247v42.087c0 4.142 3.357 7.5 7.5 7.5h477.552c4.143 0 7.5-3.358 7.5-7.5v-42.085c.001-27.731-8.795-53.901-24.404-75.344zm-45.487-68.809c-3.031-3.032-6.686-5.204-10.631-6.436 10.281-15.19 18.517-31.868 24.342-49.629h16.775v107.741c-7.799-7.448-16.608-13.984-26.316-19.389 2.222-3.988 3.442-8.61 3.442-13.364 0-7.189-2.775-14.086-7.612-18.923zm51.908-149.895v59.058c0 10.902-8.869 19.772-19.771 19.772h-14.153c3.676-15.138 5.638-30.938 5.638-47.189 0-17.769-2.341-35-6.711-51.412h15.225c10.903-.001 19.772 8.869 19.772 19.771zm-21.479-34.772h-18.156c-4.738-13.419-10.863-26.187-18.214-38.126 19.725 1.962 35.326 18.148 36.37 38.126zm-206.814 266.419c62.583 0 118.536-28.901 155.238-74.049.148-.022.296-.04.445-.072 3.673-.79 7.444.324 10.095 2.975 2.046 2.046 3.22 5.077 3.22 8.316s-1.174 6.271-3.221 8.317c-22.777 22.777-48.482 40.72-76.402 53.33-29.158 13.17-59.357 19.848-89.759 19.848-59.508 0-118.231-25.703-165.354-72.374-4.295-4.254-4.331-12.337-.076-16.634 2.921-2.948 7.197-3.996 11.152-2.742.085.027.172.044.257.068 36.713 44.56 92.297 73.017 154.405 73.017zm-190.095-137.817c5.907 18.01 14.299 34.901 24.782 50.262-4.138 1.214-7.988 3.456-11.159 6.657-8.184 8.264-9.634 21.555-4.393 31.618-9.473 5.321-18.208 11.801-26.005 19.284v-107.821zm19.601-166.724c-7.382 12.038-13.465 24.817-18.15 38.122h-18.17c1.043-19.96 16.618-36.137 36.32-38.122zm-57.798 131.952v-59.058c0-10.902 8.869-19.771 19.772-19.771h15.247c-4.419 16.612-6.733 33.877-6.733 51.412 0 16.252 1.963 32.052 5.638 47.189h-14.152c-10.902 0-19.772-8.87-19.772-19.772zm459.569 269.575h-74.399v-10.232c0-17.858-14.529-32.387-32.388-32.387h-187.423c-4.143 0-7.5 3.358-7.5 7.5s3.357 7.5 7.5 7.5h187.423c9.588 0 17.388 7.8 17.388 17.387v10.232h-283.754v-10.232c0-9.587 7.8-17.387 17.387-17.387h31.556c4.143 0 7.5-3.358 7.5-7.5s-3.357-7.5-7.5-7.5h-31.556c-17.858 0-32.387 14.529-32.387 32.387v10.232h-74.399v-34.585c0-42.349 23.138-80.487 60.53-100.112 22.619 21.267 47.809 38.217 74.987 50.421 30.969 13.905 63.058 20.956 95.373 20.956 32.545 0 64.821-7.125 95.934-21.177 27.094-12.237 52.184-29.201 74.704-50.459 37.667 19.548 61.024 57.892 61.024 100.371z"/><path d="m103.213 141.473c-2.182 3.202-3.335 6.917-3.335 10.742v106.199c0 3.825 1.153 7.54 3.335 10.742 30.123 44.21 88.662 71.744 152.8 71.857 64.11-.113 122.649-27.648 152.772-71.857 2.183-3.203 3.336-6.917 3.336-10.742v-106.2c0-3.824-1.153-7.539-3.336-10.742-30.123-44.21-88.662-71.744-152.772-71.857-.009 0-.019 0-.027 0-64.111.113-122.65 27.647-152.773 71.858zm152.786-56.858c59.225.107 113.018 25.13 140.39 65.303.479.703.732 1.497.732 2.296v106.199c0 .799-.253 1.592-.732 2.295-27.374 40.176-81.173 65.199-140.376 65.304-59.23-.105-113.029-25.127-140.403-65.304-.479-.702-.731-1.496-.731-2.295v-106.199c0-.8.253-1.593.731-2.296 27.372-40.173 81.165-65.195 140.389-65.303z"/><path d="m149.43 162.344c1.841 0 3.684-.673 5.132-2.032 22.191-20.831 60.115-33.302 101.427-33.359 41.333.057 79.257 12.528 101.448 33.358 3.02 2.835 7.767 2.685 10.601-.335 2.835-3.02 2.685-7.766-.335-10.601-24.896-23.37-66.65-37.359-111.714-37.422-45.042.062-86.797 14.052-111.692 37.422-3.02 2.835-3.17 7.581-.335 10.602 1.475 1.573 3.469 2.367 5.468 2.367z"/></g></g></svg>