<svg id="Capa_1" enable-background="new 0 0 497 497" height="512" viewBox="0 0 497 497" width="512" xmlns="http://www.w3.org/2000/svg"><g><g><path d="m462.871 497h-428.742v-368.769c0-26.49 21.474-47.964 47.964-47.964h332.813c26.49 0 47.964 21.474 47.964 47.964v368.769z" fill="#b4aaaa"/></g><g><path d="m475.93 497h-78.054l-149.376-10-149.377 10h-78.054c-6.266 0-11.345-5.08-11.345-11.345v-30.74c0-66.57 53.966-120.537 120.537-120.537h236.479c66.57 0 120.537 53.966 120.537 120.537v30.74c-.001 6.265-5.081 11.345-11.347 11.345z" fill="#f5f0eb"/></g><g><path d="m366.739 334.378h-30c66.57 0 120.537 53.966 120.537 120.537v30.74c0 6.266-5.08 11.345-11.346 11.345h30c6.266 0 11.346-5.079 11.346-11.345v-30.74c0-66.571-53.966-120.537-120.537-120.537z" fill="#ebe1dc"/></g><g><path d="m402.61 311.06c5.93-1.272 12.363.396 16.97 5.004 7.223 7.222 7.223 20.018 0 27.24-45.801 45.8-106.695 75.374-171.465 75.374-64.33 0-124.928-29.28-170.632-74.545-7.257-7.187-7.313-19.984-.126-27.24 5.054-5.102 12.344-6.645 18.749-4.612" fill="#8c8787"/></g><g><path d="m99.878 247.196h-59.899c-15.062 0-27.272-12.21-27.272-27.272v-59.058c0-15.062 12.21-27.272 27.272-27.272h59.899z" fill="#8c8787"/></g><g><path d="m397.122 247.196h59.899c15.062 0 27.272-12.21 27.272-27.272v-59.058c0-15.062-12.21-27.272-27.272-27.272h-59.899z" fill="#8c8787"/></g><g><ellipse cx="248.5" cy="192.507" fill="#f5f0eb" rx="192.507" ry="192.507" transform="matrix(.707 -.707 .707 .707 -63.339 232.1)"/></g><g><path d="m248.5 69.615c-63.64.112-118.86 27.886-146.588 68.58-1.311 1.925-2.034 4.19-2.034 6.519v106.199c0 2.329.722 4.594 2.034 6.519 27.728 40.695 82.948 68.468 146.588 68.581 63.64-.112 118.86-27.886 146.588-68.581 1.312-1.925 2.034-4.19 2.034-6.519v-106.199c0-2.329-.722-4.594-2.034-6.519-27.728-40.694-82.948-68.468-146.588-68.58z" fill="#bed9fd"/></g><g><path d="m248.5 0c-5.048 0-10.05.197-15 .578 99.308 7.654 177.507 90.658 177.507 191.929s-78.199 184.275-177.507 191.929c4.95.382 9.952.578 15 .578 106.319 0 192.507-86.188 192.507-192.507s-86.188-192.507-192.507-192.507z" fill="#ebe1dc"/></g><g><path d="m395.088 138.196c-27.728-40.695-82.948-68.469-146.588-68.581-5.059.009-10.057.212-15 .563 57.238 4.066 106.064 30.558 131.588 68.018 1.312 1.925 2.034 4.19 2.034 6.519v106.199c0 2.329-.722 4.594-2.034 6.519-25.523 37.46-74.35 63.952-131.588 68.018 4.943.351 9.941.554 15 .563 63.64-.112 118.86-27.886 146.588-68.581 1.312-1.925 2.034-4.19 2.034-6.519v-106.2c-.001-2.329-.723-4.594-2.034-6.518z" fill="#9ec8fc"/></g><g><path d="m397.877 497h-298.754v-17.732c0-13.745 11.142-24.887 24.887-24.887h248.978c13.745 0 24.887 11.142 24.887 24.887v17.732z" fill="#80b6fc"/></g><g><path d="m372.989 454.381h-30c13.745 0 24.888 11.142 24.888 24.887v17.732h30v-17.732c0-13.745-11.143-24.887-24.888-24.887z" fill="#5392f9"/></g><g><path d="m141.93 154.844c-1.999 0-3.993-.794-5.469-2.367-2.835-3.02-2.686-7.767.335-10.602 24.895-23.37 66.65-37.36 111.692-37.422 45.063.062 86.818 14.052 111.714 37.422 3.02 2.835 3.17 7.581.335 10.601-2.834 3.021-7.581 3.171-10.601.335-22.191-20.831-60.115-33.301-101.448-33.358-41.312.057-79.235 12.528-101.427 33.359-1.446 1.359-3.29 2.032-5.131 2.032z" fill="#cde2fd"/></g></g></svg>