<svg width="640" height="660" viewBox="0 0 640 660" fill="none" xmlns="http://www.w3.org/2000/svg">
<path fill-rule="evenodd" clip-rule="evenodd" d="M575.5 28.5998C582.956 28.5998 589 21.9512 589 13.7498C589 10.4284 588.009 7.36169 586.334 4.88811C585.897 4.24225 585.674 3.47212 585.76 2.69688V2.69688C585.926 1.19683 587.157 0 588.666 0H633C636.866 0 640 3.13401 640 7V653C640 656.866 636.866 660 633 660H7.00001C3.13401 660 0 656.866 0 653V6.99999C0 3.134 3.13401 0 7 0H46.0285C49.3852 0 52.0948 2.68064 52.7435 5.97409V5.97409C53.1007 7.78802 52.6461 9.64145 52.2105 11.4382C52.0725 12.0074 52 12.5966 52 13.1999C52 16.3404 53.9629 19.0967 56.9165 20.654C58.4181 21.4457 59.8764 22.389 60.9036 23.7404C68.6051 33.8728 80.7757 41.716 95.3115 45.6373C96.1205 45.8556 96.8841 46.2115 97.6023 46.6432C102.711 49.7143 110.842 51.7006 120 51.7006C131.386 51.7006 141.184 48.6303 145.561 44.2223C146.588 43.1876 147.688 42.1876 149.015 41.585C155.664 38.5677 161.554 34.6532 166.411 30.0556C167.497 29.0271 169.004 28.5998 170.5 28.5998V28.5998C177.956 28.5998 184 21.9512 184 13.7498C184 10.4284 183.009 7.36169 181.334 4.88812C180.897 4.24226 180.674 3.47213 180.76 2.69689V2.69689C180.926 1.19683 182.157 0 183.666 0H247.028C250.385 0 253.095 2.68065 253.743 5.9741V5.9741C254.101 7.78802 253.646 9.64145 253.21 11.4382C253.072 12.0074 253 12.5966 253 13.1999C253 16.3404 254.963 19.0967 257.917 20.654C259.418 21.4457 260.876 22.389 261.904 23.7404C269.605 33.8728 281.776 41.716 296.312 45.6373C297.12 45.8556 297.884 46.2115 298.602 46.6432C303.711 49.7143 311.842 51.7006 321 51.7006C332.386 51.7006 342.184 48.6303 346.561 44.2223C347.588 43.1876 348.688 42.1876 350.015 41.585C356.664 38.5677 362.554 34.6532 367.411 30.0556C368.497 29.0271 370.004 28.5998 371.5 28.5998V28.5998C378.956 28.5998 385 21.9512 385 13.7498C385 10.4284 384.009 7.36169 382.334 4.88812C381.897 4.24226 381.674 3.47212 381.76 2.69688V2.69688C381.926 1.19684 383.157 0 384.666 0H451.028C454.385 0 457.095 2.68065 457.743 5.9741V5.9741C458.101 7.78802 457.646 9.64145 457.21 11.4382C457.072 12.0074 457 12.5966 457 13.1999C457 16.3404 458.963 19.0967 461.917 20.654C463.418 21.4457 464.876 22.389 465.904 23.7404C473.605 33.8728 485.776 41.716 500.312 45.6373C501.12 45.8556 501.884 46.2115 502.602 46.6432C507.711 49.7143 515.842 51.7006 525 51.7006C536.386 51.7006 546.184 48.6303 550.561 44.2223C551.588 43.1876 552.688 42.1876 554.015 41.585C560.664 38.5677 566.554 34.6532 571.411 30.0556C572.497 29.0271 574.004 28.5998 575.5 28.5998V28.5998Z" fill="#222222"/>
</svg>
