<svg width="177" height="223" viewBox="0 0 177 223" fill="none" xmlns="http://www.w3.org/2000/svg">
<path d="M67.2098 116.218L44.4797 103.098C42.3797 101.888 41.0798 99.6279 41.0798 97.1979V1.17792C41.0798 -0.152082 37.5098 -0.252082 37.5098 1.17792V97.1979C37.5098 100.898 39.4998 104.338 42.6998 106.188L65.4197 119.308C65.6997 119.468 66.0098 119.548 66.3098 119.548C66.9298 119.548 67.5297 119.228 67.8597 118.658C68.3497 117.798 68.0598 116.708 67.2098 116.218Z" fill="#383534"/>
<path d="M40.5502 0.3075C39.8502 -0.1025 38.7302 -0.1025 38.0302 0.3075C37.3402 0.7075 37.3402 1.35745 38.0302 1.75745C38.7302 2.15745 39.8502 2.15745 40.5502 1.75745C41.2402 1.35745 41.2402 0.7075 40.5502 0.3075Z" fill="#4A4846"/>
<path d="M39.9696 0.637656C39.5896 0.417656 38.9895 0.417656 38.6095 0.637656C38.2395 0.857656 38.2395 1.2077 38.6095 1.4277C38.9895 1.6377 39.5896 1.6377 39.9696 1.4277C40.3496 1.2077 40.3496 0.857656 39.9696 0.637656Z" fill="#BC8C2B"/>
<path d="M56.0396 122.667L33.3196 109.547C31.2196 108.337 29.9096 106.067 29.9096 103.647V7.62714C29.9096 6.29714 26.3496 6.19714 26.3496 7.62714V103.647C26.3496 107.337 28.3396 110.787 31.5396 112.627L54.2596 125.747C54.5396 125.917 54.8496 125.987 55.1496 125.987C55.7696 125.987 56.3596 125.667 56.6896 125.097C57.1896 124.247 56.8896 123.157 56.0396 122.667Z" fill="#383534"/>
<path d="M29.3897 6.74727C28.6897 6.34727 27.5597 6.34727 26.8697 6.74727C26.1697 7.14727 26.1697 7.79722 26.8697 8.19722C27.5597 8.60722 28.6897 8.60722 29.3897 8.19722C30.0797 7.79722 30.0797 7.14727 29.3897 6.74727Z" fill="#4A4846"/>
<path d="M28.81 7.08687C28.43 6.86687 27.82 6.86687 27.45 7.08687C27.07 7.29687 27.07 7.6469 27.45 7.8669C27.82 8.0869 28.43 8.0869 28.81 7.8669C29.18 7.6469 29.18 7.29687 28.81 7.08687Z" fill="#BC8C2B"/>
<path d="M170.33 141.038L80.9999 192.958L80.9199 221.428L170.25 169.518C171.57 168.748 172.23 167.748 172.24 166.738L172.32 138.268C172.31 139.268 171.65 140.278 170.33 141.038Z" fill="#383534"/>
<path d="M5.73962 155.088C4.39962 154.308 3.71961 153.288 3.72961 152.268L3.63965 180.738C3.63965 181.758 4.30967 182.778 5.65967 183.558L71.2396 221.418L71.3196 192.948L5.73962 155.088Z" fill="#282726"/>
<path d="M80.9993 192.957L80.9193 221.427C78.2593 222.967 73.9293 222.967 71.2393 221.417L71.3193 192.947C74.0093 194.497 78.3393 194.497 80.9993 192.957Z" fill="#423F3D"/>
<path d="M170.289 135.438C172.979 136.988 172.989 139.498 170.329 141.038L80.9994 192.958C78.3394 194.498 74.0094 194.498 71.3194 192.948L5.73936 155.088C3.06936 153.538 3.0494 151.028 5.7094 149.488L95.0494 97.5775C97.7094 96.0275 102.029 96.0275 104.709 97.5775L170.289 135.438Z" fill="#EEF1F1"/>
<path d="M174.35 131.938L81.4396 185.938L81.3496 215.918L174.27 161.918C175.66 161.108 176.35 160.058 176.36 158.998L176.44 129.018C176.44 130.078 175.74 131.138 174.35 131.938Z" fill="#CBCDCD"/>
<path d="M2.21002 146.068C0.790022 145.248 0.0800269 144.178 0.0900269 143.098L0 173.078C0 174.148 0.709995 175.228 2.12 176.048L71.17 215.908L71.25 185.928L2.21002 146.068Z" fill="#B3B5B5"/>
<path d="M81.4399 185.938L81.35 215.918C78.56 217.538 73.9999 217.538 71.1699 215.908L71.2499 185.928C74.0799 187.568 78.6399 187.568 81.4399 185.938Z" fill="#D7D9D9"/>
<path d="M174.31 126.038C177.14 127.678 177.15 130.318 174.35 131.938L81.4397 185.938C78.6397 187.568 74.0797 187.568 71.2497 185.928L2.20975 146.068C-0.610251 144.438 -0.62029 141.798 2.16971 140.178L95.0898 86.1776C97.8898 84.5476 102.45 84.5476 105.26 86.1776L174.31 126.038Z" fill="url(#paint0_linear)"/>
<path d="M174.35 131.938L174.27 161.918C175.66 161.108 176.349 160.058 176.359 158.998L176.44 129.018C176.44 130.078 175.74 131.138 174.35 131.938Z" fill="#D7D9D9"/>
<path d="M149.14 148.678C142.85 152.188 137.68 160.928 137.59 168.218C137.5 175.508 142.53 178.578 148.81 175.068C155.1 171.568 160.27 162.818 160.36 155.528C160.45 148.248 155.42 145.178 149.14 148.678Z" fill="#B3B5B5"/>
<path d="M157.04 149.178C156.39 148.808 155.66 148.568 154.87 148.488C153.84 148.388 152.7 148.538 151.48 148.968C150.87 149.178 150.24 149.468 149.6 149.818C148.79 150.278 147.99 150.828 147.23 151.448C145 153.268 143.03 155.728 141.55 158.438C141 159.448 140.51 160.488 140.11 161.548C139.56 162.998 139.15 164.468 138.93 165.908C138.81 166.688 138.75 167.458 138.74 168.208C138.69 171.698 139.89 174.158 141.86 175.298L145.32 177.338C143.35 176.198 142.15 173.738 142.19 170.248C142.2 169.498 142.27 168.718 142.39 167.948C142.61 166.498 143.02 165.028 143.57 163.588C143.97 162.528 144.46 161.488 145.01 160.478C146.49 157.768 148.46 155.298 150.68 153.488C151.45 152.858 152.24 152.308 153.06 151.858C153.7 151.498 154.33 151.218 154.94 150.998C156.15 150.568 157.29 150.418 158.33 150.528C159.12 150.608 159.85 150.838 160.5 151.218L157.04 149.178Z" fill="url(#paint1_linear)"/>
<path d="M153.059 151.858C158.979 148.558 163.709 151.448 163.619 158.308C163.539 165.168 158.669 173.398 152.759 176.698C146.839 179.998 142.109 177.108 142.189 170.248C142.279 163.388 147.139 155.158 153.059 151.858Z" fill="#383534"/>
<path d="M153.05 152.747C158.54 149.677 162.94 152.367 162.86 158.727C162.78 165.097 158.26 172.747 152.77 175.807C147.27 178.867 142.88 176.187 142.96 169.817C143.04 163.447 147.55 155.807 153.05 152.747Z" fill="url(#paint2_linear)"/>
<path d="M151.149 152.747C146.119 155.647 142.049 162.697 142.069 168.487C142.079 174.267 146.179 176.607 151.209 173.697C156.249 170.797 160.319 163.747 160.299 157.957C160.279 152.177 156.189 149.837 151.149 152.747Z" fill="#383534"/>
<path d="M151.16 154.307C146.87 156.787 143.42 162.777 143.43 167.697C143.44 172.617 146.92 174.607 151.21 172.137C155.49 169.657 158.95 163.667 158.94 158.747C158.92 153.827 155.44 151.837 151.16 154.307Z" fill="#212121"/>
<path opacity="0.302" d="M150.86 156.398C147.66 158.248 145.08 162.728 145.09 166.408C145.1 170.088 147.7 171.568 150.9 169.728C154.1 167.878 156.69 163.398 156.68 159.718C156.67 156.038 154.06 154.558 150.86 156.398Z" fill="#8A67A5"/>
<path opacity="0.302" d="M151.15 159.408C149.41 160.418 148 162.848 148.01 164.848C148.01 166.848 149.43 167.658 151.17 166.648C152.91 165.648 154.31 163.208 154.31 161.218C154.3 159.218 152.88 158.408 151.15 159.408Z" fill="#D5D5D5"/>
<g style="mix-blend-mode:screen" opacity="0.302">
<path d="M150.64 160.668C150 161.048 149.479 161.948 149.479 162.688C149.479 163.428 150.01 163.718 150.65 163.348C151.29 162.978 151.81 162.078 151.81 161.338C151.81 160.598 151.29 160.298 150.64 160.668Z" fill="#D5D5D5"/>
</g>
<path d="M146.78 140.028L145.3 142.218L135.74 147.738L115.96 136.308L125.45 129.018L146.78 140.028Z" fill="url(#paint3_linear)"/>
<path d="M125.45 131.028L145.07 142.348L149.09 140.028L125.45 126.378L112.1 134.088L116.12 136.408L125.45 131.028Z" fill="#B3B5B5"/>
<path d="M112.1 134.088L116.12 136.408L125.45 131.028V126.378L112.1 134.088Z" fill="#CBCDCD"/>
<path opacity="0.6" fill-rule="evenodd" clip-rule="evenodd" d="M74.8196 175.698L73.1996 176.628L64.8596 171.818L66.4796 170.878L74.8196 175.698ZM78.2996 173.688L76.6796 174.628L68.3397 169.808L69.9597 168.878L78.2996 173.688ZM81.7797 171.678L80.1597 172.618L71.8196 167.798L73.4396 166.868L81.7797 171.678ZM85.2596 169.668L83.6296 170.608L75.2996 165.788L76.9196 164.858L85.2596 169.668ZM88.7396 167.658L87.1096 168.598L78.7797 163.788L80.3997 162.848L88.7396 167.658ZM92.2097 165.648L90.5897 166.588L82.2596 161.778L83.8796 160.838L92.2097 165.648ZM95.6896 163.648L94.0696 164.578L85.7396 159.768L87.3596 158.828L95.6896 163.648ZM99.1696 161.638L97.5496 162.568L89.2197 157.758L90.8397 156.818L99.1696 161.638ZM102.65 159.628L101.03 160.558L92.6896 155.748L94.3196 154.808L102.65 159.628ZM106.13 157.618L104.51 158.558L96.1696 153.738L97.7996 152.808L106.13 157.618ZM109.61 155.608L107.99 156.548L99.6497 151.728L101.28 150.798L109.61 155.608ZM113.09 153.598L111.47 154.538L103.13 149.718L104.75 148.788L113.09 153.598ZM61.8497 168.208L60.2296 169.148L51.8896 164.328L53.5096 163.398L61.8497 168.208ZM65.3297 166.198L63.7097 167.138L55.3696 162.328L56.9896 161.388L65.3297 166.198ZM68.8096 164.188L67.1896 165.128L58.8497 160.318L60.4697 159.378L68.8096 164.188ZM72.2897 162.178L70.6696 163.118L62.3297 158.308L63.9496 157.368L72.2897 162.178ZM75.7697 160.178L74.1497 161.108L65.8096 156.298L67.4296 155.358L75.7697 160.178ZM79.2496 158.168L77.6296 159.098L69.2897 154.288L70.9097 153.348L79.2496 158.168ZM82.7296 156.158L81.1096 157.088L72.7697 152.278L74.3896 151.348L82.7296 156.158ZM86.2097 154.148L84.5797 155.088L76.2496 150.268L77.8696 149.338L86.2097 154.148ZM89.6896 152.138L88.0596 153.078L79.7296 148.258L81.3497 147.328L89.6896 152.138ZM93.1597 150.128L91.5397 151.068L83.2097 146.258L84.8297 145.318L93.1597 150.128ZM96.6396 148.118L95.0197 149.058L86.6896 144.248L88.3096 143.308L96.6396 148.118ZM100.12 146.108L98.4996 147.048L90.1696 142.238L91.7897 141.298L100.12 146.108Z" fill="#B3B5B5"/>
<path opacity="0.6" fill-rule="evenodd" clip-rule="evenodd" d="M37.1898 153.967L35.5698 154.907L27.2297 150.087L28.8498 149.157L37.1898 153.967ZM40.6697 151.957L39.0398 152.897L30.7098 148.087L32.3298 147.147L40.6697 151.957ZM44.1498 149.947L42.5198 150.887L34.1898 146.077L35.8098 145.137L44.1498 149.947ZM47.6298 147.947L45.9998 148.877L37.6697 144.067L39.2898 143.127L47.6298 147.947ZM51.0998 145.937L49.4797 146.867L41.1498 142.057L42.7698 141.117L51.0998 145.937ZM54.5798 143.927L52.9598 144.857L44.6298 140.047L46.2498 139.107L54.5798 143.927ZM58.0598 141.917L56.4398 142.847L48.1097 138.037L49.7297 137.107L58.0598 141.917ZM61.5398 139.907L59.9197 140.847L51.5798 136.027L53.2098 135.097L61.5398 139.907ZM65.0198 137.897L63.3998 138.837L55.0598 134.017L56.6898 133.087L65.0198 137.897ZM68.4998 135.887L66.8798 136.827L58.5398 132.017L60.1598 131.077L68.4998 135.887ZM71.9797 133.877L70.3597 134.817L62.0198 130.007L63.6398 129.067L71.9797 133.877ZM75.4598 131.867L73.8398 132.807L65.4998 127.997L67.1198 127.057L75.4598 131.867ZM24.2198 146.477L22.5998 147.417L14.2598 142.607L15.8798 141.667L24.2198 146.477ZM27.6998 144.477L26.0798 145.407L17.7397 140.597L19.3597 139.657L27.6998 144.477ZM31.1797 142.467L29.5598 143.397L21.2198 138.587L22.8398 137.647L31.1797 142.467ZM34.6598 140.457L33.0398 141.387L24.6998 136.577L26.3198 135.647L34.6598 140.457ZM38.1398 138.447L36.5098 139.387L28.1797 134.567L29.7997 133.637L38.1398 138.447ZM41.6198 136.437L39.9897 137.377L31.6598 132.557L33.2798 131.627L41.6198 136.437ZM45.0998 134.427L43.4698 135.367L35.1398 130.557L36.7598 129.617L45.0998 134.427ZM48.5698 132.417L46.9498 133.357L38.6198 128.547L40.2397 127.607L48.5698 132.417ZM52.0497 130.407L50.4297 131.347L42.0998 126.537L43.7198 125.597L52.0497 130.407ZM55.5298 128.407L53.9098 129.337L45.5798 124.527L47.1998 123.587L55.5298 128.407ZM59.0098 126.397L57.3898 127.327L49.0497 122.517L50.6797 121.577L59.0098 126.397ZM62.4897 124.387L60.8698 125.317L52.5298 120.507L54.1598 119.567L62.4897 124.387Z" fill="#B3B5B5"/>
<g style="mix-blend-mode:multiply" opacity="0.6">
<path fill-rule="evenodd" clip-rule="evenodd" d="M53.11 200.278V202.238L44.29 197.138V195.178L53.11 200.278ZM53.11 196.068V198.028L44.29 192.938V190.978L53.11 196.068ZM53.11 191.868V193.828L44.29 188.738V186.778L53.11 191.868ZM53.11 187.668V189.628L44.29 184.528V182.568L53.11 187.668ZM53.12 183.468V185.428L44.29 180.328V178.368L53.12 183.468ZM53.12 179.258V181.218L44.29 176.128V174.168L53.12 179.258ZM66.77 208.158V210.118L57.94 205.028V203.068L66.77 208.158ZM66.77 203.958V205.918L57.94 200.818V198.858L66.77 203.958ZM66.77 199.758V201.718L57.94 196.618V194.658L66.77 199.758ZM66.77 195.548V197.508L57.94 192.418V190.458L66.77 195.548ZM66.77 191.348V193.308L57.95 188.218V186.258L66.77 191.348ZM66.77 187.148V189.108L57.95 184.008V182.048L66.77 187.148Z" fill="#B3B5B5"/>
</g>
<g style="mix-blend-mode:multiply" opacity="0.6">
<path fill-rule="evenodd" clip-rule="evenodd" d="M16.62 179.208V181.168L7.79004 176.068V174.108L16.62 179.208ZM16.62 174.998V176.958L7.79004 171.868V169.908L16.62 174.998ZM16.62 170.798V172.758L7.79004 167.668V165.708L16.62 170.798ZM16.62 166.598V168.558L7.79004 163.458V161.498L16.62 166.598ZM16.62 162.398V164.358L7.79004 159.258V157.298L16.62 162.398ZM16.62 158.188V160.148L7.79004 155.058V153.098L16.62 158.188ZM30.27 187.088V189.048L21.45 183.948V181.998L30.27 187.088ZM30.27 182.888V184.848L21.45 179.748V177.788L30.27 182.888ZM30.27 178.688V180.638L21.45 175.548V173.588L30.27 178.688ZM30.27 174.478V176.438L21.45 171.348V169.388L30.27 174.478ZM30.27 170.278V172.238L21.45 167.138V165.178L30.27 170.278ZM30.27 166.078V168.038L21.45 162.938V160.978L30.27 166.078Z" fill="#B3B5B5"/>
</g>
<g style="mix-blend-mode:multiply" opacity="0.6">
<path fill-rule="evenodd" clip-rule="evenodd" d="M85.8096 188.658V186.698L94.6396 181.598V183.558L85.8096 188.658ZM85.8096 192.858V190.898L94.6396 185.798V187.758L85.8096 192.858ZM85.8096 197.058V195.098L94.6396 190.008V191.968L85.8096 197.058ZM85.8096 201.258V199.298L94.6396 194.208V196.168L85.8096 201.258ZM85.8096 205.468V203.508L94.6396 198.408V200.368L85.8096 205.468ZM85.8096 209.668V207.708L94.6396 202.608V204.568L85.8096 209.668ZM99.4696 180.768V178.808L108.29 173.718V175.678L99.4696 180.768ZM99.4696 184.968V183.008L108.29 177.918V179.878L99.4696 184.968ZM99.4696 189.178V187.218L108.29 182.118V184.078L99.4696 189.178ZM99.4696 193.378V191.418L108.29 186.318V188.278L99.4696 193.378ZM99.4696 197.578V195.618L108.29 190.528V192.488L99.4696 197.578ZM99.4696 201.778V199.828L108.29 194.728V196.688L99.4696 201.778Z" fill="#B3B5B5"/>
</g>
<g style="mix-blend-mode:multiply" opacity="0.6">
<path fill-rule="evenodd" clip-rule="evenodd" d="M121.85 167.848V165.888L113.03 170.978V172.938L121.85 167.848ZM121.85 172.048V170.088L113.03 175.188V177.148L121.85 172.048ZM121.85 176.248V174.288L113.03 179.388V181.348L121.85 176.248ZM121.85 180.458V178.498L113.03 183.588V185.548L121.85 180.458ZM121.85 184.658V182.698L113.03 187.788V189.748L121.85 184.658ZM121.85 188.858V186.898L113.03 191.998V193.958L121.85 188.858Z" fill="#B3B5B5"/>
</g>
<g style="mix-blend-mode:multiply" opacity="0.6">
<path d="M172.02 138.677C172.02 140.167 170.81 142.067 169.33 142.917C167.84 143.777 166.64 143.267 166.64 141.787C166.64 140.297 167.84 138.407 169.33 137.547C170.81 136.687 172.02 137.197 172.02 138.677Z" fill="#B3B5B5"/>
</g>
<path d="M171.16 138.917C171.16 140.077 170.23 141.557 169.07 142.217C167.91 142.887 166.979 142.497 166.979 141.337C166.979 140.177 167.91 138.697 169.07 138.037C170.23 137.367 171.16 137.767 171.16 138.917Z" fill="#383534"/>
<g style="mix-blend-mode:multiply" opacity="0.6">
<path d="M172.02 147.037C172.02 148.527 170.81 150.417 169.33 151.277C167.84 152.137 166.64 151.627 166.64 150.147C166.64 148.657 167.84 146.757 169.33 145.907C170.81 145.047 172.02 145.557 172.02 147.037Z" fill="#B3B5B5"/>
</g>
<path d="M171.16 147.278C171.16 148.438 170.23 149.918 169.07 150.578C167.91 151.248 166.979 150.848 166.979 149.698C166.979 148.538 167.91 147.058 169.07 146.398C170.23 145.728 171.16 146.118 171.16 147.278Z" fill="#383534"/>
<path opacity="0.6" d="M102.27 110.898C99.4604 109.218 94.8404 109.168 91.9504 110.788C89.0604 112.418 89.0003 115.088 91.8103 116.768C94.6203 118.448 99.2403 118.498 102.13 116.868C105.02 115.248 105.08 112.578 102.27 110.898Z" fill="#B3B5B5"/>
<g opacity="0.4">
<path opacity="0.4" fill-rule="evenodd" clip-rule="evenodd" d="M97.1005 123.547C92.7905 123.547 88.4905 122.577 85.2605 120.647C82.1605 118.797 80.4705 116.337 80.5105 113.727C80.5405 111.067 82.3505 108.597 85.5905 106.777C92.0805 103.137 102.51 103.237 108.83 107.017C111.92 108.867 113.61 111.327 113.57 113.937C113.53 116.597 111.73 119.067 108.49 120.887C105.31 122.667 101.2 123.547 97.1005 123.547ZM96.9804 104.817C93.0004 104.817 89.0105 105.677 85.9405 107.397C82.9305 109.087 81.2505 111.337 81.2205 113.737C81.1905 116.077 82.7505 118.317 85.6305 120.037C91.7405 123.697 101.85 123.797 108.14 120.257C111.15 118.577 112.83 116.327 112.86 113.927C112.89 111.587 111.33 109.347 108.46 107.627C105.33 105.757 101.16 104.817 96.9804 104.817Z" fill="#B3B5B5"/>
</g>
<path d="M103.5 59.5672C103.7 58.4872 103.11 57.3572 101.66 56.5172C99.1498 55.0672 95.0698 55.0672 92.5698 56.5172C91.3198 57.2372 90.6998 58.1972 90.6998 59.1472C90.6998 59.1372 90.6998 59.1372 90.6998 59.1372L90.6798 113.607C90.6698 114.567 91.3098 115.527 92.5698 116.257C95.0898 117.717 99.1698 117.707 101.67 116.257C102.91 115.537 103.54 114.587 103.54 113.647L103.56 59.1672C103.56 59.3072 103.52 59.4372 103.5 59.5672Z" fill="url(#paint4_linear)"/>
<path d="M72.6104 41.4971C74.6504 45.9771 76.6904 50.467 78.7404 54.947C83.7704 65.997 111.3 66.0571 116.38 55.0571C118.45 50.5871 120.52 46.107 122.58 41.637L72.6104 41.4971Z" fill="url(#paint5_linear)"/>
<path d="M71.7601 34.8477L71.7501 37.6376C71.6901 57.0976 123.4 57.6076 123.46 37.7776L123.47 34.9977L71.7601 34.8477Z" fill="url(#paint6_linear)"/>
<path d="M116.16 24.5172C106.2 18.5672 89.8297 18.3972 79.5897 24.1472C69.3497 29.8972 69.1197 39.3772 79.0697 45.3272C89.0297 51.2772 105.4 51.4372 115.64 45.6972C125.88 39.9472 126.11 30.4672 116.16 24.5172Z" fill="#EEF1F1"/>
<defs>
<linearGradient id="paint0_linear" x1="0.789729" y1="79.0056" x2="175.736" y2="79.0056" gradientUnits="userSpaceOnUse">
<stop stop-color="#EEF1F1"/>
<stop offset="1" stop-color="#F6F7F3"/>
</linearGradient>
<linearGradient id="paint1_linear" x1="132.413" y1="162.979" x2="142.854" y2="143.282" gradientUnits="userSpaceOnUse">
<stop stop-color="#282726"/>
<stop offset="1" stop-color="#4A4846"/>
</linearGradient>
<linearGradient id="paint2_linear" x1="171.475" y1="157.182" x2="164.118" y2="179.057" gradientUnits="userSpaceOnUse">
<stop stop-color="#282726"/>
<stop offset="1" stop-color="#4A4846"/>
</linearGradient>
<linearGradient id="paint3_linear" x1="151.978" y1="143.028" x2="145.88" y2="153.59" gradientUnits="userSpaceOnUse">
<stop stop-color="#4A4846"/>
<stop offset="1" stop-color="#282726"/>
</linearGradient>
<linearGradient id="paint4_linear" x1="90.6798" y1="49.5002" x2="103.426" y2="49.5002" gradientUnits="userSpaceOnUse">
<stop stop-color="#B3B5B5"/>
<stop offset="1" stop-color="#CBCDCD"/>
</linearGradient>
<linearGradient id="paint5_linear" x1="72.6084" y1="36.1771" x2="122.583" y2="36.1771" gradientUnits="userSpaceOnUse">
<stop stop-color="#ACAEAE"/>
<stop offset="1" stop-color="#C3C5C5"/>
</linearGradient>
<linearGradient id="paint6_linear" x1="71.8051" y1="30.2117" x2="123.472" y2="30.2117" gradientUnits="userSpaceOnUse">
<stop stop-color="#B3B5B5"/>
<stop offset="1" stop-color="#CBCDCD"/>
</linearGradient>
</defs>
</svg>
