<svg xmlns="http://www.w3.org/2000/svg" width="120" height="120" viewBox="0 0 250 250" fill="none" xmlns:v="https://vecta.io/nano"><g clip-path="url(#B)"><mask id="A" maskUnits="userSpaceOnUse" x="-34" y="-27" width="319" height="307" mask-type="alpha"><path d="M212.537-26.143L-33.5 51.201 38.356 279.78l246.037-77.345-71.856-228.578z" fill="#fff"/><g fill="#000"><path d="M168.801 224l-1.4-1.6-.5 1.1c-.2-.1-.4-.1-.5-.2-.2-.2-.3-.5-.6-.6-1.3-.7-1.2-.1-1.3.7 0 .2.1.3.1.7-2.9 2.3-2.8 1.8-2.3 4.4-1 .6-2.6 0-2.7 1.9-.5-.3-.4.1-.8-2.6l1.4.4c.2-1.1.4-.9-.9-1.1l-.7-2.6c1.5-.3 3.1.9 4.6-.5l-.8-1c2.3-2.7 2.3-2.7 3.5-2.9 0 .6 0 .3-.2 1.1l2-.6c.3.4.7.7 1.2 1.3.4-.2.9-.3 1.2-.6 1.2-1.3.9-.9 2.9-.4.9-2.5.4-2.1 1.8-2.1 0 4-3.2 1.9-4 4.1-.3.9-1.1 1.3-2 1.1zM97.1 238.2c1.8-1.5 2.9-2.9 4.5-1.9 1.5.9 1.6 1.9.5 3.4-.7.1-1.3.1-2.3.2 1.1 2.4 1.1 2 .8 2.5-.8 1.7-.8 1.7 1 2.6.8-1.2.4-2.7.8-2.7 3.6.3 3.1.4 3.3.7-.2 1-2.4 1-1.1 2.9-8.6 0-4.7 1-6.5-7.3-1.2-.3-1-.2-1-.4zm40.9.4l.6 1.7c2.9-.4 3.5-.7 2.1.5l2.5 1.4-.5.7c1.9 3.7 1.6 2.9 1.1 3.7 0 0 .1.1-1.3-2.1-.7.4-.5 1.5-1.4 1.1-.7-.3-.9-.9-.9-1.7.3-.2.7-.3 1.3-.6l-1.5-.8c-1.5 1.5-1.2 3.3-1.4 5.2l-1.3-.8.5-1.1c-.8-2.7-.8-1.5-.7-4.9-.7-.3-1.4.4-1.6-.6.2-.1.4-.4.6-.4.6 0 1-.2 1.1-.8 0-.9 1-.3.8-.5zm22.2.199c-.3-1.4.4-1.1-3.8-2.1-.2.7 0 2-1.5 2.4v-2.5l1.8-1.1c-.4-1.9-.8-1.3 1.9-1l-.5-1.4c.8-.9 2.9 1 2.7 1.6-.2.5-1 .7-.7 1.4.4.8 1 .5 1.6.5.4 0 .9.1 1.3.1.2.4.5-.3-2.8 2.1z"/><path d="M47.2 200.8l1.1-1.5c-1.3.2-2.2 0-2.6-1.3l1.7-1.4c.5 1.1.6 1.6.9 1.6.7-.1 1.1.1 1.6.5.4.3 1.5 0 1.7.4.8 1.2 1.1 1 1.4 1.3.4 2.2-1.9.8-2.2 2.4.1-.1.3.1-3.6-2zm3.6-.9c-.6-.1-.5-.1-.6.4.6 0 .4.1.6-.4zm-27.6-45.7l1.8 1.5c.5-.3.9-.5 1.4-.7v1.6l2.5 1.5c-.3.6-.6 1.1-1.4.7-3.2-1.3-2.7-1-5.3-.5.1-.6.3-1 .4-1.6-2.5.2-2.6.4.6-2.5zm58.2 50.6c.2-.2.5-.6 1.1-1.3l.3 1.6c.8-.1 1.7-.3 1.9.7.1.9-.7 1.3-1.3 1.5 1.1 1 1 .4.9 2.4l-2.1.9c-.1-1-.7-1.8-.1-3 .2-.6-.5-1.7-.7-2.8zm15.7 33.499c-.4.2-.9.8-1.2 0-.3-.5-.7-.6-1.1-.4-.5.2-.9.5-.5 1.2.1.1 0 .4-.1.8-2.1-.9-1-.7-1.7.7-.2.3-.5.6-.8.9-1.4-1.7 1.5-2.7 1.4-4.3 0-.2.7-.6 1.2-.8.4-.2.8-.1 1.2-.2 1.4-.4 1.5-.3 1.7 1.1-.1 1.1 0 .9-.1 1z"/><path d="M58.1 199.199c-1.3.2-1.3.2-1.8-1.5-.3.2-.6.4-.9.7 1.1 1.3 1 1 .8 1.4-3-.7-2.1-.4-3.2-1.6.3-.7.5-1.3.7-1.9 2.8-.2 2.8-.2 4.4 2.9zm-1.799 5.501c.7-1.3.7-1.3 1.7-1.4.2-.7.3-1.3.5-2.2 1.1 1.9.4 3.6.3 5.2 0 .9-1.1.9-1.9 1l1.1-2.4c-1.3-.4-1.7.4-2 1l-2.4-.3c.4-1.2.4-1.2 2.7-.9zm23-43.1c.6 1.8.4 1.6.7 1.1l2.2 1.6c-1.2 1 .6.7.5 1.3-.9 1.1-2.3.9-3.1-.6l-2 .1c.7-1.2.3-2.6 1.7-3.5zm91.599 57.099c-.9.4-1.7.8-2.7.1-1.4-.8-3-1.3-4.8-2.1.6-.5 1.2-.9 1.8-1.3 2.2.8 3.4 2.8 5.7 3.3zM56.3 213.2l.9.6c-.9.9-2.5 1-2.1 2.6l-1.8.5-1.1-1.1c.7-.9-.4-2.3.9-3.1l.4 1.6c0-.1 3.3-.9 2.8-1.1zm42.1-36.8c-1.3.3-1.3.3-2.6 2.2-1.2-.3-.7-1.3-.9-2.1.4-.2.8-.5 1.4-.8-.6-.5 0-.5-2.2 0-.2-1.7-.1-1.8 1.2-1.4.5.1 2.1-.4 3.1 2.1zm-8.8 71.899l-2.6-5c1-.8 1.1.4 1.7.6.8.1 1.4-.8 1.9-.1.2.4 0 1 0 1.6-.1.9-.7 1.6-.6 2.5.1.1-.2.3-.4.4zm17.801-13.8c-1.3-.6-1.1-1.4-1-2.2-.4-.3-.9-.6-1.2-.9.1-.9.4-1.8-.8-2.3-.3-.1-.2-1.2-.3-2.2 1.9 1.2 2 3.1 2.9 4.5 4.2 1-.4-.3.4 3.1z"/><path d="M90.4 172.2c2.1-2 2.4-2.1 1.1-3.1-.2-.1-.2-.5-.3-.9 1.5.5 3.5.1 3.4 2.6-1.3.5-2.6 1.4-4 1.9 0-.2-.1-.4-.2-.5zm44.5 77.3c.2-.1.3-.3.4-.5l.3.3 2.9-.901c-.1 0-.2-.099-.2-.099-2.8 0-5.7-.301-5.3 1.599.2.1.3.101.5.101l1.4-.5zM11.4 181.2c4.4 1.2-.5-.8.8-1.9.8-.7 2.2.2 2.6.3-.9.7-.9.6-.3 2.1.4 1.2-.7 2.2-2.2 1.1-.4-.2-.5-.8-.9-1.6zm121.8 15.2c1.3-.2 1.1 1.5 2.2 1.7-.8.9-1.6 1.8-.7 3.1-1.3.3-.9.3-2.7-2.4 1-1.5.7-.9 1.2-2.4zm26.6 14.2c-1 .5.1.7-4.4-1.1.3-.8.5-1.6.7-2.2l-1.7-1.5c1.2-.5 1.2-.5 2.9 1.2-.6.8-.4.6-.7 1.1 0 1.3 1.4.1 1.6 1.2.2.4 1 .8 1.6 1.3zm-67.1-21.501c.6.3 1 .6 1.7 1l.3-1.7c.7.1.5-.3 1.2 2.5-1.4-.2-1.3 2-2.9 1.3-.7-.9-.7-1.9-.3-3.1zM55.101 212.7v-1.8c.5-.7 2.1-1.3 1.4-3.1 1.1-.1 1.2.7 1.5 1.1-.2.6-.2 1.1-.4 1.5-.2.5-.6.9-.8 1.4-.1.5.3 1.1-.5 1.4.1 0 .3.1-1.2-.5zm88.499-13.9c.4-.1.9-.1 1.3-.2.7 1.3-.7 1.5-.9 2.4l-2.8-1.4c1.2-2 .5-1.6 3.1-1.9.4.9-.4.8-.7 1.1zm-63.5-46.6c.6 1.1-.1 2.3 1.6 2.4-.7.4-.9.6-1.1.6-1.2 0-2.4-.1-3.6-.3.9-.4 1.4-1 1.8-1.7.3-.3.8-.6 1.3-1zm52.2 14.5c-1.1 1.2-1.3 1.2-2.1-.4-.4-.8-1.5-1.9-.7-2.4.2-.2.8-.2.9 0 .6.8 2 1.2 1.9 2.8zm18.001 66.4c1.9-.9 2.8.4 3.9 1.5-.4.1-.8.1-1.3.2.4.7.7 1.4 1 2-1.2-.1-.8 0-3.6-3.7zm-28.2-78.6l2.5-.4-.8 3.6c-.5 0-1 0-1.7.1.8-2.7.8-1.9 0-3.3zM61 231.3c-.3-.8-.6-1.3-.8-1.7.7-2.5 3.6-.7 2.6.4-.6.5-1.2.8-1.8 1.3zm24.201-64.2c-.2-.4-.5-.9-.8-1.4.4-.1.8-.3 1.2-.5 0 .8-.4 1.5.7 1.6.7.1 1.4.5 2 .8-.8.7-1.7 1.2-2.9.4-.3-.2-.8-.1-1.2-.1 0-.4-.1-.2 1-.8zM1.9 152.3c-.9 2.3-1 .2-3 2.2v.1c1 .6-.1.8 5.3-1.6-.8-.3-1.5-.5-2.3-.7zm65.3 64c-1.3-1.5-1.5-2.9-.6-4.5.3.2.8.5.8.6-.8 1.2.2 1.9.9 2.9-.4.3-.7.6-1.1 1z"/><path d="M6.3 138.7c2 2.7 1 2.2 4.1 2.5 0 .2.1.3.1.5-1.2.6-.3.6-3.4.5.3-1.2-1-2-.8-3.5zm11.4 34.399l-1 2.7c-.2-1.7-2-1.8-3-2.6.3-.3-.2-.3 4-.1zm84.701 50.701c-.3.8-.8.9-1.5.8-.9 0-1.2.4-.9 1.3.3.7.2.9-.6 1-.2-.8-.2 0-.3-2.9 1.1-.3 2.1-.8 3.3-.2zm65.699-36.6c.1-.3.2-.5.4-.9-.2-.1-.5 0-.6-.2-.7-1 .2-1.3.3-1.3 1 .3 1.9.7 3.2 1.2-1.2.6-2.2.9-3.3 1.2zm-63.5 50.2c-.3-1.7 1.5-1.3 1.9-2.2l1.8 1.6c-.1.1-.3.5-.3.5-1-.5-1.9.1-2.9.2-.1.1-.2 0-.5-.1zm5.1 13.6c1.1-1.1 1.1-1.1.2-2.4l1.6.2c.5 1.4.4 2-.3 2.6-.4.3-.5.3-1.5-.4zm-22-53.6l2.5-2.2c.3.8.8 1.5.2 2.3-.6.6-1.2.6-2.7-.1zm-17.2 39.599l-1.8-2.7c.1-.4.4-.9 1.2-.5 1.2.6 1.4 1.2.6 3.2zm108.201-3.4c-.1.5-.1.8-.1 1.2-1.6.4-2.3-1.1-3.8-1.5 1.6-.6 2.7.1 3.9.3zM117.601 212l-1.5-1.4 1.5-2.1c.9 1 .9 1-.1 2 .2.5 1 .9.1 1.5zM66.7 209.5l1-2.3c.5.7 1.1 1.3 1.4 2 .2.4-.5.9-1 .8l-1.4-.5zm7.101-11.4c1.6-1.4 2.8-.6 2.9.5 0 .3-.3.7-.5.7-.4.1-1.2-.5-2.4-1.2zm31.899-13l2.8-3c.2.5.5 1 .4 1.4-.2 1.6-1.4 1.4-3.2 1.6zm-17.799-21.5c1.5-.2 1.5-.2 2.4 1.7l-2.5.4c.1-.9.1-1.5.1-2.1zm33.5 54.2c.5-1.4-.7-1.9-1.8-2.7 1.4-.3 2.5-.5 3.5.7l-1.7 2zM103.2 232.7l-.2-2.2c1.6 0 1.6 1.5 2.5 2.1-.9.9-1.6.1-2.3.1z"/><path d="M151.9 228.6c-.1.2-.3.6-.6.7-.5.3-1.8-.2-1.9-.6-.5-1.3 1.9-1.6 2.5-.1zm-87.2 20.799l-.6 1.1-3.4.1c0-1.5 3.1-1.2 4-1.2zm45.601-37.599l-.7 1.7c-1.1-1.2-.6-1.1-2.3-.4.1-.6.1-1 .2-1.2.8-.6 1.7-.6 2.8-.1zm-7.501 15.1c-.1-1-.1-1.7-.1-2.6l2.8 1-2.7 1.6zm62.8-1.001l-.3 3.3c-2.1.8-1.9-2 .3-3.3zM53.701 136.2c.5-.2.1-1.8 1.5-1.1-.1 1.1-.4 1.9-1.7 2.2-.7.2-1.3.3-1.7-.5.5-.9 1.3-.2 1.9-.6zM7.2 157c2-2.2 2.2-2.7 3.2-1.9-1.1 1.1-3.1 3.5-3.2 1.9zm83.9-4a4.3 4.3 0 0 1-1.2.2c-.1 0-.5-.3-.4-.4.4-2.8.6-2.2 1.3-2.7l.3 2.9zm33.501 58.299c.8-.3 1.5-.6 1.9-1.5.3-.7.7-.6 1.6-.2-2.2 2.5-2.5 2.7-3.5 1.7zm10.8-4.499c-2.7 1.2-4.1-.2-3.8-.9.2-.7.6-.4 3.8.9zM41.2 202.399c1.7-.3 1.9-.1 1.4 2.3-1.3-.3-1.2-1.4-1.4-2.3zM50.7 208c.1-1.6.5-1.7 2.8-.9.2 1.1-.3.9-2.8.9zm187.101 3.4c-1.4.6-2.1 0-2.7-1.2 1.6-1.1 1-1.2 2.7 1.2zm-159 3.599l-2.9 1.5c-.1-.1-.3-.1-.3-.2-.1-1.3 1.3-1.2 1.8-2 .1-.3.4-.1 1.4.7zM93.5 196.2c-.9-2.7-1-2 .3-3.4.9.4-.2 1.2.5 1.8.3.2.1 1.2-.8 1.6zm36.601 21.7l3.3-.6c.3 1-.5 1.4-.8 1.3-.8 0-1.9.3-2.5-.7z"/><path d="M69.3 52.7c-.3 1.4-.7 1.8-2.3 1.8.2-1.3.6-1.7 2.3-1.8zM16.5 156.399l.7 2.1c-1.6 2-2.2-1.7-.7-2.1zM43.4 124.4c2.1-.1 2.2-.1 3.8.7 0 .4.2.1-.7 1-.7-.9-.5-.5-1-1.2-1.6.4-1.1.4-2.1-.5zm-22.699 27.7c-.9.2-1.6.3-1.9-.7-.2-.6.4-1 1.5-1.2.2.6.3 1.2.4 1.9zm90.499 49.4l-2.2.9-.3-1.7c2-.1 2-.1 2.5.8zm10.101-47.901c.6-1.8.7-1.2-.5-3 1.9-.6 2 2 .9 3.2-.2-.1-.3-.1-.4-.2zM83.5 151.9c-1 0-1.7-.7-1.8-1.7 0-.5 0-.5 1-.7l.8 2.4zm86.301 40.5c.6-.8.6-.8 1.8-1.1-.1 1-.1 1 .7 1.8-1.2.9-1.7-.5-2.5-.7zm-147.7-39.2c1.1-1.2 1.8-2.3 2.7-.9-1.9 2-2.6.6-2.7.9zm66.799 19l-.9-2.4c1.4-.9 1.2 1 2.3 1.1-.6.4-.9.8-1.4 1.3zm140 39.1c.6.1 1.2-.7 1.8.2.5.8-.8.9-.9 1.7-1.3-1.8-1.2-1.4-.9-1.9zm-221.6-64l1.6.4c-.3 1.4-.3 1.4-1.7 1.4 0-.5 0-1 .1-1.8zm6.401 20.5c1.1.6 1.6 1.1 1.5 2.2-.5 0-1 .1-1.6.1l.1-2.3zm34.1 38.3c.7-.6 1.2-1.4 2.2-.9-.6 1.5-.8 1.6-2.2.9zm78.8 36.299c-1.6.4-1.2-.4-1.1-3 1.2.7.8 1.9 1.1 3zM53.301 204l-.8.5c-.4-.3.5-1.3-1.7-1.7 0 .1-.2.1 2.9-1 .6.4-.8 1.1-.4 2.2zm98.099 38.6c-.7 1.1-.7 1.8-2.1 1.4-.1 0-.9-1 .6-1.3.7-.1 1.6 0 1.5-.1zm-34.799-91.8c1.1-1.5.8-1.2 1.6-1.1.1 0-.2 1.9-.3 1.9-1-.1-.8-.2-1.3-.8zm48.2-20.3c.8-1 0-.8 2.6-.9 0 .2 0 .5-.1.6-.7.4-1.5.9-2.5.3zm7.299 98.7l-.2-2c3.4-.2 3.1-.4.2 2zm68.5-64.601l-1.1-1.8c.5-.5 1.1-.6 1.8-.2l-.7 2zm-190.1 44.7l1.3-.9 1.1 1.7c-3-.2-2.6 0-2.4-.8zm89.201-9.7c-.5-.4-1-.9-1.6-1.3.7-.3 1.2-.6 1.8-.9.2 2.2.3 1.8-.2 2.2zm100.9-25.899l2.4-2.4c.5 1.3-.2 2-2.4 2.4zM134.5 245c1.1-.1 1.1.6 1.4 1.1-.4.9-1 1.4-2.2 1 1.4-1.1 1.3-.6.8-2.1zm12.101-86.4c.8-1.2.9-2.3 2.6-.4l-2.6.4zm83.299 56.499c0 .3 0 .7-.1.9-.6.8-1.1 1.2-1.8 1.1 1.5-2.5 1.1-2.2 1.9-2zM118.601 210.8c1 .7.7.5 1.3.7-.1.6-.2 1.1-.4 1.6-1.4-.3-.5-1.3-.9-2.3zm-67.7 5.8c-1.4-1.7-1.3-1.2-.6-2.3 1.1.5 1.3 1.2.6 2.3zm180.8-10.801c-.5.4-.8 1-1 .9-.9-.2-.7-1-.5-1.8.4.3.8.5 1.5.9zM75 137.199c-1.6.7-1.6.7-2-.9 1.2-.8 1.1.7 2 .9zm9.801 98.7l2.5.2c-.2.5-.4.9-.6 1.6-.6-.5-1.1-1-1.9-1.8z"/><path d="M45.3 117.6c.2 1.4.2 1.4-.9 2-.3-.9.1-1.5.9-2zm-12.899 28.799c-.7.9.3 2-1 2.4-.6-1.4-.5-1.5 1-2.4zm16.699 67.6l-1.7-.2c.1-1-.2-.7.9-1.4.2.5.4.9.8 1.6zM50 196.3l-1-1.8c1.3.2.8-.1 2 .8-.3.3-.5.6-1 1zm-32.999-51.2c-.3 1.1-.3 1.1-1.9 1.1 0-1.5 1.3-.8 1.9-1.1zM15.9 206.399l1-1.5c.4.7.6 1.2 1 2l-2-.5zM125.2 230.7c.6-.5.9-.8 1.3-.9.9-.3 1.4.9.1 1.3l-1.4-.4zM21.201 154.6c-.3-1.2 0-2 .6-2.8.3 1.7.5 1-.6 2.8zM52.6 204.399c.1.6.2 1.2-.8 1.6l-.3-2.1 1.1.5zM93.7 219.3c-1.7.3-1.7.3-2-1.1.9-.3 1.4.3 2 1.1zm52.401-20.3c1-.9 1.2-.8 1.9.8-1 .7-1.3-.4-1.9-.8zM13.9 142.899l-.6 1.5c-1-.9-1-.9.6-1.5zM204 206.4c-.6 1.3-.1 1.1-2.2 1-.1-.3-.3-.1 2-1.2 0 .1.1.2.2.2zm35.5-29.501c1.3-1.8.8-1.3 1.7-1.5 0 1.1.5.8-1.7 1.5zm8.9 1.601c.3 1 .3 1-.3 2.5-.6-.8-.3-1.5.3-2.5zM34.301 192.6c.2-2.2 0-2.2 1.5-.1-.6.1-1 .1-1.5.1zm184.299 2.799c.1.8 0 1.4-.8 1.4-.2 0-.6-.3-.6-.4 0-.9.8-.8 1.4-1zM38.5 242.9c-1.2.1-1.5-.4-1.5-1.4.9 0 1.4.3 1.5 1.4zM10.701 178c-.2 1.1-.5 1.6-1.4 1.7-.4-1.1.5-1.3 1.4-1.7zm38.5-50v1.2c-2.6-.6-2.3-.5 0-1.2zm-17.5 24.9c-.4-.9-.8-.4-1.4.2.6-2.5.4-2.3 1.7-.4-.1 0-.2.1-.3.2zm10.7 53.999c.3.2.1-.1.8 1.1-.2.2-.5.5-.6.4-1-.1-1.2-1.4-.2-1.5zm130.7-15.099l1.1-1.6c1.2 1.1-.1 2.3-1.1 1.6zm31.599 16.1c.5-1.1.5-1.1 1.6-.8-.7 1.1-.7 1.1-1.6.8zM97.7 182l2-.2c-.7 1.4-.9 1.4-2 .2zm-25.399-7c-.5.3-.9.4-1.4.7 0-.4-.2-.8-.1-1 .5-.6 1-.4 1.5.3zm161.5 33.8c.5-.9.2-.9 1.4-.3-.5 1-.2.9-1.4.3zM35.1 189.8c-.8-.6-1.2-1-.7-1.8.7.3.6.9.7 1.8zm63-10.6c.2.7.5.8-.1 1.7 0 .1-.5-.1-.5-.2-.2-.9.3-1.2.6-1.5zm-43.7-55.101h-2c.8-1.1.8-1.1 2 0zM-.3 142.5c.2-.5.3-.9.5-1.5.4.5.8.8 1.1 1.2-.2.4 0 .3-1.6.3zm3.7 5.399c.4-.3.7-.6 1.2-1 .2.4.4.6.5.8-.9.5-2.5 1.6-1.7.2zM168.501 228.9c-1.2.7-1.2.7-1.7-.4.7-.3 1.2-.3 1.7.4zm-22.9-.101c.8-.6.8-.6 1.5.6-.2.6.1.7-1.5-.6zM11.2 164.6c.4-.7.9-1.4 2-1.1-.6.8-.6.8-2 1.1zm43-138c.7-.6 1.4-.6 2.1-.2-.2.6.2.5-2.1.2zm106.3 186.3c.7-1.5.7-1.5 1.9-.6l-1.9.6zM138 238.7c-.5-.9.4-1.4 1.9-.2-1 .6-2.2 0-1.9.2zm-8.1-8c-.4.4-.6.7-.9.9-.1.1-.6-.2-.6-.3.3-1.5.6-1 1.5-.6zm11.8-39.5l1.7.4c-1 .9-1 .9-1.7-.4zm28.901-.8c-1.4.3-1.4.3-1.1-1.2l1.1 1.2zm-19.2 52.3c-.5-1.1.9-1.3 1.9-1-2.2 1.1-2 .9-1.9 1zM112 208.9c-1.4.2-1.6-.4-1.6-1.2.5-.4.2-.5 1.6 1.2zm-66.5-78.1c-1.4 2-1.1 1.8-1.6 1.6.4-1.3.4-2.1 1.6-1.6zm61 111.7c-.5-1.2-.5-1.2.6-1.9-.3.7-.4 1.3-.6 1.9zm-80.099-88c-1-.5-.7-1.1-.5-1.9.7.8.7.8.5 1.9zM130.2 170.199c-2 1.3-1.7 1.3-2 .8.3-.8 1.2-.7 1.8-1.1 0 .1.1.2.2.3zm23.2 33.4c1-1.2 1.7.1 1.1.5s-.9.1-1.1-.5zm6.5-36.4c.5-.5 1-.9 1.6 0-1.8.4-1.5.4-1.6 0zm78.101 46.501c.1 1.1-.6 1.2-1.4 1.7.2-1 .5-1.5 1.4-1.7zM98.4 228.2c-.7-.5-.7-.5-.6-1.7.8.8.8.8.6 1.7zm31.301 13.4c-1 .7-1 .7-1.9 0 .1-.4-.2-.4 1.9 0zM118.4 214.3c1.3-.9 1.4-.9 2.4-.3-2.2.7-1.7.7-2.4.3zm124.8-10l1.4-1.1c.1 1.1.1 1.1-1.4 1.1zM67 249.8c-1-.4-.6-1-.8-1.7 1.1.3 1 .9.8 1.7zM10.2 122c.5-.3.9-.5 1.4-.7-.3 1.4-.4 1.5-1.4.7zM151 226.4l-1.8-.4c.1-.2.1-.5.2-.6.8-.6 1 .2 1.6 1zM44.101 121.5c-.7-.4-.7 0-.1-1.4.7.3.6 0 .1 1.4zm87.299 61.3c1.2 1 1.3.6.3 1.8-.5-.2-.4.1-.3-1.8zm63.5 35c-.8-.8-.8-.8.5-1.6-.1.5-.3 1-.5 1.6zm-66.9-49h.4c.3.4.6.8.1 1.3-.1.1-.6 0-.6 0 .1-.5.1-.9.1-1.3zm11.5 34.2c-.5-1.1 0-1.6.5-1.9.6.3.7-.1-.5 1.9zm-87.6-85.601l-1.2 1.3c-.2-.9-.2-.9 1.2-1.3zm103 79.701c.5 1.1.5 1.1-.5 1.5l.5-1.5zM25.601 141.899c-.1 1.1-.5 1.3-1.1 1.1-.1 0-.2-.5-.2-.6.4-.2.8-.3 1.3-.5zM46.8 213.7c-.8-.4-1.2-.7-1-1.6.9.2 1 .7 1 1.6zm111.5-11.2c-.3.4-.5.7-.8.9-.1 0-.6-.3-.6-.4.1-.3.3-.6.5-.9.2 0 .5.2.9.4zm13.1 34.1c-1.1.5-1.1.5-1.2-1.3.5.6.8.9 1.2 1.3zM44.801 202c.3-.5.6-.8.9-1.3l.5 1.6-1.4-.3zm83.899 14.899c.5-.3.8-.6 1.2-1 .1 1.4.1 1.4-1.2 1zM72 161.1c1 .3.7 1 1 1.6-1.1-.3-1.1-.3-1-1.6zm-7.5 5.799c-.4.3-.7 1.1-1.4.1-.1-.1.2-.5.4-.6.1 0 .3.2 1 .5zm-9.899 20.1c-.6.8-.2.7-1.3.3.3-.7 0-.6 1.3-.3zm108.6 23.501c1.1.8 1.1.4.3 1.5-.5-.2-.4.1-.3-1.5zm-118.4-10.101c-.2.9-.9 1.2-2 1.3.7-1.5 2.4-1.1 2-1.3zM105.4 159.1c-.1-.4-.2-.8-.4-1.3.4.1.7.1.8.3.2.4.3.8-.4 1zm58.4 69.7c-.2.3 0 .1-.8.6-.1-.2-.3-.4-.3-.5.3-1 .8-.4 1.1-.3v.2zm-7.699 11.9c-.1 1.1-.7 1.2-1.2 1.5-.4-.4-.6-.1 1.2-1.5zM99.7 162.399c-1.1.3-1.1.3-1.8-.4 1.1-.6 1.7.5 1.8.4zM24.8 141.1c-.5.9-1 .7-1.6.1.5 0 1-.1 1.6-.1z"/><path d="M99.7 162.4c.5-.1 1-.1 1.7-.2-.8 1.2-.9 1.2-1.7.2zm-88.1-15.9c-.6.3-1.1 1.2-2.1 0 .9.1 1.5.1 2.1 0zm120.501 99.8c-.7 1.5-.4 1.3-1 1-.2-.6-.3-1.2.5-1.3.1.1.3.2.5.3zm7.399-108.7c-.8-.5-.6-.3-.5-1 1 .4.9.2.5 1zm-29.399 73.2l1.6-.8c-.2 1.1-.5 1.4-1.6.8zm2.7-23.9c.6-2 .3-1.8.8-.8.3.6 0 .8-.8.8zM94.9 150.2c.9-.4.9-.4 1.2.6-.5-.2-.8-.4-1.2-.6zm-7.2 54.399c.2-.4.3-.7.6-1.2.2.3.4.5.4.6 0 .6-.1 1.1-1 .6zM17.101 145.1c-.2-.3-.6-.7-.5-.9.2-.5.6-.5 1.2-.1-.9 1.1-.8 1-.7 1zM50.8 135c-.4-.1-.9-.1-1.4-.2.5-.7.5-.7 1.4.2zm19.1-5.2c.8.5.7.2.5 1.2-.6-.4-.6 0-.5-1.2zM111.301 245c-.6-.6-.5-1-.2-1.3.1-.1.4.1.4.1 0 .4 0 .7-.2 1.2zM239 178.3c.1.7.2.4-.4 1.2-.4-.1-.4.1-.1-1.3.2.1.4.1.5.1zM87.4 200.2c.6.9.6.9 0 1.8v-1.8zm8.001-12.3c-1.2-.6-.4-1-.3-1.4.5.1.5-.2.3 1.4zM63 218.5c-.6.3-.9.5-1.2.7-.1-1-.1-1 1.2-.7zm-12.5-9.2c-.1.8.1.6-1.3.7.3-.8.7-.9 1.3-.7zm63.601.599c1.2.4.7 1.1.7 1.6-.5 0-.3.3-.7-1.6zM104.6 161.6l-1.1-.5c.9-.5.9-.5 1.1.5zm-26.1-.3c-1.3.5-1.1.6-1.3 0 1.3-.6 1-.6 1.3 0zm-9.999-22.5c-.3-.2-.5-.4-.9-.7.7-.1.7-.1.9.7zM37.6 117.9c-.8-.2-.8-.6-.4-1.3.7.3.8.7.4 1.3zm11.3 2.5c1.5-.6 1.2-.6 1.4-.2-.6.5-.2.4-1.3.6 0-.1 0-.3-.1-.4zm-37.699 17.4c-.5-.9-.8-1.5.4-1.7l-.4 1.7zm43.6-.2c-.3.2-.6.4-.9.7-.1-.8-.1-.8.9-.7zm94.699 47.7c1.5-.1 1.2-.2 1.2.4-1.4.1-1.2.2-1.2-.4zm-2.699 3.5c.1.9-.2 1.2-1.2 1.1.7-.9.4-.6 1.2-1.1zm-13.2 14.3l.3-.9h.3v.9h-.6zM171 194.799c-1.5.2-1.2.3-1.3-.3 1.4-.3 1.1-.4 1.3.3zm45.2-4.999c1-.5 1.3-.3 1.3.6l-1.3-.6zm-13.499 12.4c1.2 1.2 1.1.8.6 1.5-1-.8-.7-.5-.6-1.5zm-184.1 5.8l.7-1c.2.2.3.3.3.4 0 .5-.2.8-1 .6zM153.6 228.499c-.5-.2-.8-.4-1.2-.6.1-.2.2-.4.3-.5.6-.2.8.1.9 1.1zm-107.299-34.1c-.4.4-.6.7-.9 1.1-.1-.9-.1-.9.9-1.1zM137.2 162c1.6-.5 1.3-.5 1.4-.1-1.5.5-1.3.5-1.4.1zm95.3 55.1c.1.9-.2 1.1-1.1 1.1l1.1-1.1zM27.801 154.4c.5-.3.8-.4 1.4-.8-.4.9-.5 1.2-1.4.8zM248.6 163c-.6 1-.5.9-.8.8 0-.9-.1-.6.5-1 .1.1.2.2.3.2zM10.7 139.6v-1.4c.7.4 1 .7 0 1.4zm91.101 100.7c.9.6.9.6.2 1.2-.1-.3-.1-.6-.2-1.2zM44.8 200.4c0-1 0-1 1.3-.6-1.5.6-1.4.6-1.3.6zM24 132.6c0 .9-.4.9-1.3.8.8-.9.5-.7 1.3-.8zm146.4 98.699l1.2-.4c.2 0 .4 1.5-1.2.4zM29.7 57.6c.6-.3.9-.4 1.4-.6-.1.8-.4 1-1.4.6zm83.5 161.299c-.3.2-.5.5-.8.7-.2-.7-.2-.7.8-.7zM244.6 177.6c-.9.5-.7.5-.9-.1 1-.3.8-.3.9.1zM50 123.7c-.5-.7-.5-.6-.4-.9 1 .4.9.2.4.9zm20.001 12.8c1.2.8 1.1.6.9.9-1.4-.6-1.2-.3-.9-.9zM131 207.999c.3-.2.6-.4.8-.6.1 1 .1 1-.8.6zm-10.8 2.4c.6 0 1 .1 1.7.1-.7.7-1.1.9-1.7-.1zM32.1 150.5c-1.1-.5-1-.3-.9-.8 1.3.3 1.1.1.9.8zm39.4 9.2c-.9.9-.7.8-1 .4.9-.8.6-.8 1-.4zm146.201 43.7c-.6.8-.8.3-1.4-.2.7 0 1.1.1 1.4.2zM2.5 160.899l.9.3c-.7.9-.6-.1-.9-.3zM67.801 211.4c-.8-.7-.6-.5-.4-.8.8.5.7.4.4.8zm63.399 19.9c-1.1.7-.7.7-1.2.2.6-.7.3-.6 1.2-.2zM16.701 154.5h.3c.1.3.1.6.1.9-.6 0-.6.2-.4-.9zM248.3 182.8c-.6.3-.9.2-.9-.3a.76.76 0 0 1 .2-.4l.7.7zm-44.3 9.7c-.7.7-.4.6-1.1.3.5-.6.2-.5 1.1-.3zm-95.3 29.299c-1.3.3-1.1.3-1.2-.1 1.4-.2 1.1-.3 1.2.1zM134 174c-1.1.3-.9.4-1 .1 1-.6.8-.7 1-.1zm102.6 33.899c.3 1 .3 1-.1 1.6-.3-.1-.3.2.1-1.6zm-77.199-3.9c-.9.7-.6.6-1.1.4.5-.7.3-.5 1.1-.4zM108.2 218.7c.6.2.8.4 1.3.5-.7.5-1.1.4-1.3-.5z"/><path d="M27.101 238.4c-.5.8-.3.7-1 .5.3-.7 0-.6 1-.5zm-2.3-22.9c.8.5.7.3.5.9-.5-.2-.4 0-.5-.9zM177.6 179.3c-.1.4-.2.5-.2.6a1.38 1.38 0 0 1-.4-.3.76.76 0 0 1 .2-.4s.2.1.4.1zm-44.4 13c.3.2.5.3.7.5 0 0-.1.4-.2.4-.9-.1-.6-.3-.5-.9zm-4.399 51.6c.4-.3.2-.4.9.3-.3.4-.1.4-.9-.3zM70.5 119.8c-.6-.4-.6-.2-.3-.8.4.1.3-.1.3.8zm65 123.899c0-.4 0-.7.1-1.3.9.6.4 1-.1 1.3zM69.801 118.2c1-.7.7-.7 1-.2-1 .6-.8.6-1 .2zm-22.5 2.1c1-.5.8-.5 1-.2-1 .4-.9.4-1 .2zM168.4 130.5c.2.1.3.1.5.2a.78.78 0 0 1-.4.4s-.3-.1-.3-.2c-.1-.1.1-.3.2-.4zm-97.5 28c-1 0-.8 0-.8-.3 1 0 .8-.1.8.3zm2.5-3.5c.4-.4.5-.6.7-.7.1 0 .3.2.3.3-.2.5-.5.4-1 .4zm-21-117.4c-.3.2-.4.3-.6.4-.1 0-.3-.2-.3-.3.3-.6.7-.3.9-.1zm2-7.3c.3-.1.6-.1 1-.2-.1.8-.6.6-1 .6-.1-.1 0-.3 0-.4zm-5.3-2.6c.1.5.3.8-.4.9.1-1.1 0-.9.4-.9zm.3-2.2c.7-.4.5-.4.7 0-.7.3-.6.3-.7 0zM12.1 168.2a3.17 3.17 0 0 1 .6.5l-.4.4c-.1 0-.4-.1-.4-.2 0-.2.1-.4.2-.7zM84 242.8c.8.2.7.1.7.5-1-.2-.8-.1-.7-.5zm65.1-10.201c-.5-.3-.5-.1-.2-.7.5.3.4.1.2.7zM95.601 184.8c-.6.2-.4.3-.8-.2.6-.2.4-.2.8.2zM223.4 196.399c-.2 0-.5 0-.7.1v-.3c.9-.1.7-.1.7.2zm-20.8 4.301c.5.4.5.2.2.8-.5-.2-.4 0-.2-.8zm-90.099-6.6c-.1.8 0 .7-.4.6.2-.8.1-.7.4-.6zM192 167.6c.3.4.7.5.1 1l-.4-.1c0-.3.1-.5.3-.9zM46.701 247.299c-.1-.9-.2-.8.2-.8 0 .9.1.8-.2.8zm2.699-54.5c-.5.4-.3.4-.9.2.2-.4-.1-.4.9-.2zm39.901-43.5c-.4.5-.2.4-.7.3.5-.6.3-.5.7-.3zM100.8 159.8c.3.3.3.1 0 .6-.4-.3-.4-.2 0-.6zM1.9 147.4c1-.3 1.2.1 1.4.5-.1.3.1.3-1.4-.5zm14.901 31.8c-.6.4-.4.4-1-.1.5-.3.2-.3 1 .1zm93.499-19.7s-.3-.1-.2-.1c.1-.3.2-.5.2-.8.5.2.5.1 0 .9zM54.901 189c-.9.2-.7.3-.8-.3.9 0 .7-.1.8.3z"/><path d="M32.801 163.1c-.1.4 0 .4-.5.2.1-.3-.1-.2.5-.2zM143.1 187.7c-.4-.1-.3 0-.3-.5.3 0 .3-.1.3.5zm5.201-6.7c.5.7.4.5.3 1-.6-.2-.9-.1-.3-1zm-28.8 65.299c-.5.6-.3.6-.9.3.5-.6.3-.5.9-.3zM44.9 123.399c.3.1.5.1.8.2v.3c-1 0-.8 0-.8-.5zm195 34.401c.3-.4.1-.4.8-.1-.4.6-.2.5-.8.1zm-214.099-53c1 .2.9.1.8.5-1-.3-.9-.1-.8-.5zM90 154.8c-.3-.1-.5-.1-.5-.2 0-.2.1-.4.2-.6 0 0 .4 0 .4.1 0 .3-.1.5-.1.7zm58.901 35.9c.8.4.7.2.5.7-.8-.5-.7-.3-.5-.7zM97 244.199c-.1-.2-.2-.5-.3-.7.1 0 .3-.1.3-.1.3.9.3.7 0 .8zm43.901-49.799c-.8.6-.6.6-.8.3.7-.6.6-.6.8-.3zm11.6-1.1c.6.3.5.2.3.7-.6-.2-.6-.1-.3-.7zm-102.1-79.401c.3.4.4.2-.4.8-.3-.4-.4-.2.4-.8zM72.5 106.5c.9.2.8.1.7.4-.8-.1-.7 0-.7-.4zM12.101 176c-.3.6 0 .6-.8.5.1-.5-.1-.4.8-.5zM53.7 201.8c1.3-1 1-.9 1.3-.5-1.3.7-1 .6-1.3.5zm184.301-26.2c0 .8.1.7-.4.7.1-.9 0-.7.4-.7zM50 123.7c.5.9.7.8-.8.5-.1-.3-.2-.2.8-.5zm83.5 88c.7.5.6.3.2.8-.6-.5-.5-.2-.2-.8zM45 164.8c-.3.8-.2.7-.4.6 0-.8-.1-.7.4-.6zm7.9-52c.5.3.5.2.3.7-.5-.3-.4-.1-.3-.7z"/></g><path d="M212.507-26.16L-33.529 51.185 19.763 220.71 265.8 143.366 212.507-26.16z" fill="#fff"/><g fill="#000"><path d="M84.6 195.799c-.8-.3-1.3-.8-1.2-1.9.8.4 1.5.8 1.5 1.8-.1.1-.2.1-.3.1zM210.301 155.4c1.2-.6 1.2-.6 1.9.3-1.2.4-.8.5-1.9-.3zm12.8-4.201c.9-.2 1 .3 1.1.8-.4.1-.2.2-1.1-.8zm-16.8-91.299c1.3.1 1.2 1.1 1.6 1.6.7.7.5 1.4.4 2.1l1.2.6c1-1 1.8-2.4 3.4-2.3 0-.7.1-1.3.1-1.9l2-.9c0 1.9-.7 2.1.9 2.5.9.2.9.8.7 1.6l-2.3.1c-1.2.8-.4 2.3-1 3.4-.7-.3-1.3-.8-2.1-.3-.2.2-.9.1-1-.1-.9-1.7-2 .4-3.7-.9-.6-.5-1.5-.5-2.4-.8-.2-.7.3-1.2.8-1.6.6-.4.7-.9.8-1.5 0-.6.4-1.1.6-1.6zm7.2 3.5c-.6 0-1-.2-1.3-.1-.7.5-.5 1.1-.2 1.8.5-.5.8-1 1.5-1.7zM152.2 54.8l-.3-.8c-1.5.4-1.5.4-1.9 2.1l-2.1.9c0-.5 0-.9.1-1.3.8-1.8.7-2.5-1.1-3.1 4.1-2.8 6.1 1.9 4.5-1 .4-.2.8-.3 1.2-.5l1.1 2.3c1.4-.9 2.1-.8 3.5.7-1 1.6-1.6 3.5-3.8 4-.4.1-.9.4-1.2-.4.6-.2.9-1.1 1.8-.6.1.1.6-.3.7-.6 0-.2-.3-.6-.5-.7-.4-.1-.8 0-2.6.4-.4-.8 0-1.1.6-1.4.3.1.6.2 1 .4.1-.5.1-.9.2-1.5l-1.2 1.1zm38.7 31.999c-.1-.3-.1-.6-.2-1.1l2.2.2-.8 2.9c1.1.6 1 1.7.9 3.1-.9-.9-.4-.9-2 .4-1.5 1.3-3.2-.3-2.6-1.2 1.4-2.4 2.1-2.3 1.4-3.3-.5-.9.7-.7 1.1-1zm-136.2 24c-1.3 1.3-2.6 2.3-4.8 1.4v-1.8c.9.1 1.5.3 2.1-.4.3-.3 1-.2 1.6-.3.5-1-.7-1.1-1-1.7 0-1 .1-1.9.2-3.3 1 1.3 1.3 2.6 2.2 3.4s1.6 1.8 2.4 2.7c-1.1.7-1.1.7-2.7 0zM67.801 100.3c-.5.6-1.4 1.1-.7 2.1-.8.5-1.5.9-2.4.7.8-1.9 1.2-2.3.1-2.5 0 .9-1.3 1.5 0 2.5.3 1.3-.9 1.2-1.3 1.8l-2.4-.5c.6-.9 1.2-1.7 1-2.9-.1-.6.7-1.2 1.1-1.9 1 .9 2.4-.2 3.2 1.2.2-.4.3-.2-.4-1.2-.5-.7-.5-.7.5-1.3.5.3.3 1.4 1.2 1.4 0-.1.1.7.1.6zm-64.5-3.201c1.2-2.5 2 1.1 3.2-.7-.4-.3-.7-.7-1.2-1l1-.7c1.4 1 3 1.7 4 3.2.5.7.5.7.2 1.9-2.9.5-4.8-1.6-7.2-2.7zm198.7-48.5c.1-.8.2-1.2.2-1.8.3 0 .6-.1 1.1-.1-.1 1.2-.7 2-1.6 2.7 1.3-.1 2.4-.4 3-1.7.4 1.6-1.3 1.9-1.7 3.1 1 .4 1.2-.6 1.8-.9.4.7.4.7-.6 2.1-1.1.1-1.9-.3-2.3-1.2l-2.8.5c0-.5 0-.9-.1-1.3-.6-.5-1.6.2-2-.8-.3-.7-1.1-1.2-.6-2.2.9.6 1.6 1.5 2.5 1.8 1 .1 2-.2 3.1-.2zm38.499 52.1c.4-1 1.1-1.6 2-2-.6-1.2 1.5-.9 1-2l2.6 1c-.4 1.1-2.5.3-2.4 2.1.5.1.9.3 1.4.4l.2 3.1c-2.1-.4-3.7-1-4.8-2.6zM232 63.7l-.9-.4c.5-.6.7-1.2.1-2 2 .3 2.1.5 1.8 2.2 1.2-.7.7-.4 2-.7-.4.5-.6.6-.8.9 1.3 2-1 2.3-1.1 2.9-.2 1.2-1.6.6-2 1.4-3.8-1.7-1.6-.2.6-2.2-.4-.3-.8-.7-1.3-1 .6-.3 1-.6 1.6-1.1zm-88-16c-1.4-.8-.6-2-1.1-2.8l1.3-1.6c-.9-1.4-.9-1.5 1.3-3 .5.4.8 1.7 1 4.3-.9 1-1.7 2-2.5 3.1zm37.9-43.2c-.4-.3-.7-.8-1.2-1-1.1-.4-1.9-1.1-2.5-2.1-.2-.4-.6-.6-.9-.9-.1-.2-.2-.5-.3-.8 1.9-.1 4.8 1.4 4.8 3.1 0 1 2 2.4.9 3.6-.8.8-1.7.9-2.8.3.6-.8 1.2-1.4 2-2.2zm28.001 55.4c-.9-.8-2.9-.9-.4-2.6.6-.4 1.1-1 2-.9.6.1 1.3-.5 1.9-.8.6.6.7 1.2.1 1.9-.5.7-.9 1.4-1.4 2.4h-2.2zm27.9 39c1.5-1.7 1.9-3.7 2.3-5.6 1.5.1 2.2 1 1.3 2-1.7 2.1-.6 5.2-2.1 5.3-.7 0-1-.4-1-1 0-.2-.3-.4-.5-.7z"/><path d="M54.801 103.1c2.6-.2 3.3 1.1 2 4-.8-.1-1.8.2-2.3-.8-.8-1.7.1-2.7.3-3.2zM151.1 17.299c-.3 1.7-1.8 1.9-1.9 2.1-.8 1.4-2 .9-3.3.8l.3-2.3c.7.2 1.4.6 2 .5s1.1-.7 1.7-1l-.3-1.8 1.7-.2s0-.4.1 1.5a1.38 1.38 0 0 1-.3.4zm14.9 3.5c-.9-2.5 1.8-.9 1.8-3-3.9 0-3 .2-3.9-1 .6-.8.8 0 1.1.3.3-.2.6-.4.9-.7.8.4 1.9.6 2.3 1.2.4.5.4 1.7 0 2.3-.6 1.1 2 1.4-2.2.9zM150.901 45.2c-.5-2-3.2 0-3.1-2 .1-1.5 3.2-1.1 5.5 1.6-.6 1.1-1.6.1-2.4.4zm2 94.8c-.9-.2-1.8-.9-2.6.6-.1-.8-.3-1.3-.1-1.5.6-.9 1.1-1.7 1-2.8l3.2 1c-1.6 1.4-1.2.6-1.5 2.7zm-6.3-12.601v-1.9c1.1.1 2 .2 2.9.1s1.7-.4 2.7.3l-1.6 1.1c-.4-1.1-.1-.9-1.5-.5-.1.6-.1 1.1-.2 1.8-.9-.3-1.5-.5-2.3-.9zM63.4 43.8c1.3 0 2.7-1.5 4 .2-.6.7-.7 1.9-1.9 1.9-1.2.1-1.7-.9-2.1-2.1zm120.5 40.3c-.3 1-1.2.9-1.9.9-.9-.8-.5-1.6-.3-2.3-1-1.5-.9-1.1-.5-1.6 2.7 1.3 2.2.6 2.7 3zm-33.6-18.9c-.9-1.7-.8-1.1-.3-2.8-.4-.2-.1-.3-1.3.7-1.4-1.9 0-3.5.4-2.4.4 1-1 1 1.8.2 0 1.5.4 2.9-.6 4.3zm13.2-56.9c.6-.3 1.1-.6 1.6-.7 2.3-.4 1.9 2.3.3 2.6-.9.1-1.3-.3-1.9-1.9zm-6.4 39.9s-.5 0-.9.1c.2-.7.5-1.4.8-2.3l3.7 2.8c-.2 1-1 .3-1.5.4-1.3-.5-1.9 0-2.1-1zm48.4 52.499c-.2.7-.2 1-.4 1.3-.5.6-1.3 1-1 2 0 .1-.4.4-.6.4s-.5-.3-.5-.5c0-1.9 1-1-1-2.3.1-.5-.4-.3 3.5-.9zm.7-42.8c-3.9 1.5-2.7 1.4-5.5.4 1.5-1.7.3-.7 3.2-.7 2.5 0 2.1-.9 2.3.3zm2.2-14.499c.4-3.1-.1-1.9 2-2.3.5-.1.9-.3 1.5-.6-.3 1.5-.3 2.4-1.5 2.3-.5-.1-1.2.3-2 .6zm-3.999 3.6c-1.2-1.4-1.1-.9-.2-2 .7-.8.7-.8 1.6-.1.4.3 1.1.4 1.7.6-1 1.5-2.1.3-3.2.3.4 1.3.4 1.1.1 1.2zM173.9 52.999c-.6-.6-1.8.2-1.9-1.1l2.3-.2c1.8-.1 2.2 3.6-1.3 1.9l.9-.6z"/><path d="M61.001 98.1c.9.1 1.5.3 1.5 1.1-.1 1.3-.9 1.8-2.7 2.1l1.2-3.2zm89.2-71.4c-.8-1.9-1.7-2-.2-4.2.3-.5.8-.6 1.1-.2.2.3.3 1.1.1 1.2-1.2.6-.7 1.6-.7 2.5 0 .1-.1.3-.3.7zM183.9 84.199c.4-.2.9-.3 1.4-.5 1.7 2.2 1.3 1.5 1.2 2.6-1.1-.3-.8-.2-1.2-.6-.4.4-.6 1.3-1.3.8l-.1-2.3zM11.8 157.5c.5 1.3 1 2.4-.2 3.4-1.6-1.2-1.5-2.3.2-3.4zm22.301-57.9c.4-2.7.4-2.7-.8-4.3h1.6c.2-.4.3-.8.6-1.5.2 1.1.5 1.7-.2 2.5-.4.7.5 2.8-1.2 3.3zM76.9 23.9c.4-1.5.4-2.4 1.2-2.6.2-.1.9.5.9 1.2l-.1 2.1c-1-.7-.5-.6-2-.7zm-8.299 55.4c1 .6 2.3.2 3.2 1.5-.2.2-.4.5-.6.5-1.9 0-3.7-.2-2.6-2zm140.099-35c.3 0 2.5 0 2.2 1.8-.1.7-1 1-1.3.6l-1.2-1.9c.1-.2.2-.3.3-.5zm-83 90.899c-.3-.5-.7-1-1-1.4.7-1.1 1.2-.1 1.9 0 0-1.1.9-1.1 1.8-1.4-.3 1.6-1.7 1.9-2.7 2.8zM175.601-1.9l1 1.8-2.6.8c-.3-1.3.3-2 1.6-2.6zm2.599 159.2c.5-.7.9-1.4 1.4-2.2.8.5 1.4 1.1 1.2 2.1-.8 1.1-1.8-.4-2.6.1zm29.3-2.1c-.4 1.2-1 1.5-2.8 1.3.6-1.8.5-2 2.8-1.3zm-69.6-13.6c0 1-1.2.8-1.5 1.6-1.2-.6-.9-1.6-1-2.6 2.9 1 2.6.8 2.5 1zm85.5-123.3l-.6 1.1-3.4.1c.1-1.5 3.2-1.2 4-1.2zm-65.599 126.6l1.9-.6 1.2 1.9c-1.4.1-2.4 0-3.1-1.3zm2 23.5l2.2-1.8c.2.4.5.7.6 1.1.3 1.3-.8 1.1-2.3 1-.1 0-.1-.1-.5-.3zM213.1 49.3l.3 1.7c-1.3.4-2-.5-3-.8.1-.6-.4-.4 2.7-.9zm-92.1.8c.6.4 3.3 1.6 1.6 2.3-.5.2-1 .3-1.5.5l-.1-2.8zm37.901 50.2c-1-.1-1.9.1-2.3-1 .7-.5 1.4-1 2.6-.5l-.3 1.5zM64.3 87.7c-1.4-1.4-1.7-2.1-1.2-2.6.4-.5.9-.4 2.1.4-.7.4-1.5.8-.9 2.2zm171.9-2.5l.2-3.2c.4.1.7.1.7.1.2.7.4 1.5.4 2.2 0 .6-.3 1.2-1.3.9zm-59-27.8l2.2-.8c-1 1.3.2 1.9.1 2.9-2.1-.6-1.6-.2-2.3-2.1zm-6.499 8.3c-1.1 1.5-2 .1-3.1.8 2-6.2-.3-.5 3.1-.8zm61.1 13.1l2.5-1.7c.4.6.4 1.3-.1 1.8-.7.7-1.5.4-2.4-.1zm-57-57.8l-2.3 1.3-.9-2.3c1.2.3 2.2.6 3.2 1zM11 45.6c1-.3 1.7-.8 2.7.2-.4.4-.7 1-1.1 1.1-.7.1-1-.6-1.6-1.3zm131.1 84.7c-1.9-.8-2.4-2-1.4-3.5l1.4 3.5zM60 163.799c2.6-.1 2.8 1.6 2.4 2-.6.6-1.1-.3-2.4-2zM102.1 39.1c-.1-1.2-.1-2.3-1-3.1-.1-.1.101-.6.201-1 .3.2.699.4.799.6.3.7.4 1.5.6 2.2.3.7.1 1-.6 1.3zm38.501 100.5a23.02 23.02 0 0 1 .7 1.9c-1.2-.7-2.2.6-3.3.1-.1 0-.4.1 2.6-2zm-55.1-47.701l-.5 3.4c-1.5-1.2-1.5-2.1.5-3.4zM179.2 78.2l.9-.6c1 1.7 1 1.8.2 3.2-.6-1.9-.3-1.2-1.1-2.6z"/><path d="M217.2 56.899c.3.2.7.6.9.6 1.3-.4 1.6.5 1.7 1.4-1.6.2-1.9 0-2.6-2zM193.501 28.2c-.5-1.1-.4-1.8.6-2.1.5.6 1.1 1.2 1.7 1.8-.8 1-1.6-1-2.3.3zm-69.2 98.6c1.5-.3 1.4 1.5 1.5 3.2-1.2.3-1-.3-1.5-3.2zM208 69.8c-.8.7-1.6 1.4-3 .9l1.7-1.7c1.4.9 1.3.9 1.3.8zm-40.599 28l-.7 2.6c-.9-.6-1-1-.7-2.1.1-.5.1-.5 1.4-.5zm-16.3-80.501c.4-.6.8-1 .1-1.8 0 0 0 .1.5-.6l1.8 2.2c-1 0-1.6.6-2.4.2zm62.9 22.801l1.1 1-1.5 1.3c-.8-1.1-.8-1.1.4-2.3zm32.4 65.2c1 1.6.5 1.6-1.9 2-.2-.5-.5-.2 1.9-2zm-86.801-49c.4.5.7 1 1 1.4-.7 1.5-.7 1.5-1.7 1.1.1-.8.4-1.5.7-2.5zm9.001 46.2l-1.3-1.1c.5-.9 1-1.2 2-.7l-.7 1.8zM84.7 172.1c.8 1.8.8 2-1.2 2.5.2-.5.6-.9.5-1.2-.2-.7.1-.9.7-1.3zm-34.999-62.8c-.3-1.7 2.2-2.1 1.9 0h-1.9zM150.5 59.199c1.4.1 1.4.1 1.8 1.4-1.2 0-1.3 0-1.8-1.4zM141 132c1.3.6 2.5-.8 3.5.9-.9-.2-1.5-.6-2.2.2-.3.3-.9-.1-1.3-1.1zm43.9-51.4c.8-.1 1.6-1.2 2.7-.1-1 .4-1.8 1.1-2.7.1zm2.6-54.1l.2 1.6c-1.8-.2-1.3 0-1.8-.8.5-.2 1-.4 1.6-.8zM51.6 102.2c-.7-1.7-.4-2.2 1.3-2.6 0 0 .1-.3-1.3 2.6zm98.9 57.1c1.1-.8 1.8-.3 2.2 1.3-.3.4.1.6-2.2-1.3zm65.7-93.5l.2-2.2c1.3.9 1.3 1.3-.2 2.2zm-55.1-11.201c-.4.6.2.4-2.2 1-.1 0-.1-.1-.2-.2.1-1.1.4-1.5 1.3-1.7 0 0 0-.3-.1.9.8-.4.5-.4 1.2 0zm-15.499-16.3l-1.1.8c-.7-.8-.7-.8-.5-1.9.6.3 1 .6 1.6 1.1zm-13.801 108.9c-.7-1.3.6-1.4 1-2 .3.9.3 1.7-1 2zm45.801-95.8c.6 0 1.1 0 1.6.1 0 1-.7 1.1-1.4 1.4-.1-.5-.2-.9-.2-1.5zM14.2 196.6c.2-.6.4-1 .6-1.5l1.1.5c-.1 1-.7 1.2-1.7 1z"/><path d="M155.101 2.399c1 .2 1.5.7 1.5 1.6-1.3.2-1.3.2-1.5-1.6zM210.5 33.9l-.6-1.8c.8-.2 1.2.1 1.5.7.1.4.1.4-.9 1.1zm2.901 38.7l-1.6-.6c.6-1.3 2.7-.7 1.6.6zM130.5 129.699c.1-.5.2-.9.5-1.3.1-.2.6-.3.8-.2s.4.7.3.8c-.3.4-.8.7-1.2 1-.2-.1-.3-.2-.4-.3zM173.801 64.6l-2 .6c.1-.6.2-1 .4-1.7.5.4.9.6 1.6 1.1zm-15.301-49l.4 1.9c-.7 0-.2.3-1.7-.9l1.3-1zm-2.6-3.2l-.2-1.3c1.2-.5 1.3.8 2 1.1-.5 0-1.1.1-1.8.2zM217.7 63c-1-.6-.4-1.1-.2-1.9l1.1.6c-.3.6-.6.9-.9 1.3zm13.7 13.8c-.6.7-1 1.2-1.8.9-.1-.7.2-1.2.8-1.3.3-.1.6.2 1 .4zm-4-6.701c1.9-.5 2.1.8 1.7 1.2s-.8-.2-1.7-1.2zm-84.799-54.3c-.6-.7-2.1.2-2.3-1.4.6.9 2.1-.1 2.3 1.4zm30.599 9.1c.8.6 1.7.9 1.2 2.1-.9-.3-1.1-1-1.2-2.1zM168.901 49.1l1.3 1c-.5.4-.8.7-1.2 1.1-.5-2.1-.5-1.7-.1-2.1zM115.6 53.899l-1.7 1.9c-.3-1.2 0-1.5 1.7-1.9zM190.5 74.8l-1.3-.6.3-1.2c.9.3.8 1 1 1.8zm-12.6-11.101l-1.4-1.4c1-.4 1.3-.2 1.4 1.4zM170.2 21.4c0-.5.1-1 .1-1.8l1.6 1.3-1.7.5zm27.101-9.601c-1.2.1-1.5-.4-1.5-1.4.9 0 1.4.3 1.5 1.4zM64.3 64.9c-.4-.9-.6-1.5.2-2.1.5.7.6 1.3-.2 2.1zm84.101-24.401l-1.3 1c-.6-.3-.7-.7-.4-1.1.6-.6 1.1-.5 1.7.1zm65.099 12.9c-.4 1.2-1.5 1-2.2 1.7-.1-1.3-.4-1 2.2-1.7zM67.7 85.4c-.8.6-.8.6-1.7-.4.9-.4.9-.4 1.7.4zm141.7 66.699c-1.4-.1-.9 1.2-1.7 2.2l-.3-2c2-.6 1.7-.7 2-.2zm-61.599-89.3l-2-.2c0-1.1 1.7-1.4 2 .2zM6.601 175.2c.1-.2.1-.3.2-.4.5-.3 1-.6 1.5-.1.4.5-.6 1.8-1.7.5zm171.7-22.4c-.4 1.2.1.7-1.5 2.1-.2-.1-.3-.2-.7-.5l2.2-1.6zM68 174.899c.7 1.4.5 1.9-.8 2.3l.8-2.3zM156.9.199c.7.3 1.8-.5 1.9 1-.8-.2-1.7.1-1.9-1zM143.1 24.8l1.3 1.1c-.2.6-.5.8-1 .5s-.6-.8-.3-1.6zm31.6 134.7c-.8-1.3-.8-1.5.8-2.2l-.8 2.2zM63.2 93.7c1.2-.9 1.2-.9 1.5.5l-1.5-.5zm95.001-42.601c-1 .3-1.5-.3-2.1-1.2 2.2-.1 1.9 1.4 2.1 1.2z"/><path d="M179.601 76.299l1.8-1.1c0 .4.1.8-.1.9-.4.4-.9.7-1.7.2zM175.8 161.3c-.6.2-1.1.3-1.8.6.3-.8.6-1.3 1.4-1.3.2 0 .3.4.4.7zM161 141.799c.3-1.3.3-1.3 1.4-1.2-.4.5-.3 1.4-1.4 1.2zm-2.999-13.999c-.3-.1-.7-.2-1-.2-.2-.6 0-1 .6-1 .7.1.6.5.4 1.2zm1.3-67.001c-.7-.3-1.4-.4-1.6-.7-.3-.4.1-.8.7-.9.2.5.4.9.9 1.6zm-.1-8.499c-.5.1-1 .1-1.9.2l.9-1.4 1 1.2zM195.6 65.6c-.1.6-.1 1-.1 1.4-.5 0-.3.2-.8-1.2.2 0 .5-.1.9-.2zm-13.999-5.8c.7.3 1.3.7 1 1.8-1.5-1.7-1.4-1.4-1-1.8zm-135.4 89.899c-1.6-.3-.6-1.7-.1-1.5.7.3.4.9.1 1.5zm183.2-78.099c-.3 1.6-.4 1.6-1.8 1.6.6-.6 1.1-1 1.8-1.6zm-10.2-15.4c-1.5-.2-1.5-.3-1.2-1.7.4.5.8 1 1.2 1.7zM153.5 60.4c1-1.1 1-1.1 2.1.1-.7 0-1.3 0-2.1-.1zm7.801-39.9c.7-1.3.7-1.3 1.7-.4-.6.1-1.1.2-1.7.4zm5 74.9c1.2-.1 1.2-.1.9 1.6-.4-.6-.7-1.1-.9-1.6zm-39.6-46.501c-.8-.4-1.1-.7-.6-1.5.6.3 1 .6.6 1.5zm-61.6 41.3c.1-.4.3-.8.4-1.3.3.2.5.2.6.4.4.8-.2.9-1 .9zM225.8 18.8c-1-.4-.6-1-.8-1.7 1 .2 1 .8.8 1.7zM64.4 89.5c-.3 1.5-.1 1.3-1 1.1.5-1.5.3-1.3 1-1.1zm82.201 14.499c-1.1-1.1-.6-1.7-.2-2.3.5.2.4-.2.2 2.3zM165.8 119.1c-.1 1-.3 1.5-1.3 1.4-.2-1 .4-1.2 1.3-1.4zm50.3-50.801l-1.4 1c0-1.2.2-1.7 1.4-1zm-85.7 48.1c-.7-.7.1-1.3.1-2 1.6 1.2-.4 1.8-.1 2zM142.2 10c-1-.6-1.4-1.1-.9-2l.9 2zm40.5 61.8c.5.4.9.9 1.5 1.5-1.1 0-1.1 0-1.5-1.5zM171.401 3.7c-.8.7-1.3.2-1.8-.3.8-.5 1.3-.2 1.8.3zM42.6 43.699c.5-.6 1-.4 1.6.5-1.9 0-1.6.1-1.6-.5zm139 111.101c-1.4-1-1.4-1-.7-1.8.8.4.6 1 .7 1.8zm2.3-99.3c.4.8.6 1.4-.2 2-.3-.7-.6-1.3.2-2zM75.7 19.899c-.3-1-.6-1.7.2-2 .5.3.5-.1-.2 2zM177.4 158.8c0 1.1-.4 1.2-1.2.8.4-.3.7-.5 1.2-.8zm12-75.5l1.1-1c.1.1.3.1.3.1.1.9-.2 1.3-1.4.9zM98.9 183.699c.7.4 1.1.7 1.7 1.1-1.2.4-1.2.4-1.7-1.1z"/><path d="M150.201 136.5c-.6-.4-.9-.5-1-.8-.1-.1.2-.6.4-.6.3 0 .6.2.8.4 0 .1-.1.5-.2 1zm36.899-62c-1.3-.8-1.3-.8-.2-1.7.1.6.2 1.1.2 1.7zm-13.7 2.899c1 .8 1 .5.3 1.5-.7-.5-.7-.1-.3-1.5zm-90.9 85.8c.3.3.6.6.9.8-.3.3.1.3-1.7 0l.8-.8zM57.401 100.3l.8 1.6c-.6-.2-1-.3-1.2-.5-.6-.5-.1-.7.4-1.1zm178.9-46.201c-1.2-.2-1.6-.6-1.5-1.4.5-.4.2-.6 1.5 1.4zM56.3 71.5c-1.3.8-1.3.8-1.6-.5a7.07 7.07 0 0 1 1.6.5zm-3.399 28.1c.6-.7.5-.9 1.4-.8.1 0 .2.4.2.4-.2.2-.5.4-.8.5s-.9-.2-.8-.1zM176.5 42.399c0 1.2-.7 1.1-1.2 1.3-.4-.4-.6-.2 1.2-1.3zm-130.599-15c.8.5.8.3 0 1.3-.5-.5-.6-.1 0-1.3zM202.5 39.1l-1.2 1.7c-.2-1.1-.1-1.6 1.2-1.7zm-20.6 117.5c1.1-.6 1.3-.1 1.6.9l-1.6-.9zm-9.499-.8c0 .6.2 1.2-1.1 1.1.9-1.5.7-1.4 1.1-1.1zM208 54.6c.8.5.5.1 1.2 1.3-1 .1-1.2-.4-1.2-1.3zm-42.1 0c.3.5.5.8.8 1.1-1 .3-1 .3-.8-1.1zm10.2-8.5c-.5.8-1.1 1.1-1.7.2l1.7-.2zM60.4 95.6c.5.2.8.4 1.3.6l-1.3 1.2v-1.8zm-2.9 70.499c.3-1.2.9-.9 1.5-.5-.4.2-.9.3-1.5.5zM150.901 45.2c.6 1.8.8 1.6-.6.8.7-.9.7-.8.6-.8zm2.4-.4c.9 0 1 .5.9 1.3-1-.2-.7-1.6-.9-1.3zm-17.7 13.7c.7.9.1 1.2-.1 1.7-.6-.2-.6.2.1-1.7zM208 69.799c1.3-1.3 1-1.2 1.3-.9-.3.5-.3 1.4-1.3.9zm1.301 65.6c.1-.7.2-1.1.3-1.5.6.5.6.5-.3 1.5zm-26.5-91l-1.2-.7c.6-.3 1.3-.6 1.2.7zm-20.8 120.6c-.5-1-.6-.7.2-1.1.3 1.2.3.9-.2 1.1zM50.201 106.5c-1.1.7-1.5-.5-1.1-.6.5-.3.9 0 1.1.6zM162.5 17.199l1.3 1-1.3.3c.1-.3.1-.6 0-1.3zm52.901 5.8c-.2-.3-.4-.5-.6-.8 0 0 .3-.3.4-.3l.7.7c-.2.1-.3.3-.5.4zM117 52.9c-.3-.6-.5-.8-.8-1.3h1.3c-.2.4-.3.7-.5 1.3zm45.801 6.8c.9-.4 1.1-.1 1.3.5-.6.2-.3.4-1.3-.5zm58.299 3.1c-.3-.2-.7-.3-.7-.4 0-.2.1-.6.3-.7s.5.1.7.1l-.3 1zm-10.2-10c-.4-.2-.8-.3-1.5-.6l1.8-.4-.3 1z"/><path d="M169 4.6c.8.7.8 1 .3 1.4-.1.1-.4 0-.6-.1.1-.4.2-.7.3-1.3zM70.601 104.8c-.6.7-.3.6-1 .4.4-.9.2-.7 1-.4zm89.2-24.9c-.3-.2-.6-.3-.6-.4-.1-.2 0-.5.1-.6s.5 0 .5.1v.9zm67.399-8.4c-.2-.1-.5-.1-.5-.2-.3-.6.4-.7.7-1 .2-.5-.1.5-.2 1.2zm-99-64.601c-.8.8-.5.8-1.2.5.1-.4-.2-.3 1.2-.5zm27.601 99.701c-.8.7-.4.7-1.5.2.4-.6 0-.6 1.5-.2zm-35.5 11.799l-1.2-.4c.7-.6 1-.4 1.2.4zm-59.501 19.3c-.1.6-.1.9-.1 1.4-.2-.1-.4-.1-.5-.2-.4-.5-.2-.8.6-1.2zm66.4-17.8c.4-1.1.4-1.1 1.4-.7-.5.9-1.8.5-1.4.7zm-6.5 18.601c-.3.4-.3 1-1 .3 0 0 .1-.5.2-.5.2 0 .5.1.8.2zm-.3-129.401c.5 0 .4-.2.6.8-.7.1-.5.3-.6-.8zM142.5 139c-.1 1-.5 1.1-1 1.1-.4-.5-.5-.3 1-1.1zm-57.3 23.799c-.8.6-.5.6-1.3 0 .5-.4.2-.5 1.3 0zm81.401-24.399c.6-.7.9-.7 1.4.2l-1.4-.2zm-85.8 28.5c-.5.2-1 .3-1.5.5.3-1.1.9-.8 1.5-.5zm91.999-6.6c.3 1.1.4.9-.3 1.1-.3-1.2-.4-.9.3-1.1zm54.2-16.6c-.4.7-.1.7-1 .4.3-.8.1-.7 1-.4zm-63.8 21.9l1.6.6c-1 .5-1 .5-1.6-.6zM48.901 203.999c.5 0 1-.3 1.7.5-2-.2-1.7 0-1.7-.5zM162.6 15.1c-1.1.1-1.2-.3-1-1.1l1 1.1zm-15.699 22.5c.9.5.6.9-.1 1.3-.4-1-.3-.7.1-1.3zm-27.7 10.299c-1 .7-1.2.4-1.6-.5l1.6.5zm31.399.6c-.3.3-.5.6-1 1.2-.1-1.1.3-1.3 1-1.2zm-1.499 90.001l.6-1.2c.3.9.3.9-.6 1.2zm-78.5-52.8c-.7.3-1.1.2-1.3-.4.6-.4.9-.1 1.3.4zm90.6-26.101c-.6.6-.6.6-1.1-.2.4.1.7.1 1.1.2zm-30.801 18.6c-.3.1-.5.3-.8.4l-.2-.3c.2-.2.5-.4.7-.6.1.2.2.4.3.5zM210.9 52.8c.8 2 .6 1.6-1.2.4l1.2-.4zm-7.599 7.099c.2.5.3 1 .5 1.6-1-.4-.5-1.1-.5-1.6zm18.399 83.1c-.4.1-.8.2-1.5.5.5-1 1.1-.7 1.5-.5zM139.4 64.5c.2-.8-.1-.6 1.2-.7.1.5.3.3-1.2.7zm.4-16.201c-1 .2-.9.4-.4-.9.3.1.2-.1.4.9zm-39.199-18.4c-.2.2-.4.4-.6.5-.1 0-.4-.1-.5-.3-.1-.1.1-.4.2-.5s.4 0 .5 0a1.38 1.38 0 0 0 .4.3zm-28.6 41.3c-.5-.9-.5-.7-.1-1 .6 1 .6.7.1 1zm145.5 66.8c-.9.6-.5.7-1.4.2.5-.6.2-.5 1.4-.2zM62.2 39.899c.3-.1.6-.1.9-.2 0 .1.1.3.1.3-1.1.4-.9.3-1-.1zM143.7 9.3c.1.6.3.4-.8.7-.2-.6-.4-.4.8-.7zm17.4 45.3c-.7-.4-.5-.2-1.1-.9 0 .1-.2.1 1.1-.2v1.1zm-16.499-4.5c1.1-.5.9-.5 1.1-.1-1 .6-.8.6-1.1.1zm18.4 8c1.1.7 1 .5.9.9-1.2.1-1 .3-.9-.9zm-10.4-18.9c.2-1.1 0-.9.7-.8-.3 1.1-.1.9-.7.8zm-125.1 93.499a3.91 3.91 0 0 0 .5.4c-.4.9-.6.5-.9.3.1-.2.2-.4.4-.7zM75.7 176.5c-.2.2-.4.5-.5.5-.2-.1-.5-.2-.6-.4-.1-.1.2-.3.3-.5l.8.4zm80.7-114.2c.2 1.2.2.8-.3 1.4-.6-.7-.4-1 .3-1.4zm7.301 72.2c.8.4.7.2.3 1-.6-.4-.5-.2-.3-1zm-19.4 4.8c1-.9.7-.8 1.1-.4-1 .8-.7.8-1.1.4zm11.1-36.601c-.3-.1-.7 0-.9-.2-.3-.2.1-.6.6-.5s.4 0 .3.7zm7.399-78.8c-.4 1-.4 1-1.4.6 1.6-.6 1.5-.5 1.4-.6z"/><path d="M144.901 29.199l-.9 1.7c-.3-1-.1-1.4.9-1.7zm18.799-5.5c-.2.3 0 .3-.9.3.2-.9-.5-1.1.9-.3zM150.701 27.1c.4.4.5.1-.2 1-.5-.3-.5-.1.2-1zM145 28.6c0-.9-.1-.7.6-.7-.3.9-.2.8-.6.7zM160.101 39c.7.9.5.5.6 1.6-1.2-1.1-1.1-.7-.6-1.6zm-121.4 109.799c-.5.7-.2.7-1.1.3.5-.6.3-.5 1.1-.3zM49.9 104c.1.5.3.4-.6.7-.2-.5-.3-.3.6-.7zm10.301 56.9c-.7 1-.4.8-1.1.6.4-.9.2-.7 1.1-.6zM162.4 57c.3.1.6.2.6.3.1.1-.1.4-.2.5s-.4 0-.5-.1c-.1-.2 0-.4.1-.7zm-48.499 5.5c-.7.6-.4.6-1.1.2.5-.7.2-.6 1.1-.2zm24.9 57.6c.4-1.4.2-1.2.7-1.1-.6 1.4-.4 1.2-.7 1.1zm.099 53.9c-.7-.5-.9-.9-.6-1.3.6 0 .4-.3.6 1.3zM72.901 99.299c-.2.4-.3.7-.5 1-.2-.1-.3-.1-.3-.2-.3-.6-.1-.9.8-.8zm-2.201 75c.3-.1.5-.3.8-.4l.2.2-.6.6c-.2-.1-.3-.3-.4-.4zm63.4-31.4c.9.6.8.5.6.8-.9-.7-.8-.5-.6-.8zM216.6 41.5c-1 .3-.8.3-.9.1.9-.6.7-.6.9-.1zM94.5 177.7l.6-.6s.2.1.2.2c-.5.9-.4.8-.8.4zm66.801-12.301c.8.3.7.1.4.9-.7-.3-.6-.1-.4-.9zM158.2 167.3c.1-.2.2-.5.4-.7l.3.1c-.3 1-.2.8-.7.6zM68.801 68.399c.1-.1.1-.3.3-.3.3-.1.6-.1 1 0-1.4.6-1.2.6-1.3.3zM122.001 40c-.2-.1-.5-.3-.7-.4l.1-.3c1 .4.9.3.6.7zm24.8-9.201c.4-.3.3-.4.8.3-.3.4-.1.4-.8-.3zm32.4 131.401c-.8.6-.6.6-.9.3.8-.7.7-.6.9-.3zM141.7 30.9V30c.5.4.5.4 0 .9zm-27.099 5.199c-.5.6-.3.6-1 .3.4-.6.1-.6 1-.3zm11 26.1c.4.3.3.1.3.9-.9-.3-.6-.5-.3-.9zm32.7 9.801c.1.3.3.5.4.8-.1 0-.3.1-.3.1-.6-.9-.5-.8-.1-.9zM185.9 7.299c-.5.8-.3.7-1 .5.3-.7 0-.6 1-.5zM71.001 101.2c-.7.5-.4.4-.9.2.6-.7.4-.7.9-.2zM159.2 52.3l1.7-.7c-.8 1.5-1.6.5-1.7.7zm50.7 7.599c.3.4 1 .6.3 1.3-.9-.5-.2-1.3-.3-1.3zM95.4 26.9c-.7.4-.4.5-1 0 .4-.4.1-.5 1 0zm42.5-15.2h-.7v-.3c.8-.1.7 0 .7.3zm-33.7 10.5c-.3.5-.1.5-.8.2.3-.5.1-.5.8-.2zm-20.999 5c-.6.7-.3.7-1.1.2.4-.5.1-.5 1.1-.2zM63.5 32.5c.7.8.6.5.2 1.1-.6-.6-.5-.3-.2-1.1zm131 38.8c-1-.7-.8-.4-.7-1.1.4-.1.3-.2.7 1.1zm-2.799.9c-.3-.2-.5-.2-.6-.4 0-.1.1-.4.2-.5s.4 0 .5.2c.1.1 0 .3-.1.7zm-189.6 59.199l.2 1.7c-.7-.5-.9-.9-.2-1.7zm185.7-53.499c.9-.3.7-.3.8 0-.8.3-.7.4-.8 0zm-61.8 20.9c-.2-.1-.4-.2-.4-.3a.76.76 0 0 1 .2-.4.76.76 0 0 1 .4.2c.1.1-.1.3-.2.5zm47.7-15.301c-.2.3-.4.4-.6.6l-.3-.2c.4-.8.3-.6.9-.4zm27.3-7.899c.2 1.2.2 1-.3 1.1-.1-1.3-.2-1.1.3-1.1zm-34.7 11.9c-.2-.1-.4-.2-.5-.2.1-.2.2-.4.3-.5 0 0 .3 0 .3.1 0 .2-.1.4-.1.6zM80.7 24.599c-.9-.1-1.1-.5-1-1 .5-.2.3-.4 1 1zm152.401 51.6c-1-.7-.9-.5-.8-.8.9.3.6.1 1 .7 0-.1-.1 0-.2.1zM116.1 58.8c-.2.2-.2.4-.4.5 0 0-.7-.1-.1-.7 0-.1.2.1.5.2zm42.2-2.4l-.3-1.3c1.2.5 1.1.3.3 1.3zm.8-7.201c.2.6-.1.8-.9.8.7-1.1.5-1 .9-.8zM116.9 119.2c-.7.8-.5.7-.9.4.8-.8.6-.7.9-.4zm-71.5 24.4c-.8-.5-.8-.2-.5-1 .8.3.6.1.5 1zM146 60.5c-.6.7-.3.7-1 .3.3-.5 0-.4 1-.3zm-6.199-12.201c1.1.4.5 1 .1.9-.7-.3.1-1.1-.1-.9zM53.501 76.7c-.2-1.2-.2-1 .2-1.1.3 1.2.4 1-.2 1.1zm92.1 56.999c1-.4.8-.4 1 0-1 .5-.8.5-1 0zM3.5 91.6c.3-.3.6-.9.9-.1 0 .1-.1.4-.2.4-.2-.1-.4-.2-.7-.3zm127.9 58.5c-1 1-.8.9-1.2.7.4-.8.1-.5 1.2-.7zm74.101-133.9c-.1-.9-.2-.8.2-.8 0 1 .1.8-.2.8zm-53.4 16.499c-.2.2-.3.4-.4.5-.3-.3-.6-.3 0-.8.1 0 .3.2.4.3zM168 61.2c.5-.3.8-.4 1.2-.6-.2.7-.2.7-1.2.6zm2.501-37.4c0 .2.1.5.1.7l-.2.1c-.3-.8-.2-.6.1-.8zm-52.4 15.2c.2.1.4.2.5.3-.1.2-.2.4-.4.5-.1 0-.4-.1-.4-.2 0-.2.1-.4.3-.6zM136.2 72.7c-.6.5-.5.5-.7.2.6-.5.5-.4.7-.2zM58.9 99.9c-.5.4-.2.5-.9 0 .6-.4.3-.3.9 0zm-4.599 56.999c.2.1.4.2.5.4l-.2.3c-.2 0-.3-.2-.5-.2 0-.1.1-.2.2-.5zM130.4 116.3c.2.4.5.8-.2 1.1-.5-.6.3-1 .2-1.1zm-3.599 19.5c-.7.6-.4.5-1 .1.7-.5.4-.4 1-.1zm-7.901 3.5c-.1.2-.2.4-.3.4a.76.76 0 0 1-.4-.2.76.76 0 0 1 .2-.4c.1 0 .3.1.5.2zm84.001-68.5c.6.7.5.4.4 1-.6-.3-.5 0-.4-1zm18.9-5.1c-.3-.1-.3.1-.2-.8.4 0 .3-.1.2.8zM83.7 156.199a1.38 1.38 0 0 1 .4.3c-.1.1-.1.3-.2.3a.76.76 0 0 1-.4-.2l.2-.4zM211.1 28.7c-.3.5-.2.5-.7.3.3-.5.1-.4.7-.3zm-5.4 39.799c0-.8 0-.5.4-1.1.1.9.2.6-.2 1.1 0 .1-.1.1-.2 0zm43.1 40.3c-.5-.2-.5-.1-.3-.6.5.2.4 0 .3.6zM61.4 30.8c.2.1.3.1.5.2-.1.2-.1.3-.3.4 0 0-.3-.1-.3-.2-.1 0 0-.2.1-.4zm86.5 109.6c0 .8.1.7-.4.7.1-.9 0-.7.4-.7zm-91.2.899c1-.3.8-.3.9 0-.9.3-.7.4-.9 0zm70.5-21.4c.3.2.5.5 0 .7-.1.1-.3 0-.5-.1.6-.7.6-.6.5-.6zm3.5-8.1c-.2.6 0 .5-.7.3.2-.4.1-.3.7-.3zM52.101 115.3c-.6-.2-.6 0-.2-.7.5.3.4.2.2.7z"/><path d="M91.501 167.4c-.7-.4-.6-.2-.3-.8.6.3.5.1.3.8zM156.9 146c.1-.2.2-.3.3-.5l.3.1c-.2.7-.2.6-.6.4zm52.701-14.101c-.2.9-.1.8-.5.7.2-.9.1-.8.5-.7zM142.1 63.2c-.6.5-.4.5-.7.1.5-.5.4-.5.7-.1zm18.6 86.699c-.8-.5-.6-.3-.5-.7.8.5.7.4.5.7zm42.201-10.599c.2.2.3.4.5.5-.6-.1-.5.1-.5-.5zM48.2 42.3c-.5-.4-.5-.2-.1-.8.4.3.4 0 .1.8zm25.9-21.8l.4.4c-.1.1-.2.2-.4.2-.1 0-.2-.1-.2-.1 0-.2.1-.3.2-.5zM183 50.2c.2-.1.4-.3.6-.4l.2.2c-.6.7-.6.6-.8.2zm31.6 87.599l-.1.3c-.3 0-.5 0-.8-.1.2-.5 0-.5.9-.2zm-5.6 2.1c.7.4.7.2.2.8-.6-.5-.5-.3-.2-.8zM124.1 20.6c.5.4.5.2.2.7-.5-.3-.4-.2-.2-.7zM40.901 153.899c-.5-.3-.5-.1-.3-.7.5.2.4.1.3.7zM175.2 50c.3.8.3.6 0 .8-.3-.8-.4-.7 0-.8zm-75.099 125.9c.9-.4.7-.4.9 0-.9.5-.7.5-.9 0zm43.9-96.001c-.1-.1-.3-.2-.4-.3l.4-.4s.3.2.3.3c.1.2-.1.3-.3.4zM178.3 152.8c.7-.6.6-.6.8-.3-.9.3-.8.2-.8.3zM85.4 79.6c-.2-.5-.4-.3.5-.8.3.5.4.3-.5.8zm-71.2 39.799c-1 .7-.7.7-1 .2 1-.7.8-.6 1-.2zM61.6 44.6c.3.2.5.3.6.5l-.2.4c-.9-.4-.6-.5-.4-.9zm99.101 118.1c-.1.2-.2.4-.3.5 0 0-.3-.1-.3-.2a.76.76 0 0 1 .2-.4c0-.1.2 0 .4.1zM86.6 186.699h.8v.3c-1 .1-.8 0-.8-.3zM88.201 94.6c.6.3.5 0 .3.8-.5-.4-.4-.2-.3-.8zm-28.5 8.5c.2.2.4.4.4.5-.1.2-.2.4-.4.4-.1 0-.4-.2-.4-.3 0-.2.1-.4.4-.6zM181.8 9.2c-.5.4-.3.4-.6 0 .5-.3.3-.3.6 0zM90.301 186.8c.4.3.6.4.7.6 0 0-.2.4-.2.3-.7-.1-.5-.5-.5-.9zM67.8 100.3c.3-.1.5-.1.9-.2 0 .3 0 .6-.1 1.2l-.8-1zm105.201 61.8c-.1.5.1.4-.7.3.1-.3-.1-.3.7-.3zM110.7 33.399c.5.3.5.1.2.7-.6-.3-.5-.2-.2-.7zM244.5 94.5c-.7.7-.4.6-1 .4.4-.6.2-.4 1-.4zm-189.4 7.6c-.4.6-.1.5-.9.3.2-.4 0-.4.9-.3zm11.701 17.2c.6.9.5.6.2 1.2-.7-.4-.6-.1-.2-1.2zm24.9 25.1c-.4.4-.3.3-.6.2.4-.5.2-.5.6-.2z"/></g></mask><g mask="url(#A)"><path d="M157.2 234.9c-60 18.9-124.2-14.6-143.1-74.6C-4.8 100.2 28.7 36 88.7 17.2c60-18.9 124.2 14.6 143.1 74.6S217.2 216 157.2 234.9zM90.4 22.7c-57 17.9-88.8 78.9-70.9 135.9s78.9 88.8 135.9 70.9 88.8-78.9 70.9-135.9C208.4 36.5 147.4 4.7 90.4 22.7zm-24.2 87.2c5.3-18.4 19.4-34 39.1-40.2 19.6-6.2 40.1-1.5 55 10.6l6.4-2c-16.5-15.1-40.4-21.2-63.2-14S64.6 90.2 59.7 112l6.5-2.1zm114.1 30.3c-4.8 19.3-19.3 35.8-39.6 42.2s-41.6 1.2-56.6-11.9l-6.3 2c16.5 16.1 41.2 22.8 64.7 15.4s39.8-27 44.2-49.7l-6.4 2zm-26 85.5c-55 17.3-113.7-13.4-131-68.3C6 102.4 36.6 43.6 91.6 26.3s113.7 13.4 131 68.3c17.3 55.1-13.4 113.8-68.3 131.1zM92.5 29.1C39 45.9 9.2 103.1 26 156.5c16.8 53.5 74 83.3 127.4 66.5 53.5-16.8 83.3-74 66.5-127.4-16.8-53.5-74-83.3-127.399-66.5zm97.9 107.899c-4.1 24.7-21.5 46.3-47 54.3-25.4 8-52.1.3-69.6-17.6l-3.1 1c18.3 19.3 46.6 27.8 73.6 19.3s45.4-31.7 49.2-58l-3.1 1zm-134.6-23.9c4.6-23.9 21.9-44.5 46.6-52.3 24.8-7.8 50.7-.7 68.2 16.2l3.1-1c-18.2-18.4-45.8-26.3-72.1-18s-44.5 30.5-48.8 56l3-.9zM48.9 176.6c-5.3 1.7-8.9-.3-10.6-5.9L28 138.2c-1.8-5.6 0-9.3 5.2-10.9l6.3-2c5.3-1.7 8.8.3 10.6 6l10.2 32.5c1.8 5.6 0 9.2-5.3 10.9l-6.1 1.9zm-.3-6.5L52 169c1.7-.5 2.3-1.8 1.7-3.7l-9.9-31.6c-.6-1.9-1.9-2.6-3.9-2l-3.1 1c-1.9.6-2.6 1.9-2 3.8l9.9 31.6c.6 2 1.9 2.7 3.9 2zm5.501-49.4l12.9-4.1c5-1.6 8.5.4 10.2 6.1l3.8 12.2c1.4 4.3.9 7.5-1.3 9.4l11.1 19.1-6.3 2-10.6-18.6-4 1.3 6.3 19.9-6.6 2.1-15.5-49.4zm14.1 21.7l4.3-1.4c2-.6 2.6-2.1 1.8-4.5l-3.3-10.6c-.8-2.4-2.1-3.3-4.1-2.6l-4.3 1.4 5.6 17.7zm28.1 19.299l-15.5-49.4 6.6-2.1 15.5 49.4-6.6 2.1zm18-25.5l-1.9-6 10-3.2 7.6 24.1-12.9 4.1c-5.1 1.6-8.5-.4-10.3-5.9l-10.3-32.6c-1.8-5.6-.1-9.3 5-10.9l4.5-1.4c5.6-1.8 9.3.2 11.1 6l1.7 5.4-6.6 2.1-1.4-4.4c-.7-2.4-2.1-3.3-3.9-2.7l-1.7.5c-1.9.6-2.5 2.1-1.8 4.5l9.6 30.2c.7 2.4 2.1 3.3 4 2.7l4.5-1.4-3.8-12.1-3.4 1zm21.699 13l-15.5-49.4 6.6-2.1 15.5 49.4-6.6 2.1zm19.2-34l-7.5-23.9 6.6-2.1 15.5 49.4-6.6 2.1-3.1-9.8-14.2-20.3 10.2 32.3-6.6 2.1-15.5-49.4 6.6-2.1 14.6 21.7zm27.7 19.3l-6.6 2.1-12.9-40.9c-1.8-5.6 0-9.3 5.3-10.9l5-1.6c5.3-1.7 8.8.3 10.6 6l12.9 40.9-6.6 2.1-5.7-18.1-7.6 2.4 5.6 18zm0-26.5l-5.2-16.4c-.6-1.9-1.9-2.6-3.8-2l-1.8.6c-1.9.6-2.6 1.9-2 3.8l5.2 16.4 7.6-2.4zm36.401 15l-15.7 4.9-15.5-49.4 6.6-2.1 13.6 43.4 9.1-2.9 1.9 6.1zM54.7 73.2l3.2-3.9 1.5 1.3-3.2 3.9-1.5-1.3zm14-5.4c-1.2-.2-2.3-1-3.5-2.4l-4-4.7c-1.1-1.3-1.7-2.6-1.7-3.8s.6-2.3 2-3.4c1.3-1.1 2.6-1.6 3.7-1.4 1.2.2 2.3 1 3.4 2.3l4 4.7c1.1 1.3 1.7 2.6 1.7 3.8s-.6 2.3-2 3.5c-1.2 1.1-2.4 1.6-3.6 1.4zm2.7-4.4c-.1-.4-.4-.9-.8-1.4l-5-5.9c-.4-.5-.8-.9-1.2-1-.4-.2-.8 0-1.2.3-.4.4-.6.8-.5 1.2s.4.9.8 1.4l5 5.9c.4.5.9.9 1.3 1 .4.2.8.1 1.2-.3s.5-.8.4-1.2z" fill="#010101"/><path d="M68.8 48.1l3.6-2.3c1.5-.9 2.8-1.4 3.9-1.3s2.1.8 2.9 2.1c.6.9.9 1.7 1 2.4s-.1 1.4-.6 2.1l6.2 5.6-2.9 1.8-5.5-5.3-1 .6 3.9 6.3-2.8 1.8-8.7-13.8zm7.3 3.7c.7-.4 1-.9 1.1-1.4s-.1-1.1-.6-1.8c-.4-.7-.9-1.1-1.3-1.3s-1-.1-1.6.3l-1 .6 2.5 4 .9-.4zm4.1-10.3l3-1.4 7.1 14.8-3 1.4-7.1-14.8zm12.301 10.9c-1-.7-1.8-1.9-2.4-3.6l-1.8-5.2c-.6-1.8-.8-3.2-.4-4.4s1.4-2 3-2.6 2.9-.6 3.8-.1c1 .5 1.7 1.5 2.2 3l.3.9-3.1 1.1-.4-1.1c-.3-.7-.5-1.2-.8-1.5s-.7-.3-1.3-.1-.9.5-.9 1c0 .4.1 1 .3 1.7l2.5 6.9c.3.7.6 1.2.9 1.6.3.3.8.4 1.4.2.5-.2.9-.5.9-1 .1-.5 0-1.1-.3-1.8l-.4-1.7-1.5.5-.7-1.9 4.4-1.6L101 50.6l-2.1.7-.7-1.3c-.1 1.2-.7 2.1-2 2.5-1.4.7-2.7.6-3.7-.1zm6.6-18.1l3.2-.8 3.9 16-3.2.8-3.9-16zM106 32.7l2.3-.3 4.8 8-1.1-8.5 2.7-.4 2.2 16.3-2.2.3-4.8-8.5 1.2 9-2.8.4-2.3-16.3zm15.301-1.4h3.7l3.1 16.4h-3.1l-.6-3.6h-2.6l-.6 3.6h-3.1l3.2-16.4zm2.8 10.7l-1-6.6-1 6.6h2zm7.299-10.4l3.3.4-1.7 14 3.8.5-.3 2.3-7.1-.9 2-16.3zm13.4 11l4.9 1.4-.6 1.9-4.9-1.4.6-1.9zM98.7 209.699l4.9 1.3-.5 1.9-4.9-1.3.5-1.9zm12.7 9.701c-.7-1-.9-2.3-.7-4.1l.6-6.1c.2-1.8.7-3.1 1.5-3.9s2.1-1.2 3.8-1 2.9.7 3.6 1.7.9 2.3.8 4.1l-.6 6.1c-.2 1.7-.7 3-1.5 3.9-.8.8-2.1 1.2-3.8 1-1.9-.1-3-.7-3.7-1.7zm5-1.1c.2-.4.4-.9.4-1.6l.7-7.7c.1-.7 0-1.2-.1-1.6-.2-.4-.5-.6-1.1-.7-.6 0-1 .1-1.2.5s-.4.9-.4 1.5l-.7 7.7c-.1.7 0 1.2.1 1.6.2.4.5.6 1.1.7s1-.1 1.2-.4zm6.1-13.301l4.3-.2c1.8-.1 3.1.2 4 .8s1.4 1.7 1.5 3.3c.1 1.1-.1 1.9-.3 2.6-.3.7-.8 1.2-1.5 1.6l2.7 7.9-3.4.2-2.2-7.3-1.2.1.4 7.4-3.3.2-1-16.6zm4.7 6.8c.8 0 1.3-.3 1.6-.7s.4-1 .4-1.8-.2-1.4-.5-1.8-.8-.5-1.6-.5l-1.2.1.2 4.7h1.1zm6.3-7.499l3.3-.5 2.5 16.2-3.3.5-2.5-16.2zm9.7 13.7c-.9-.8-1.6-2-2.1-3.8l-1.4-5.3c-.5-1.8-.5-3.3 0-4.4s1.5-1.9 3.2-2.3c1.6-.4 2.9-.3 3.8.3s1.5 1.7 1.9 3.2l.2.9-3.1.8-.3-1.1c-.2-.7-.4-1.3-.7-1.6s-.7-.4-1.2-.2c-.6.2-.9.5-1 .9s0 1 .2 1.8l1.8 7.1c.2.7.5 1.3.8 1.6s.8.4 1.3.3c.6-.1.9-.5 1-.9.1-.5.1-1.1-.1-1.9l-.4-1.7-1.5.4-.5-2 4.5-1.2 2.1 8.2-2.1.6-.6-1.4c-.2 1.2-.9 2-2.2 2.3-1.5.4-2.7.2-3.6-.6zm5.7-17.401l3.1-1.2 5.7 15.4-3.1 1.2-5.7-15.4zm4.8-1.699l2.1-1 7 6-3.8-7.7 2.5-1.2 7.3 14.7-2 1-7.3-6.5 4 8.1-2.6 1.3-7.2-14.7zm11.1-6l3.1-2.1 11.8 11.9-2.6 1.7-2.5-2.7-2.2 1.4 1.5 3.3-2.6 1.7-6.5-15.2zm8.4 7.3l-4.5-4.9 2.9 6 1.6-1.1zm-2.099-11.7l2.5-2.2 9.2 10.8 2.9-2.5 1.5 1.7-5.5 4.7-10.6-12.5zm15.699-3l3.3-3.9 1.5 1.3-3.3 3.9-1.5-1.3zM107.6 78.399l4 4.2 5.7-1-2.8 5.1 2.7 5.2-5.7-1.2-4.1 4.2-.7-5.7-5.2-2.6 5.3-2.5.8-5.7zm17.4-1.5l2.8 3 4.1-.7-2 3.6 1.9 3.7-4-.8-2.9 2.9-.5-4.1-3.7-1.8 3.7-1.7.6-4.1zM92.5 87.1l2.8 3 4.1-.7-2 3.6 1.9 3.7-4.1-.8-2.8 3-.5-4.1-3.7-1.9 3.7-1.7.6-4.1zm44 83.2l-4-4.3-5.7 1 2.8-5.1-2.7-5.1 5.7 1.1 4-4.2.8 5.8 5.2 2.5-5.3 2.5-.8 5.8zm-17.4 1.4l-2.8-3-4.1.7 2-3.6-1.9-3.6 4 .8 2.9-3 .5 4.1 3.7 1.8-3.7 1.7-.6 4.1zm32.5-10.2l-2.8-3-4.1.7 2-3.6-1.9-3.7 4 .8 2.9-2.9.5 4.1 3.7 1.8-3.7 1.7-.6 4.1z" fill="#010101"/></g></g><defs><clipPath id="B"><path fill="#fff" d="M0 0h250v250H0z"/></clipPath></defs></svg>