<svg xmlns="http://www.w3.org/2000/svg" xmlns:xlink="http://www.w3.org/1999/xlink" width="4000" height="4000">
  <style>
    .B{fill:#371a45}.C{opacity:.35}.D{fill:#fff}.E{fill:#ffda22}.F{opacity:.5}.G{fill:#00bdff}
  </style>
  <path d="M2389.4 3295.1c-227.9-4.3-447.8-37.1-667.1-99.4-45.7-13.7-82.2-58.3-69-107.5l152.4-496.2c13.2-42.9 55.4-66.6 94.9-54.8 168.3 47.1 335.8 72 510.4 76.1 41.2.2 74.7 35.2 74.8 80.1l1 519.1c-1.8 50.8-49.8 82.8-97.4 82.6z" class="D"/>
  <g class="B">
    <path d="m2486.3 3032.7.3 179.6c-1.7 50.9-49.7 82.9-97.3 82.7-227.9-4.3-447.8-37.1-667.1-99.4-45.7-13.7-82.2-58.3-69-107.5l52.7-171.7c-13.2 42.9 14.9 91.2 63.2 105.7 206 58.3 411.7 89 625.8 93.3 50.6.2 91.5-37.8 91.4-82.7z" class="C"/>
    <path d="M1880 2534.1c6.8 0 13.7 1 20.6 3 168.3 47.1 335.8 72 510.4 76.1 41.2.2 74.7 35.2 74.8 80.1l1 519.1c-1.7 50.8-49.4 82.7-96.9 82.7h-.4c-227.9-4.3-447.8-37.1-667.1-99.4-45.7-13.7-82.2-58.3-69-107.5l152.4-496.2c10.7-35.5 41.5-57.9 74.2-57.9m0-28.6c-46.5 0-87.4 31.4-101.7 78l-69.8 227.5-82.5 268.7c-.1.3-.2.7-.3 1-18 67 30.8 125 88.4 142.3.1 0 .3.1.4.1 222.5 63.3 443.1 96.2 674.4 100.5h.9c59.9 0 123.2-41.3 125.6-110.4v-1l-1-518v-1c-.1-60.5-45.3-108.2-103-108.6-172.4-4-336.9-28.6-502.9-75-9.3-2.7-18.9-4.1-28.5-4.1z"/>
  </g>
  <path d="M2579.5 3063.6c-52.5 92-96.7 79.9-133.6 38.3-29-32.8-53.4-83.8-73.6-116.5-23.6-38.3-24.8-195.1-21.9-315.2 2-81 5.8-145.3 5.8-145.3s18.8 11.2 46.5 32c17 12.8 37.5 29.2 58.9 48.7 103 94.2 229.6 262.2 117.9 458z" class="D"/>
  <path d="M2500.2 3147.6h-.2c-52.3-.1-90.7-68.2-121.5-122.9l-18.4-31.8c-40.8-66.1-20.7-427.9-18.3-468.9.3-5 3.2-9.5 7.6-11.8s9.7-2.2 14 .4c4.1 2.5 102.1 61.5 180.2 159.3 105.2 131.7 121.9 269.6 48.2 398.8-29.4 51.7-59.4 76.9-91.6 76.9zM2369 2550.5c-8.2 157.8-10.5 385.5 15.5 427.4 6 9.8 12.3 20.9 19 32.8 25.7 45.7 61 108.2 96.6 108.3h.1c20.4 0 43.5-21.6 66.9-62.5 68.2-119.6 53-242.8-45.3-366.1-54.2-68.1-120.2-117.6-152.8-139.9zm-663.2-656.2c-5.1 0-9.5-3.9-10-9.1-8.2-93.8 21.6-141.3 47.9-183.2 26.4-42.1 49.2-78.4 33.2-155.5l-26.5-119.1c-1.4-5.3 1.8-10.8 7.2-12.2s10.8 1.8 12.2 7.2c.3 1.3 8.7 33.5 26.7 120.1 17.7 85-8.3 126.4-35.8 170.2-25.9 41.2-52.6 83.7-44.9 170.9.5 5.5-3.6 10.4-9.1 10.8-.3-.1-.6-.1-.9-.1z" class="B"/>
  <path d="m1793.7 1377.7 36.8 71.5c10.8 21-1.6 46.7-24.8 50.9-7.7 1.4-16.8 2.5-27.4 3-15.4.8-28.3-.4-39-2.5-22.7-4.5-35.2-29.1-25.1-50l35.1-72.9h44.4z" class="E"/>
  <g class="B">
    <path d="M1739.2 1472.3c10.7 2.1 23.6 3.3 39 2.5 10.6-.6 19.6-1.6 27.4-3 12.2-2.2 21.3-10.3 25.8-20.5a33.47 33.47 0 0 1 2.9 15.7c.3-5.9-.9-12.1-3.9-17.8l-36.8-71.5h-44.4l-35.1 72.9c-.2.4-.3.8-.5 1.1 4.5 10.1 13.6 18.2 25.6 20.6z" class="C"/>
    <path d="M1768.6 1517.7c-11.3 0-22.1-1-32.2-3-15.3-3.1-28-12.8-34.9-26.7-6.9-13.8-7-29.7-.3-43.6l35.1-72.9c2.4-5 7.4-8.1 12.9-8.1h44.4c5.4 0 10.3 3 12.7 7.8l36.8 71.5c7.3 14.2 7.5 30.6.4 44.9-7 14.2-19.9 23.9-35.4 26.7-8.9 1.6-18.7 2.7-29.1 3.2l-10.4.2zm-10.4-125.6-31.2 64.8c-2.8 5.9-2.8 12.6.1 18.4 2.9 5.9 8.4 10.1 14.9 11.4 10.8 2.2 22.7 2.9 35.5 2.2 9.3-.5 17.9-1.4 25.6-2.8 6.5-1.2 11.8-5.2 14.8-11.2 3-6.1 3-13-.2-19.1l-32.8-63.7h-26.7z"/>
  </g>
  <path fill="#293856" d="M1817.1 2196.1v1.4c4.9 7.1 10.2 14 16.1 20.8l-16.1-22.2z"/>
  <path d="m2032.1 2481.4-70.6 77.8-88.2 97.2s-7.5-5.2-19.6-16.8c-53.8-51.6-198.4-229.8-175.6-639.6 0 0-21.6-8.3-44.7-29.6-54.7-50.2-5.5-170.5 18.9-209.3 26.9-42.8 55.4-25.1 58.9-22.7 17.8-17.2 44.7-21.2 84.5-7.6 99.7 33.8 103 101.6 103 101.6 6 25.2 24.1 133.2 45.9 254.5 20 111.8 43.2 234.8 62.6 314.9 9.4 38.4 17.9 67 24.9 79.6z" class="D"/>
  <g class="B">
    <path d="m1932.9 2590.6-59.6 65.7s-7.5-5.2-19.6-16.8c-53.8-51.6-198.4-229.8-175.6-639.6 0 0-21.6-8.3-44.7-29.6-30.7-28.2-28.7-78.5-16.6-124 8.1 137.9 113.6 129.5 145.8 124.2 14.2-2.3 20.4-47.3 20.4-47.3-1.6 28.8 6.7 58.4-2.9 83.4-12.5 32.5-52.3 35.7-54.8 80.3-18.4 324.6 150.7 449.4 198.6 495.4 3.3 3.3 6.4 6 9 8.3z" class="C"/>
    <path d="M1790.1 1792.4c1.1 23-3.9 46.2-16.9 67.3-6.5 10.5-15.1 20.9-28.4 27.9-6.6 3.4-14.4 5.8-22.6 5.7-8.2.1-16.5-2.4-23.2-6.4-6.8-4-12.1-9.4-16.3-15.2s-7.3-11.9-9.4-18.2c-4.6-12.6-5.6-25.5-5.1-37.9.2-3.1.6-6.2.9-9.3l1.4-8.5c.8-5.7 2.3-11.4 3.5-17.1 3-11.4 6.9-22.9 13.1-34 6.1-11 15.3-21.8 27.5-28.7 12.1-7 25.8-9.6 38.4-9.6 6.5-.3 12.5.7 18.6 1.4 3 .5 5.9 1.2 8.8 1.8s5.9 1.2 8.7 2.1c11.4 3.1 22 7.3 32.7 11.8 21.2 9.3 41.5 22.3 58.2 39.7 8.3 8.8 15.8 18.5 21.5 29.5 1.4 2.7 2.7 5.6 4 8.4 1.2 2.9 2.3 5.8 3.3 8.8.9 3 1.9 6 2.6 9.2.4 1.5.7 3.2 1 4.8.2.8.3 1.6.4 2.6.1.9.2 1.7.3 3.1l-.4-2.6c3.1 14 5 26.8 7.1 40l6 39.2 12.1 78c8.3 51.9 17.2 103.7 27.6 155.1 10.3 51.4 22 102.5 36.3 152.7 7.3 25 14.7 50 24.9 73.7 5.1 11.9 9.8 23.8 14 35.9 2 6.1 4.1 12.1 5.6 18.6 1.5 6.4 3.2 12.7 3.7 20v.4c.2 2.9-2 5.3-4.8 5.5-1.3.1-2.5-.3-3.4-1-11.8-8.6-20.3-19.8-27.1-31.6s-12-24.4-16.3-37.1c-8.3-25.6-17.1-50.8-24.2-76.5-14.6-51.2-26.4-103-36.8-155-10.5-51.9-19.4-104.1-27.8-156.3l-12.1-78.2-6-39c-2.1-12.8-4.1-26.1-6.7-37.9l-.1-.5-.3-2-.1-.9c0-.4-.1-.9-.2-1.5-.2-1-.3-2.1-.6-3.2-.5-2.2-1.2-4.3-1.8-6.5-.7-2.2-1.6-4.3-2.5-6.5l-3.1-6.4c-4.3-8.4-10.3-16.1-16.9-23.1-13.5-14-30.5-25.1-49.1-33.3-18.7-7.9-38.8-15-57-14.7-9.1 0-17.4 1.8-24.2 5.7-6.9 3.9-12.6 10.2-17 18.1s-7.7 17.1-10.2 26.8c-1 5-2.3 9.8-3 14.9l-1.2 7.6c-.2 2.3-.5 4.7-.6 7-.4 9.2.5 18.5 3.7 26.4 2.9 8 8.2 14.3 13.6 17.2 5.4 2.7 10.4 2.4 16.7-.6 6.2-3.1 12.7-9.3 18.3-16.8s10.7-16.2 15.8-25.1c5.2-9 9.9-18.5 16-28.1l.1-.2c1.5-2.3 4.6-3 6.9-1.5 1.2 1.1 2 2.6 2.1 4.1z"/>
    <path d="M1873.3 2670.6c-2.9 0-5.8-.9-8.3-2.7-2.4-1.7-59.2-43-112.5-146.9-47.9-93.4-101.9-257.8-89.2-512.3-9.3-4.8-24.2-13.7-39.6-27.9-60.2-55.2-13.8-179.3 16.5-227.5 12.4-19.7 27.2-31.3 43.8-34.3 20.2-3.6 34.6 6.9 36.2 8.1 6.3 4.8 7.5 13.8 2.7 20.1s-13.8 7.5-20.1 2.7c0 0-6.1-4.2-14.1-2.6-8.2 1.6-16.6 9-24.3 21.3-21.6 34.2-68.7 147.7-21.4 191.1 20.7 19 40 26.7 40.2 26.7 5.8 2.3 9.5 8 9.1 14.2-27.2 483.7 187.1 642.4 189.2 644 6.4 4.6 7.9 13.5 3.3 20-2.6 3.9-7.1 6-11.5 6z"/>
    <path d="M1717.3 2303.5c-15.6 0-25.3-1.4-25.8-1.4-5.5-.8-9.2-5.9-8.4-11.4s5.9-9.2 11.4-8.4c7.3 1.1 180.3 24.7 248.4-156.2 1.9-5.2 7.7-7.8 12.9-5.8 5.2 1.9 7.8 7.7 5.8 12.9-57.7 153.2-188.7 170.3-244.3 170.3zm64.5-499.3c6.2 2.4 10.5 7.5 13.9 12.8 3.3 5.4 5.4 11.4 7 17.5 2.8 12.2 3 24.5 1.9 36.5-2.5 23.7-6.7 46.6-14.1 69.5-3.7 11.4-8.3 22.8-14.4 33.7-3.1 5.5-6.5 10.9-10.5 16.1-4.1 5.1-8.6 10.1-14 14.5s-11.4 8.3-18.1 11.1c-6.7 2.7-13.9 4.4-21.2 5-14.5.9-28.2-2.7-40-7.9-7.2-3.2-10.5-11.7-7.3-18.9 3.1-7.1 11.3-10.3 18.4-7.5l.1.1c9.2 3.7 18.3 5.6 26.7 5.2 4.2-.3 8.2-1.2 12.1-2.7 3.9-1.6 7.6-3.8 11.2-6.5 7.1-5.6 13.4-13.4 18.9-22.1 5.4-8.8 10-18.5 14.1-28.5 4.1-10.1 7.4-20.6 10.5-31.3 3-10.6 5.8-21.7 7.7-32.3 1.8-10.7 3.2-21.4 3.2-31.9-.2-10.4-1.1-21.3-7.4-30.2l-.2-.3c-.4-.5-.3-1.3.3-1.6.4-.4.8-.4 1.2-.3z"/>
  </g>
  <g class="D">
    <path d="m2418.1 2754.1-5.6 35.3-2-15.3c1.8-6.6 4.3-13.3 7.6-20z"/>
    <path d="M2556.9 3587.4c-112.4 89.4-275.8 89.9-332.6 39.3-57.6-51.2-72.7-152.3-93.5-265.3-8.8-47.5-20.1-122.4-20.1-122.4s-20.8 3.2-49.8.1c-26.6-2.8-45.2-11.1-45.2-11.1l-60.5 138.4c-45.5 102.4-112.3 193.1-148.1 220.1-45.2 34.1-216.5-17.5-302.3-132.7-50.3-67.6-58.4-155-11.5-195.5 8.7-7.5 19.3-13.4 31.9-17.3 58-17.7 125.4 9 125.4 9 19.8-82.6 41.2-159.5 62.8-229.8 13.6-44.6 27.4-86.5 40.9-125.6 37.4-108.7 73-195.4 99.3-255.2 26.9-61.2 44.2-94.4 44.2-94.4s4.5-22.9 20-52.1c15.9-29.9 43.3-66.3 89.2-91.2 43.5-23.6 103.6-36.9 186.3-24.7 138.2 20.5 190.3 105.9 209.1 179.8 8.2 32.3 10.1 62.4 9.9 84-.1 20.2-2 32.8-2 32.8s21.6 117.3 31.3 308.4c1.9 37.2 3.4 77.3 4.1 119.8l.2 12.6c1.1 76.7-.1 161.1-5 251.5 0 0 60.9-2.8 112.9 28.2 19.8 11.8 33.7 26.1 42.6 41.8 29.2 50.6 6.4 114.9-39.5 151.5z"/>
  </g>
  <g class="B">
    <path d="M2556.9 3587.4c-112.4 89.4-275.8 89.9-332.6 39.3-57.6-51.2-72.7-152.3-93.5-265.3-8.8-47.5-20.1-122.4-20.1-122.4s-20.8 3.2-49.8.1c-26.6-2.8-45.2-11.1-45.2-11.1l-60.5 138.4c-45.5 102.4-112.3 193.1-148.1 220.1-45.2 34.1-216.5-17.5-302.3-132.7-50.3-67.6-58.4-155-11.5-195.5 45.6 1.8 97.7 21.8 137.8 62.6 54.5 55.6 147.2 168.1 190.1 147.8 43-20.3 88.5-137 91-187.1 2.5-50-27-105.6-11-108.2 16-2.5 48.8 27 53.9 11 5-16-37.9-65.3-21.5-87.2 10.5-14 62.1 65.5 124.7 74.5 81.5 11.8 136.9-55.2 168.1-38.7 12.5 6.6-53.5 60.2-37.5 68.4s59.8 0 62.5 14.1c6.3 32.4-78.3 64.2-79.8 99.9s26.1 204.6 75 208.6c23.1 1.9 96.6-18.6 169.3-45.7 68.7-25.6 119.4-74.7 180.8-42.4 28.9 50.6 6.1 114.9-39.8 151.5z" class="C"/>
    <path d="M2415.2 2672.8c7.8 28.2 13.4 56.8 18.5 85.4l6.7 43.1 3 21.6 2.5 21.7c6.4 57.8 10.9 115.7 12.9 173.8l1.4 43.5c.5 14.5.7 29 .7 43.6l.3 43.6-.4 43.6c-.5 58.1-2.7 116.1-5.4 174.1l-15-15.1c6.9-.2 12.7.1 19 .4 6.1.4 12.2 1 18.3 1.9 12.2 1.7 24.2 4.2 36.1 7.7 23.7 7 46.8 17.5 66.9 34 9.9 8.3 18.9 18.1 26 29.3 7 11.3 12.1 23.9 14.8 36.9 5.3 26.2 1 53.2-9.3 76.6-10.3 23.6-26.4 44.1-46.4 60.1-19.1 15-39.7 28.1-61.5 38.7-43.5 21.3-91 33.7-139.2 36.9-24.1 1.6-48.6.6-72.8-3.5-24.1-4.5-48.6-11.8-70.4-27.5-2.6-2-5.4-4.2-7.8-6.4l-6.8-6.7c-4.8-4.3-8.4-9.5-12.6-14.3-3.9-5-7.3-10.2-10.9-15.4-3.1-5.4-6.4-10.7-9.2-16.1-11.3-21.9-19.3-44.7-25.9-67.6-13.1-45.8-20.8-92-29.2-137.6l-22.9-137.9 16.3 12c-5 .7-9 1-13.4 1.3-4.3.2-8.6.4-12.9.4-8.5 0-17.1-.4-25.6-1.2-8.6-.8-17.3-2.3-25.7-4.3-4.2-1-8.4-2.2-12.6-3.5-4.3-1.4-8.1-2.6-12.9-4.7l19-7.4-57.4 131.4c-19.3 44.3-42.4 87.3-68.9 128-13.2 20.4-27.3 40.2-42.6 59.3-7.8 9.5-15.7 18.9-24.6 27.9-2.1 2.3-4.4 4.5-6.8 6.7s-4.6 4.4-7.2 6.5l-3.9 3.2c-.7.5-1.2 1-2 1.6l-2.6 1.7c-3.5 2.4-7 3.8-10.6 5.4-14.2 5.1-27.8 6-40.8 5.8-13-.3-25.6-2.1-38-4.6-24.6-5-48.2-12.9-70.9-22.7-45.3-19.6-87.4-46.7-123.3-81.1-17.8-17.4-34.2-36.2-47.7-57.9-13.3-21.6-23.5-45.2-29-70.3-5.4-25-6.8-51.8.8-78 3.7-13 10-25.7 18.7-36.6 8.7-11 20.2-19.8 32.6-26.1 25.3-11.9 51.7-14.1 77.1-12.8 12.7.7 25.3 2.6 37.6 5.2 6.2 1.3 12.3 2.8 18.3 4.5 6.1 1.8 11.9 3.5 18.4 6l-19.2 10 23.2-91 25.3-90.4 13.3-45 14.1-44.8 7.1-22.4 7.4-22.3 15-44.5 15.5-44.3 15.9-44.2c5.2-14.8 10.7-29.4 16.4-44l17.4-43.7 9.1-21.7 9.6-21.5c6.4-14.3 13.2-28.4 20.2-42.5 14.2-28 29.3-55.5 47.4-81.6 1.5-2.2 4.5-2.7 6.7-1.2 1.8 1.3 2.5 3.5 1.8 5.5v.1c-20.5 59.1-43.7 116.6-66.5 174.3-23.1 57.6-46.1 115.3-66.4 174.1l-14.9 44.2-7.4 22.1-7 22.2-14 44.5-13.2 44.7c-9 29.7-16.8 59.8-25.1 89.8l-23 90.3c-2 7.8-9.9 12.4-17.6 10.5-.5-.1-1-.3-1.5-.5-4.6-1.8-10.3-3.5-15.6-5.1-5.4-1.5-10.9-2.9-16.4-4-11-2.3-22.2-4-33.3-4.6s-22.1-.3-32.8 1.2l-7.9 1.3-7.7 2c-5.1 1.3-9.7 3.2-14.3 5.3-8.9 4.5-16.8 10.6-22.9 18.3s-10.8 16.8-13.6 26.7c-5.9 19.9-5.1 42.3-.4 63.7 4.8 21.5 13.6 42.4 25.4 61.4 11.7 18.9 26.9 36.5 43.2 52.4 33.1 31.7 72.5 57.2 114.8 75.4 21.1 9.1 43.1 16.4 65.2 20.9 11.1 2.2 22.2 3.7 33 4s21.4-.9 29.7-3.9c1.8-.9 3.9-1.6 5.3-2.7l1.2-.7c.4-.3 1-.8 1.5-1.2l3-2.5c2.1-1.6 4-3.6 6.1-5.5 2-1.8 4-3.8 6-5.9 7.9-8 15.4-16.9 22.8-25.8 14.5-18.1 28.1-37.3 40.9-56.9 25.6-39.4 47.9-80.8 66.7-124l57.3-131.1c3.2-7.3 11.6-10.6 18.9-7.5l.1.1c2.6 1.1 6.4 2.5 9.8 3.5 3.5 1.1 7.1 2.1 10.7 2.9a161.29 161.29 0 0 0 21.9 3.6c7.5.7 15.1 1.1 22.7 1.1a210.28 210.28 0 0 0 11.3-.3 150.79 150.79 0 0 0 10.7-1c7.8-1.1 15 4.3 16.3 12l22.8 137c8.5 45.7 16.2 91.3 28.6 134.9 6.3 21.7 13.8 42.9 23.8 62.3 2.5 4.9 5.4 9.4 8 14.1 3.1 4.3 5.9 8.9 9.2 13.1 3.5 3.9 6.5 8.4 10.4 11.8l5.6 5.5c1.9 1.7 3.7 3.1 5.6 4.6 16 11.6 37.1 18.5 58.4 22.3 21.5 3.7 43.8 4.7 66 3.2 44.4-2.9 88.5-14.4 128.4-34.1 20-9.7 38.8-21.7 56.3-35.3 16.3-13.1 29.6-30.1 38-49.1s11.4-40 7.5-59.5c-2-9.7-5.8-19-11-27.4-5.3-8.4-12.2-16-20.1-22.5-15.8-13.1-35.8-22.5-56.6-28.5-10.4-3-21.1-5.3-32-6.8-5.4-.7-10.9-1.3-16.3-1.7-5.3-.4-11.1-.5-15.8-.4h-.1c-8 .2-14.7-6.1-14.9-14.1v-1l3.5-86.4 1.3-86.4v-43.2l-.8-43.2-1.2-43.2-1.5-43.2-9.8-172.5-12.4-172.6v-.1c-.2-2.6 1.8-4.9 4.4-5.1 2.1 0 4.1 1.5 4.7 3.6z"/>
    <path d="M2461.5 2605.6c-15.4 13.1-31.8 25-49 35.3-19.7 11.8-40.5 21.7-62.1 29.4-57.1 20.4-119.8 26.1-183.3 13.5-83.2-16.6-154.3-62-205.6-124.6-16.7-20.4-31.3-42.6-43.5-66.2-38.5-74.1-53.8-162.2-37.6-251.6 10.5-57.9 32.9-110.1 64.2-154.4 20 111.8 43.2 234.8 62.6 314.9 43.5-23.6 103.6-36.9 186.3-24.7 138.2 20.5 190.3 105.9 209.1 179.8 17.1 12.7 37.5 29 58.9 48.6z" class="C"/>
  </g>
  <path d="M2642 2443.5c-4.5-1.4-7-6.1-5.7-10.5l70.5-233.2c1.4-4.5 6.1-7 10.5-5.7 46.9 14.2 73.5 63.7 59.3 110.6l-24 79.5c-14.2 46.9-63.7 73.4-110.6 59.3z" class="D"/>
  <g class="B">
    <path d="M2667.6 2450c-8.7 0-17.6-1.3-26.4-3.9-2.9-.9-5.2-2.8-6.6-5.4s-1.7-5.7-.8-8.5l70.5-233.2c.9-2.9 2.8-5.2 5.4-6.6s5.7-1.7 8.5-.9c23.4 7.1 42.6 22.8 54.2 44.4 11.5 21.5 14 46.3 6.9 69.7l-24 79.5c-12 39.4-48.4 64.9-87.7 64.9zm-24.8-9.2c45.4 13.7 93.5-12.1 107.2-57.4l24-79.5c6.6-22 4.3-45.2-6.5-65.5-10.8-20.2-28.9-35.1-50.9-41.7-1.5-.4-3-.3-4.3.4s-2.3 1.9-2.8 3.4l-70.5 233.2c-.4 1.5-.3 3 .4 4.3.7 1.4 1.9 2.4 3.4 2.8z"/>
    <path d="m2763.9 2346.9-11.3 37.3c-14.2 46.9-63.7 73.5-110.6 59.3-4.5-1.3-7-6.1-5.6-10.6l18.7-62c.4 3.2 2.6 6 5.9 7l5.5 1.7c37.1 11.2 75.8-3 97.4-32.7z" class="C"/>
    <path d="M2667.6 2462.6c-9.9 0-20-1.4-30-4.5-6.1-1.8-11.1-5.9-14.1-11.5s-3.6-12-1.8-18.1l70.5-233.2c1.8-6.1 5.9-11.1 11.5-14.1s12.1-3.6 18.1-1.8c26.6 8 48.5 26 61.6 50.5s15.9 52.6 7.9 79.3l-24 79.5c-13.6 44.8-55 73.9-99.7 73.9zm-14.5-32.1c36.7 7.5 73.8-14.2 84.8-50.7l24-79.5c5.7-18.8 3.7-38.6-5.6-55.9-8.2-15.2-21.2-26.9-37-33.3l-66.2 219.4zm-6.7-1.7z"/>
  </g>
  <path d="M1947.5 1961.5c4.5 1.4 7 6.1 5.7 10.5l-70.5 233.2c-1.4 4.5-6.1 7-10.5 5.7-46.9-14.2-73.5-63.7-59.3-110.6l24-79.5c14.2-47 63.7-73.5 110.6-59.3z" class="D"/>
  <g class="B">
    <path d="M1874.6 2214c-1.1 0-2.2-.2-3.3-.5-48.3-14.6-75.7-65.8-61.1-114l24-79.5c14.6-48.3 65.8-75.7 114-61.1 5.9 1.8 9.3 8.1 7.5 14l-70.5 233.2c-.9 2.9-2.8 5.2-5.4 6.6-1.6.9-3.4 1.3-5.2 1.3zm47.3-253.6c-36.9 0-71.1 24-82.4 61.1l-24 79.5c-6.6 22-4.3 45.2 6.5 65.5 10.8 20.2 28.9 35 50.9 41.7 1.5.4 3 .3 4.3-.4s2.3-1.9 2.8-3.4l70.5-233.2c.9-3-.8-6.2-3.8-7.1-8.3-2.5-16.6-3.7-24.8-3.7z"/>
    <path d="m1902.3 2140.5-19.6 64.7c-1.3 4.5-6.1 7-10.6 5.6-24.6-7.4-43.7-24.6-54.1-46.1-9.4-19.4-11.9-42.2-5.2-64.5l10.1-33.5c4.4 33.4 27.9 62.9 62.3 73.3l8.5 2.6c3.2 1 6.4 0 8.6-2.1z" class="C"/>
    <path d="M1874.6 2226.6c-2.3 0-4.6-.3-6.9-1-54.9-16.6-86.1-74.8-69.5-129.7l24-79.5c16.6-54.9 74.8-86.1 129.7-69.5 12.6 3.8 19.7 17.1 15.9 29.6l-70.5 233.2c-1.8 6.1-5.9 11.1-11.5 14.1-3.5 1.8-7.3 2.8-11.2 2.8zm47.3-253.6c-31.5 0-60.7 20.5-70.3 52.2l-24 79.5c-11 36.5 7.9 75.1 42.6 89.2l66.3-219.5c-5-.9-9.8-1.4-14.6-1.4zm21.1 3.1z"/>
  </g>
  <circle cx="2294.8" cy="2202.5" r="415.2" class="D"/>
  <g class="B">
    <path d="M2295 2620.7c-50.3 0-100.7-9.2-149.1-27.7-104.3-39.8-186.9-117.8-232.5-219.7s-48.8-215.4-9.1-319.8c39.8-104.3 117.8-186.9 219.7-232.5s215.4-48.8 319.8-9.1c104.3 39.8 186.9 117.8 232.5 219.7s48.8 215.4 9.1 319.8l-2.6-1 2.6 1c-39.8 104.3-117.8 186.9-219.7 232.5-54.7 24.5-112.7 36.8-170.7 36.8zm-.4-830.9c-57.3 0-114.5 12.1-168.4 36.2-100.5 45-177.5 126.5-216.8 229.4s-36.1 215 8.9 315.5 126.5 177.5 229.4 216.8 215 36.1 315.5-8.9 177.5-126.5 216.8-229.4 36.1-215-8.9-315.5-126.5-177.5-229.4-216.8c-47.7-18.2-97.4-27.3-147.1-27.3z"/>
    <path d="M2699.5 2295.3c-4.2 18.5-9.8 36.9-16.8 55.1-81.7 214.2-321.7 321.7-535.9 240s-321.7-321.7-240-535.9c2.3-6.2 4.8-12.3 7.5-18.2-45.9 198.8 60.7 406 256.7 480.8 208.1 79.3 440.4-19.7 528.5-221.8z" class="C"/>
    <path d="M2295 2630.4c-51.5 0-103-9.4-152.6-28.3-106.7-40.7-191.2-120.6-237.9-224.8-46.7-104.3-50-220.5-9.3-327.2 84-220.4 331.7-331.3 552-247.2 106.7 40.7 191.2 120.6 237.9 224.8 46.7 104.3 50 220.5 9.3 327.2l-11.7-4.5 11.7 4.5c-40.7 106.7-120.6 191.2-224.8 237.9-55.9 25-115.2 37.6-174.6 37.6zm-.4-830.8c-56 0-111.8 11.8-164.4 35.4-98.2 44-173.3 123.5-211.7 224-38.3 100.5-35.2 209.9 8.7 308.1 44 98.2 123.5 173.3 224 211.7 100.5 38.3 209.9 35.2 308.1-8.7 98.2-44 173.3-123.5 211.7-224 38.3-100.5 35.2-209.9-8.7-308.1-44-98.2-123.5-173.3-224-211.7-46.6-17.9-95.2-26.7-143.7-26.7z"/>
    <path d="M2677.7 2359.9c-27.8 76.3-78.4 138.2-142.1 181.4-47.8 32.4-206.4 61.8-368.2 4.5-150-53.1-257.1-182.4-272.8-237.9-21-74.1-20-154 7.8-230.3 73.6-202 277.6-222.6 491.8-144.6 214 77.9 357.1 224.9 283.5 426.9z"/>
    <path d="M2357.7 2593.9c-58.9 0-126.3-9.1-195.5-33.6-156.9-55.6-265.7-189.1-282.5-248.2-22.7-79.9-19.9-162.8 8.1-239.8 36.1-99.2 106.7-163.9 204-187 85.6-20.3 191.9-8.8 307.4 33.2 115.5 42.1 204.3 101.6 256.8 172.2 59.7 80.3 72.2 175.2 36 274.4-28 76.9-79.2 142.2-147.9 188.8-28.6 19.6-98.1 40-186.4 40zm-178.3-687.5c-104.6 0-212.4 38.5-262.7 176.4-25.8 70.8-28.4 147.2-7.5 220.9 14.8 52.2 118.3 176.4 263.2 227.7 160.7 56.9 312.6 25.7 354.5-2.7 63.4-43 110.5-103.1 136.3-174 32.9-90.3 22.2-173-31.8-245.6-48.9-65.8-132.8-121.7-242.6-161.7-49-17.9-128.3-41-209.4-41z"/>
  </g>
  <g class="D">
    <ellipse transform="scale(-1) rotate(30.283 8449.628 -9466.325)" cx="2561.7" cy="2286.6" rx="53.2" ry="73.5" class="F"/>
    <ellipse transform="rotate(-141.776 2450.56 2401.1)" cx="2450.6" cy="2401" rx="28.9" ry="33.7" class="F"/>
  </g>
  <path fill="#111a28" d="M2670.9 2144c30.9 62.5 36.3 134.8 6.8 215.9-27.8 76.4-78.4 138.2-142.1 181.4-47.8 32.4-206.4 61.8-368.3 4.5-57.1-20.2-108-51.5-150-85.6 200.4 66.2 393.9 29.7 453.2-10.5 80.9-54.8 145.1-133.3 180.4-230.2 9.4-25.9 16-51 20-75.5z" class="C"/>
  <path d="M2708.8 2180.6c-3.5 0-6.8-1.8-8.6-5-.4-.7-.8-1.6-1-2.4-32.2-116.3-140.1-215.5-295.9-272.3-156.7-57.1-303.7-48.7-403.1 23-.3.2-.6.4-1 .6-4.8 2.7-10.9 1.1-13.6-3.7-2.6-4.6-1.2-10.5 3.2-13.3 104.6-75.4 258.3-84.7 421.3-25.3 161.9 59 274.3 163 308.3 285.5 1.3 4.4-.5 9.3-4.6 11.6a10.09 10.09 0 0 1-5 1.3z" class="B"/>
  <path d="M1945.6 2229.4s10-222.1 146.3-262.4 290.7 16.3 283.5 24.9c0 0-186.2-20.9-302.4 90-89.5 85.5-127.4 147.5-127.4 147.5z" class="D F"/>
  <path d="M2338.6 927.8c-2.4 22-6.2 44-11.2 65.9-11.7 50.2-30.4 99.7-56.7 147.1-151.8 273.1-496.2 371.5-769.3 219.7-217.5-120.8-324.1-363.8-281.9-595.7 10.8-59.3 31.3-117.9 62.2-173.6 48.3-86.8 116-156 194.8-205.1 12.7-7.9 25.6-15.3 38.8-22.2 71.1-36.9 149.4-58.4 229.5-62.9.7 0 1.4-.1 2.1-.1a361.09 361.09 0 0 1 14.7-.6 477.05 477.05 0 0 1 29.3 0c66.4 1.7 133.3 15.1 197.4 41.2 21.2 8.6 42.1 18.5 62.6 29.9l13.1 7.5c2.6 1.5 5.2 3.1 7.7 4.7 191.6 117.2 290.1 332.2 266.9 544.2z" class="E"/>
  <path d="M2341.5 889.9c-7.4-183-103.6-358.2-269.7-459.8l-7.7-4.7c-4.3-2.6-8.7-5-13.1-7.5-20.5-11.4-41.4-21.4-62.6-29.9-64.1-26.1-131-39.5-197.4-41.2-9.8-.2-19.5-.2-29.3 0a361.09 361.09 0 0 0-14.7.6c-.7 0-1.4.1-2.1.1-80.1 4.5-158.4 26-229.5 62.9-13.2 6.8-26.2 14.2-38.8 22.2-78.7 49-146.5 118.2-194.8 205.1-30.9 55.6-51.4 114.2-62.2 173.6-4.7 25.8-7.5 51.7-8.6 77.5a561.94 561.94 0 0 1 8.6-123.9c10.8-59.3 31.3-117.9 62.2-173.6 48.3-86.8 116-156 194.8-205.1 12.7-7.9 25.6-15.3 38.8-22.2 71.1-36.9 149.4-58.4 229.5-62.9.7 0 1.4-.1 2.1-.1a361.09 361.09 0 0 1 14.7-.6 477.05 477.05 0 0 1 29.3 0c66.4 1.7 133.3 15.1 197.4 41.2 21.2 8.6 42.1 18.5 62.6 29.9l13.1 7.5c2.6 1.5 5.2 3.1 7.7 4.7 180.1 110.2 278 306.9 269.7 506.2z" class="D F"/>
  <g class="B">
    <path d="M1501.4 1317.7c273.1 151.8 617.5 53.4 769.3-219.7 26.3-47.3 45.1-96.8 56.7-147.1 5.1-21.9 8.8-43.9 11.2-65.9 4.3-39.2 4.4-78.6.6-117.4l-.6 5.4c-2.4 22-6.1 44-11.2 65.9-11.6 50.2-30.4 99.7-56.7 147.1-151.8 273.1-496.2 371.5-769.3 219.7-168.5-93.6-270.5-260.6-288.2-438.9-21.8 217.8 84.7 437.8 288.2 550.9z" class="C"/>
    <path d="M1772.2 1446.1c-95.4 0-192.1-23.5-281.2-73-280-155.6-381.3-510.1-225.7-790.1 75.4-135.7 199.1-233.8 348.3-276.5 149.2-42.6 306.1-24.6 441.8 50.8s233.8 199.1 276.5 348.3c42.6 149.2 24.6 306.1-50.8 441.8-106.1 190.9-304.6 298.7-508.9 298.7zm1.8-1131.5c-50.8 0-101.8 7.1-152 21.4-141.4 40.4-258.5 133.4-329.9 261.9-71.4 128.5-88.5 277.1-48.1 418.5s133.4 258.5 261.9 329.9c84.4 46.9 176 69.2 266.4 69.2 193.5 0 381.5-102.1 482-283 71.4-128.5 88.5-277.1 48.1-418.5S2169 455.5 2040.5 384.1c-82.9-46.1-174.2-69.5-266.5-69.5zm-495.3 275.8z"/>
    <path d="M1918.2 593.5c69 1.4 118.9-32.2 111.5-75.1s-69.3-78.8-138.2-80.1c-69-1.4-118.9 32.2-111.5 75.1 7.3 42.9 69.2 78.7 138.2 80.1z" class="C"/>
  </g>
  <path d="M1917 593.9c59.7 3 101.9-17.4 94.2-45.5s-62.3-53.2-122-56.2-101.9 17.4-94.2 45.5c7.7 28 62.3 53.2 122 56.2z" class="E"/>
  <g class="B">
    <path d="M1805.3 466.2c-7.6 7.3-13.4 15.9-16 25.3-2.6 9.3-1.8 19.1 1.5 28 3.3 9 9.1 17.2 16.2 24.3s15.2 13.5 24.2 18.6c17.9 10.2 37.9 17.5 58.5 20.9 10.3 2.1 20.7 2.8 31.1 3.2 10.4 0 20.8-.6 30.9-2.3 10.1-1.8 20-4.3 29.2-8.2 9.1-4 17.5-9.2 24.2-15.6s11.4-14.2 13.2-22.7c1.7-8.5.8-17.7-2.9-26.4-3.6-8.8-9.7-16.9-16.8-24.2-3.5-3.8-7.5-7-11.5-10.4-4.3-3-8.4-6.2-13-8.9-17.9-11.4-38.6-18.7-59.8-23.9h-.2c-1.9-.5-3.1-2.4-2.6-4.3.4-1.8 2.1-2.9 3.8-2.7 11.2 1.1 22.6 2.6 33.6 5.8 5.6 1.2 11 3.4 16.5 5.2 5.3 2.2 10.8 4.2 15.9 7 10.4 5.1 20.4 11.6 29.4 19.5s17 17.4 22.7 28.9c5.6 11.4 8.4 25.1 6 38.5-2.2 13.4-9.2 25.6-18.2 34.8-9 9.4-19.8 16-30.9 21.1-11.2 4.9-22.9 8.1-34.6 10.3-11.8 2.2-23.6 2.6-35.4 2.6-11.8-.6-23.5-1.5-35-3.9-5.8-.9-11.4-2.7-17.1-4.2-5.6-1.8-11.3-3.5-16.7-5.7-11-4.1-21.6-9.7-31.6-16.2s-19.2-14.4-27.2-23.5c-7.9-9.2-14.5-20-17.9-32.3-3.2-12.2-3-25.8 1.9-37.4 4.8-11.7 13.4-21 23-27.7a4.48 4.48 0 0 1 6.2 1.1c1.3 1.4 1 3.9-.6 5.4zm75.5 167c19 4.4 37.7 5.5 56.2 3.8 18.5-1.8 36.6-6.6 53.6-13.7 17-7.2 33-16.9 46.2-29.4s23.3-28.1 25.9-47v-.1c.3-2 2.1-3.4 4.1-3.1 1.6.2 2.8 1.4 3.1 2.8 2.2 10.5 1 21.8-2.4 32.3-3.5 10.5-9.1 20.1-16 28.4-13.8 16.9-31.9 29.4-51.4 38-9.8 4.3-20 7.6-30.4 9.8-10.5 2-21.1 3.3-31.8 3.1-21.3-.2-42.8-5.5-60.6-16.8-2.1-1.3-2.7-4.1-1.4-6.2 1-1.6 3-2.3 4.9-1.9z"/>
    <path d="M2083.3 931.1c5.2 68.4 43.4 114.7 85.4 103.3s71.8-76.1 66.6-144.5-43.4-114.7-85.4-103.3c-41.9 11.4-71.8 76.1-66.6 144.5z" class="C"/>
  </g>
  <path d="M2082.9 929.7c2.7 59.7 27 99.8 54.2 89.4 27.2-10.3 47.1-67.1 44.3-126.8-2.7-59.7-27-99.8-54.2-89.4s-47 67.1-44.3 126.8z" class="E"/>
  <g class="B">
    <path d="M2199.4 806.4c-7.9-6.9-17.1-11.8-26.7-13.5-9.5-1.7-19.2 0-27.8 4.1s-16.2 10.7-22.6 18.4-12 16.4-16.2 25.8c-8.5 18.8-13.8 39.4-15.2 60.2-1.1 10.4-.8 20.9-.2 31.3 1 10.4 2.6 20.6 5.2 30.6 2.7 9.9 6.2 19.5 11 28.3 4.9 8.7 10.8 16.5 17.8 22.6 7 6 15.2 10 23.9 10.9 8.6.9 17.7-.9 26-5.4 8.4-4.4 15.9-11.3 22.5-19 3.4-3.8 6.3-8.2 9.2-12.4 2.6-4.5 5.4-9 7.6-13.8 9.7-18.9 15-40.2 18.1-61.8v-.2c.3-2 2.1-3.3 4.1-3 1.8.3 3.1 1.8 3.1 3.6-.1 11.3-.4 22.8-2.5 34-.7 5.7-2.3 11.2-3.6 16.9-1.7 5.5-3.2 11.1-5.4 16.5-4.1 10.9-9.6 21.4-16.7 31.1-7 9.7-15.7 18.6-26.6 25.3-10.8 6.7-24.2 10.8-37.7 9.7-13.5-.9-26.4-6.7-36.4-14.8-10.2-8-17.9-18.2-24-28.8-6-10.7-10.3-22-13.6-33.5s-4.8-23.3-5.9-35c-.6-11.8-.8-23.6.5-35.3.4-5.9 1.6-11.6 2.5-17.4 1.3-5.7 2.4-11.5 4.1-17.2 3-11.4 7.6-22.4 13.1-32.9 5.5-10.6 12.5-20.5 20.8-29.3 8.5-8.7 18.6-16.4 30.5-20.9 11.8-4.4 25.4-5.4 37.5-1.7 12.1 3.6 22.2 11.3 29.8 20.3 1.6 1.9 1.4 4.7-.5 6.3-1.6 1.5-4.1 1.4-5.7 0zm-159.1 91c-2.6 19.3-1.9 38 1.6 56.3 3.5 18.2 10.1 35.8 18.8 52 8.8 16.2 19.9 31.3 33.6 43.2 13.7 12 30.2 20.5 49.2 21.3h.1c2 .1 3.6 1.8 3.5 3.8-.1 1.6-1.1 2.9-2.5 3.3-10.2 3.2-21.6 3.1-32.3.7-10.7-2.5-20.8-7.2-29.8-13.3-18.1-12.1-32.3-28.9-42.7-47.5-5.2-9.3-9.4-19.2-12.7-29.4-3-10.2-5.3-20.7-6.1-31.4-1.8-21.2 1.4-43.2 10.9-61.9 1.1-2.2 3.8-3.1 6.1-2 1.6 1.1 2.5 2.9 2.3 4.9z"/>
    <path d="M1734.4 760.1c-57.6-10.4-111.8 20.9-121.1 69.9s29.8 97.2 87.4 107.7c57.6 10.4 111.8-20.9 121.1-69.9 9.3-49.1-29.8-97.3-87.4-107.7z" class="C"/>
  </g>
  <path d="M1719.6 820.9c-43.1 8.4-71.7 43.3-63.8 77.9s49.2 55.9 92.3 47.5 71.7-43.3 63.8-77.9c-7.8-34.6-49.1-55.9-92.3-47.5z" class="E"/>
  <g class="B">
    <path d="M1699.2 946.1c-23-2.3-45.7-11.4-64.4-26.5-9.2-7.7-17.4-16.7-24-27.1-6.4-10.5-11.1-22.2-13.2-34.6-4.6-24.9 2.8-51.5 18-71.6 7.6-10.1 17.3-18.4 27.7-25 10.5-6.6 21.9-11.7 33.8-14.7s24.1-4.4 36.3-4.3c12.2.3 24.2 2.1 35.9 5.3 11.6 3.5 22.8 8.4 33.2 14.6 10.4 6.3 19.7 14.4 27.7 23.5 16.3 18 26 42.5 25.2 66.9-.5 24.4-12.3 47.6-30 62.6-1.5 1.3-3.8 1.1-5.1-.4-1.2-1.4-1.1-3.4 0-4.7 14-16.3 21.7-37.1 20.1-57.4-1.1-20.2-10.5-39.4-24.8-53.7-28.3-29.1-73.7-40.1-112.3-29.4-19.2 5.4-37.2 15.8-49.1 31.1-12 15-18 34.7-15.6 54 2.3 19.4 12.6 38 27.3 52.3 14.8 14.5 34 24.6 54.9 30.3 2.4.6 3.8 3.1 3.1 5.5-.5 2.1-2.6 3.5-4.7 3.3zm165.6-129.7c10.3 20.2 14.5 44 11.7 67.3s-13.2 45.7-28.3 63.8c-14.9 18.4-35 32.1-56.4 41.4-21.6 9-44.9 13.8-68.2 14-23.3 0-46.5-3.9-68.2-12.2-21.7-8.2-41.9-20.6-58.6-36.8-16.7-16-30.2-35.8-37.6-57.7-7.2-22-8.5-45.9-2.7-67.7.5-1.9 2.5-3.1 4.4-2.6 1.7.5 2.8 2.1 2.7 3.8v.1c-2.1 21.1 1.4 42.2 9.7 61 8.2 18.9 21.5 35.1 36.9 48.5 31.1 26.7 72.5 40.3 113.3 39.7 20.3-.3 40.6-4.1 59.3-11.8 9.5-3.6 18.3-8.5 26.8-14 4.1-2.9 8.1-5.9 12-9.2 3.5-3.5 7.7-6.5 10.8-10.4l5-5.6c1.6-1.9 2.9-4 4.4-6 3.2-3.9 5.4-8.4 7.9-12.8 1.4-2.1 2.3-4.5 3.3-6.8l3-6.9c1.4-4.8 3.1-9.6 4.2-14.6 4.5-19.8 3-41-3.4-61.1-.7-2.4.6-4.9 2.9-5.6 1.8-.7 4.1.2 5.1 2.2z"/>
    <path d="M1517.8 479.9c-31 1.3-55.5 23.8-54.6 50.2.9 26.5 26.7 46.9 57.7 45.6s55.5-23.8 54.6-50.2c-.9-26.5-26.7-46.9-57.7-45.6z" class="C"/>
  </g>
  <path d="M1517.2 513.1c-21.4 9.3-32.1 30.7-24 47.8 8.1 17 32 23.3 53.3 13.9 21.4-9.3 32.1-30.7 24-47.8-8.1-17-32-23.3-53.3-13.9z" class="E"/>
  <g class="B">
    <path d="M1521.1 580.9c-12.3 1.7-25.3-.3-37-5.9a63.25 63.25 0 0 1-16-11.4c-4.7-4.8-8.6-10.4-11.2-16.8-5.5-12.7-4.7-27.8.9-40.4 5.9-12.6 16.2-22.3 28-28.5 23.6-12.2 53.6-10.7 75 5.2 10.7 7.7 18.7 19.6 21 32.6 2.5 13-1.2 26.6-8.9 36.4-.8 1-2.3 1.2-3.4.4-.9-.7-1.2-2-.7-3 5.1-10.1 6.4-21.5 3.2-31.6-3-10-10-18.5-18.8-24.1-17.6-11.3-41.8-11.6-60-1.9-9 4.9-16.9 12.1-21.1 21-4.4 8.8-5.2 19.2-2 28.6s10.4 17.7 19.4 23.4c9.1 5.8 20 9 31.3 9.7 1.6.1 2.9 1.5 2.8 3.2-.1 1.8-1.2 2.9-2.5 3.1zm71.2-87.3c7.9 9.2 13.1 21.2 14.5 33.8s-1.4 25.7-7.1 37.1c-5.6 11.5-14.6 21.1-24.8 28.6-10.3 7.3-22 12.6-34.3 15.4-24.4 5.6-51 2.2-72.4-11.1-10.6-6.5-20-15.4-26.3-26.2s-9.6-23.2-8.9-35.3c.1-1.3 1.2-2.3 2.5-2.3 1.2.1 2.1.9 2.2 2.1v.1c1.6 11.1 5.9 21.4 12.4 29.9 6.5 8.6 15.1 15.3 24.5 20.2 19 9.9 41.6 12 62.2 7 10.3-2.5 20.2-6.7 28.8-12.7 8.7-5.8 16.2-13.5 21.4-22.5 5.2-8.9 8.4-19.2 8.4-29.7.2-10.6-2.8-21.2-8.2-31a3.01 3.01 0 0 1 1.2-4.1c1.4-.7 3-.4 3.9.7zm-195.2 171c30.1 6.9 56.2 31.3 67.1 61.5 5.7 15 7.8 31.2 7.3 47.1-.9 15.9-4.4 31.6-10.6 46.2-12.2 29.2-34 54-61.1 69.5-13.4 8-28.4 13.1-43.7 15.7-15.2 2.5-31 1.9-45.6-2.1-1.9-.5-3.1-2.5-2.5-4.4.4-1.7 2-2.7 3.6-2.7h.1c28.3 1.1 55.4-7.8 77.6-23.3 22-15.5 39.7-37.2 49.6-61.9 5-12.3 8.3-25.2 9.1-38.4 1.1-13.1-.3-26.3-3.8-38.9-7.2-25.1-25-47.3-50.1-59.9-2.2-1.1-3.1-3.8-2-6 .9-1.9 3-2.8 5-2.4z"/>
    <path d="M1276.8 755.1c-17 45.3-.5 93.8 37 108.3 37.4 14.5 81.6-10.5 98.6-55.8s.5-93.8-37-108.3c-37.4-14.5-81.6 10.5-98.6 55.8z" class="C"/>
  </g>
  <path d="M1330 854.8c25.5 4.5 54.2-8.7 72.3-35.7 24.1-36 20-83-9-104.9-4.1-3.1-8.5-5.5-13-7.3-20 4.6-39.4 17.9-53.2 38.5-24.4 36.5-22.5 83.3 2.9 109.4z" class="E"/>
  <path d="M1279.2 737.7c8.7-14.9 22.1-27.4 38.3-35.3 8.1-3.8 17-6.5 26.1-7.7 9.2-1.1 18.7-.6 28 1.7 9.2 2.2 18.3 6.5 25.8 12.5 7.7 5.8 14.3 13.3 19.1 21.7 9.4 17.1 11.9 37 8.6 55.4-6.8 36.9-35.3 68-71.1 77.1-17.7 4.6-37.4 3.3-53.8-5.2-16.4-8.3-28.7-23.6-33.1-40.4-.5-1.9.6-3.9 2.6-4.4 1.7-.4 3.4.4 4.1 1.8 7.1 13.9 18.8 24.4 32.5 29.2 13.6 5.1 28.6 4.3 42.2-.2 27.2-9.3 48.5-34.6 53.1-62.3 2.3-13.8.7-28.1-5.7-39.9-6.2-11.7-17-21-30-25.2-13-4.3-28-3.7-41.9 1.1-14.1 4.7-26.9 13.6-37.5 25l-.1.1c-1.7 1.8-4.5 1.9-6.3.2-1.7-1.2-2-3.5-.9-5.2z" class="B"/>
  <path d="M1487.7 1133.9c-26.6 14-47.4 34.5-59 60.6-21 47.3-6.1 99.6 32.4 145.6 25.3 30.2 61.1 56.5 104.7 74.1 110 44.6 227.4 17.2 262.2-61.2 13-29.1 12.7-61.2 1.5-92.4-18.8-52.5-69.5-99.4-138.6-127.4" class="E"/>
  <g class="B">
    <path d="M1433.9 1196.8a110.99 110.99 0 0 0-1.6 66.7c6 21.6 17.7 41.5 32 59.3 14.4 17.7 31.3 33.3 50.2 46.4 18.7 13.2 39.3 24 60.8 32.3 21.4 8.7 43.9 14.3 66.6 17.6 22.8 3.4 45.9 3.4 68.6.5 22.6-3.2 44.9-9.6 64.7-20.9 19.9-11 36.9-27.2 48.5-47.6 1.3-2.2 4.1-3 6.3-1.7 1.9 1.1 2.8 3.4 2.1 5.5-8.2 24.1-25.5 45.1-46.5 60.1-21.2 14.9-45.7 24.6-70.8 29.7-50.5 10.3-103.1 3.4-150.7-14.7-23.7-9.2-46.4-21.4-67.1-36.6-20.4-15.4-39.2-33.5-54-54.6-14.9-20.9-26.6-44.8-31.2-70.7-2.2-12.9-2.7-26.2-.7-39.2 1.9-12.9 6.1-25.4 12.3-36.6 1.5-2.8 5-3.8 7.7-2.2 2.6 1.2 3.7 4.1 2.8 6.7z"/>
    <path d="M1647.3 1155.4c-88.1-18.4-168 19.1-178.5 84-10.5 64.8 52.5 132.3 140.6 150.8 88.1 18.4 168-19.1 178.5-84 10.5-64.8-52.5-132.3-140.6-150.8z" class="C"/>
  </g>
  <path d="M1641.7 1218.5c-75.6-10-139.4 21-142.5 69.2-3.1 48.3 55.7 95.5 131.4 105.6 75.6 10 139.4-21 142.5-69.2 3.1-48.3-55.7-95.6-131.4-105.6z" class="E"/>
  <g class="B">
    <path d="M1732.9 1374.9c12.3-7.8 23-17.5 30.7-29.1 3.7-5.8 7.1-11.8 9-18.4l1.5-4.9c.5-1.6 1.1-3.2 1.2-4.9.4-3.4 1.3-6.6 1.4-10 1.1-13.3-1.3-27-6.4-39.6-5-12.7-12.5-24.6-21.4-35.3-8.9-10.8-19.4-20.3-30.8-28.7-5.6-4.4-11.7-7.9-17.7-11.7-3-1.8-6.3-3.3-9.4-5s-6.3-3.3-9.6-4.6l-9.8-4.3-10-3.6-5-1.8-5.1-1.4c-3.4-.9-6.8-2-10.3-2.8-13.8-3.1-27.9-4.8-42-5.4-14-.2-28 1.1-41.5 4.1-13.5 3.1-26.1 8.4-37.3 15.4-11.2 7.1-20.7 16.4-27.2 27.5s-10.3 23.7-10.5 36.9c-.4 13.2 2.7 26.7 8.1 39.5s13.2 24.9 22.3 36c9 11.3 20.1 20.9 31.7 30l9 6.5c3 2.1 6.3 3.9 9.4 5.9l4.7 3c1.6.9 3.3 1.8 4.9 2.6l9.9 5.3.2.1c2.2 1.2 3.1 4 1.9 6.2-1.1 2-3.5 2.9-5.6 2.2-14.6-5.2-29.2-11.2-42.7-19.6-13.4-8.3-26.3-17.8-37.6-29.3-11.2-11.5-21.1-24.7-28.6-39.4-7.6-14.7-12.4-31.4-12.9-48.7-.6-17.3 3.3-35.2 11.9-50.6 8.4-15.5 20.9-28.5 35.1-38.1 14.2-9.7 30-16.4 46.2-20.3s32.7-5.6 49.1-5.6c16.4.3 32.6 2.7 48.5 6.3 3.9 1 7.8 2.2 11.7 3.3l5.9 1.7 5.7 2.1 11.4 4.2 11.1 5c3.7 1.6 7.3 3.6 10.8 5.6s7.2 3.9 10.6 6.1c6.8 4.5 13.7 8.8 20 14 6.6 4.8 12.5 10.6 18.5 16.1l8.4 9c2.8 3 5.1 6.4 7.7 9.6 9.9 13.2 18.1 27.8 23.4 43.9 5.2 16 7 33.4 4.4 50.3-.5 4.2-1.9 8.3-2.9 12.5-.4 2.1-1.3 4.1-2.1 6l-2.4 5.9c-3.3 7.8-7.9 15-13.2 21.4-10.7 12.9-24.4 22.5-39 28.9-2.9 1.3-6.2 0-7.5-2.9-1.2-2.6-.2-5.6 2.2-7.1z"/>
    <path d="M2446.2 3114.4c-45-38.6-106-54.5-137.5-60.4l-3.6 24.8c-1.8 34.5-35 58.4-68.3 49-47.5-13.4-112.1-30.2-161.2-37.9-48.8-7.7-113-14.6-160.8-19.3-34.1-3.4-56.5-37.4-45.9-70l2.6-14c-42.4-2.9-107.9-.3-157.9 33.8 13.6-44.6 27.4-86.5 40.9-125.6 54.2-32.2 128.3-30.3 166.1-26.5 17-20.8 35.6-37.8 47.8-36.5 154 16.3 255.8 44.4 306.9 61.4 8.4 2.8 16.2 16.5 22.6 33.9 13.8 2 88.7 14.6 144 55.1 1.9 37.2 3.4 77.3 4.1 119.8 0 4 .1 8.2.2 12.4z" class="C"/>
  </g>
  <path d="M2275.1 3010.5s132.4 12.8 181.6 99.8c0 0 28.5-52.5 12.6-99.2-33-97.3-186.9-116.5-186.9-116.5l-7.3 115.9z" class="D"/>
  <g class="B">
    <path d="M2456.7 3110.3c-49.2-87-181.6-99.8-181.6-99.8l7.3-115.9s1.6.2 4.6.7l-4.2 66.1s132.4 12.8 181.6 99.8c0 0 5-9.1 9.6-23.1 1.4 37.8-17.3 72.2-17.3 72.2z" class="C"/>
    <path d="M2456.7 3122.8c-4.5 0-8.7-2.4-10.9-6.3-45.5-80.4-170.7-93.4-171.9-93.5-6.7-.6-11.7-6.5-11.3-13.2l7.3-115.9c.2-3.4 1.8-6.6 4.5-8.8s6.1-3.2 9.5-2.8c6.6.8 162 21.4 197.2 124.9 17.4 51.3-12.2 106.8-13.5 109.1-2.2 4-6.3 6.5-10.9 6.5.1 0 .1 0 0 0zm-168.3-123.1c31.7 5 117.7 23.8 165.8 84.5 6-17.8 11.7-44.6 3.4-69-24.7-72.7-126.8-98.8-163.5-105.9l-5.7 90.4z"/>
  </g>
  <path d="M1926.4 2955.6s-129.9-28.5-203.5 39.1c0 0-11-58.7 18.5-98.2 61.4-82.4 213.7-53.4 213.7-53.4l-28.7 112.5z" class="D"/>
  <g class="B">
    <path d="m1955.2 2843-28.7 112.5s-129.9-28.5-203.5 39.1c0 0-7-37.4 5.2-72.6-.1 16 2 27.2 2 27.2 73.6-67.6 203.5-39.1 203.5-39.1l17.3-67.8c2.7.5 4.2.7 4.2.7z" class="C"/>
    <path d="M1723 3007.2c-1.3 0-2.7-.2-3.9-.6-4.3-1.4-7.5-5.1-8.3-9.6-.5-2.6-11.6-64.6 20.7-108 65.3-87.7 219.5-59.5 226.1-58.2 3.4.6 6.4 2.7 8.2 5.6 1.9 2.9 2.4 6.5 1.6 9.8l-28.7 112.5c-1.7 6.5-8.2 10.6-14.8 9.1-1.2-.3-124.5-26.3-192.3 36.1-2.5 2.2-5.5 3.3-8.6 3.3zm171.4-156.5c-46.9 0-110.1 9.2-142.9 53.3-15.4 20.7-18.3 48-18 66.7 64.4-43 152-34.4 183.7-29.4l22.4-87.8c-10.5-1.4-26.6-2.8-45.2-2.8z"/>
  </g>
  <use xlink:href="#B" class="D"/>
  <g class="B">
    <use xlink:href="#B" class="C"/>
    <path d="M2241.2 3096.8a62.48 62.48 0 0 1-17.1-2.4c-42.8-12-103.3-27.9-149-35.1s-106.5-13.7-149.3-17.9c-19-1.9-35.9-12.1-46.3-28-10.3-15.7-13-34.9-7.5-52.8l11.8-65c.1-.5.2-1.1.4-1.6 7-21.8 57.6-100.6 91.8-100.6.8 0 1.5 0 2.3.1 147.3 15.6 244.3 43 289.1 57.9 32.6 10.9 46.4 106.8 45.5 123.5 0 .4-.1.8-.1 1.2l-9.1 61.7c-1.2 18.9-10.6 36-26 47.1-10.8 7.8-23.5 11.9-36.5 11.9zm-333-195.9-11.8 64.9c-.1.5-.2 1.1-.4 1.6-3.5 10.9-1.9 22.7 4.4 32.2 6.3 9.6 16.4 15.7 27.8 16.8 43.2 4.2 104.4 10.8 150.8 18.1 46.9 7.4 108.5 23.5 151.9 35.7 11.1 3.1 22.8 1.1 32.2-5.7s15.1-17.2 15.7-28.7c0-.4.1-.8.1-1.2l9-61.7c1-25.2-17.1-92.4-28.6-98.1-43.7-14.6-138.8-41.4-283.7-56.7-13.8.2-58.9 58.1-67.4 82.8zm-24.1 62.7z"/>
  </g>
  <path d="M2236.3 3026.5c-44.4-12.5-104.6-28.2-150.5-35.4-45.5-7.2-105.5-13.6-150.1-18-31.9-3.2-52.7-34.9-42.9-65.4l14.7-45.5 25-77.7c7.3-22.6 29.5-37 53.2-34.5 143.7 15.2 238.8 41.5 286.4 57.4 21.3 7.1 35.3 27.6 34.1 50.1l-.7 13.7-5.6 109.5c-1.5 32.2-32.6 54.5-63.6 45.8z" class="D"/>
  <g class="B">
    <path d="M2236.3 3026.5c-44.4-12.5-104.6-28.2-150.5-35.4-45.5-7.2-105.5-13.6-150.1-18-31.9-3.2-52.7-34.9-42.9-65.4l14.7-45.5c11.9 95.1 242.2 119.4 252.8 72.5.9-4.1 2.4-30.5 5.3-33.6 8.7-9.2 25.5 9.4 42.2 13.5 15.2 3.6 33.8-4.9 38.5 5.9 2.2 5.1-4 28.3-5.3 33.6-.7 3.1-2.1 6-4 8.5 47.4-13.3 57.6-46.3 68.4-91.4l-5.6 109.5c-1.4 32.2-32.5 54.5-63.5 45.8z" class="C"/>
    <path d="M2250 3040.9a62.48 62.48 0 0 1-17.1-2.4c-42.8-12-103.3-27.9-149-35.1s-106.4-13.7-149.3-17.9c-19-1.9-35.9-12.1-46.3-28s-13.1-35.5-7.2-53.6l39.7-123.1c9.1-28.1 37-46.2 66.4-43.1 147.2 15.6 244.3 43 289.1 57.9 26.6 8.9 44.1 34.6 42.7 62.6l-6.3 123.2c-1 19.2-10.5 36.6-26 47.7-11 7.7-23.7 11.8-36.7 11.8zm-269.5-278.7c-16.2 0-31 10.5-36 26.1l-39.7 123.1c-3.5 10.9-1.9 22.7 4.4 32.2 6.3 9.6 16.4 15.7 27.9 16.8 43.2 4.2 104.5 10.8 150.8 18.1 46.9 7.4 108.5 23.5 151.9 35.7 11.1 3.1 22.8 1.1 32.2-5.7s15.1-17.2 15.7-28.7l6.3-123.2c.9-16.8-9.7-32.3-25.6-37.6-43.8-14.6-138.9-41.5-283.8-56.8-1.5.1-2.8 0-4.1 0zm-87.6 145.5z"/>
  </g>
  <g fill="#22a7f0">
    <path d="M2174.4 2897.3c.8-3.3 1.9-24.5 4.3-27 7-7.4 20.5 7.6 33.9 10.8"/>
    <use xlink:href="#C"/>
  </g>
  <g class="B">
    <use xlink:href="#C" class="C"/>
    <path d="M2211.6 2943.2c-4.3 0-8.8-.5-13.3-1.6-24.4-5.8-40.6-26.1-36-45.2.2-.9.6-4.5.8-7.5 1.7-17.5 2.8-23.4 5.8-26.7 9-9.5 20.9-2.6 30.5 2.9 5.2 3 10.5 6.1 15.4 7.2 4.4 1 9.6.7 14.6.3 9.4-.7 21-1.5 25.8 9.3 2.1 4.9 1.1 13.3-3.9 33.4l-.5 2.1c-3.7 15.7-20.1 25.8-39.2 25.8zm-31.2-70.7c-.9 3.9-1.9 13.1-2.3 17.9-.5 5.3-.8 7.9-1.2 9.5-2.6 10.9 8.8 23.3 24.9 27.2s31.9-2.1 34.5-12.9l.6-2.3c4-16 4.6-21.8 4.5-23.9-1.6-.9-7.3-.5-10.8-.3-5.9.4-12.6.9-19.2-.7-7-1.7-13.6-5.5-19.4-8.8-3.5-2.1-9.2-5.4-11.6-5.7zm60.9 14.8z"/>
  </g>
  <ellipse transform="rotate(13.455 2211.056 2875.588)" fill="#22a7f0" cx="2211.4" cy="2876.1" rx="38" ry="28.1"/>
  <path d="M2216.4 2912.4c-4.3 0-8.8-.5-13.3-1.6-24.4-5.8-40.6-26.1-36-45.2 2.3-9.7 9.4-17.5 19.8-21.9 9.7-4.1 21.3-4.9 32.8-2.1 11.4 2.7 21.5 8.7 28.2 16.7 7.3 8.7 10.1 18.8 7.8 28.5-3.7 15.5-20.1 25.6-39.3 25.6zm-10.2-57.5c-4.8 0-9.4.9-13.4 2.6-6 2.5-9.9 6.7-11.1 11.6-2.6 10.9 8.8 23.3 24.9 27.2s31.9-2.1 34.5-12.9c1.2-4.9-.5-10.4-4.7-15.4-4.7-5.6-11.9-9.8-20.3-11.8-3.3-.9-6.7-1.3-9.9-1.3zm-110.5 150.3c-.6 0-1.3 0-2-.2-6.8-1.1-11.5-7.5-10.4-14.3l15.9-101c.7-4.7-1.2-9.4-5-12.2l-29.4-21.9c-11.3-8.4-17-22.3-14.8-36.2l9.5-60.2c1.1-6.8 7.5-11.5 14.3-10.4s11.5 7.5 10.4 14.3l-9.5 60.2c-.7 4.7 1.2 9.4 5 12.2l29.4 21.9c11.3 8.4 17 22.3 14.8 36.2l-15.9 101c-.9 6.2-6.2 10.6-12.3 10.6z" class="B"/>
  <path fill="#afafb2" d="M1795.6 3592.5c-51.4 18.3-179.2-21.3-262.7-106.1h-.1c-10.1-10.2-19.4-21.1-28-32.6-38.4-51.6-52.2-114.8-35.7-159.8 20.3-14.4 52.5-21.4 99.3 9.2 44.6 29.2 82.9 78.3 113 117.2l11.7 15.1c44 56.3 126.7 116 102.5 157z"/>
  <path d="M1795.6 3592.5c-51.4 18.3-179.2-21.3-262.7-106.1 29.2 16.3 71.3 30.4 113.9 12.6 37.3-15.5 40.8-48.7 34.7-78.7l11.7 15.1c43.9 56.4 126.6 116.1 102.4 157.1z" class="B C"/>
  <path d="M1664.9 3399.1c-28.2-21.5-57.7-41.8-82.3-56.7-10.1-6.1-19.5-10.7-28.4-14.1-40.1-15.2-81.8 13.3-85.2 53.4-8.8-31.4-9.1-62.4.3-87.6 20.3-14.4 52.5-21.4 99.3 9.2 36.7 24 69.2 61.5 96.3 95.8z" opacity=".7" class="D"/>
  <path fill="#afafb2" d="M2556.9 3587.4c-17.6 14-36.4 25.8-55.9 35.6-105 52.7-228.8 46.4-276.7 3.8-5.2-4.7-10.1-9.7-14.6-15.1-2.2-6.9-2-14.2 1.6-21.9 17.1-37.3 64.9-43.2 126.9-58.4 38.8-9.5 83.2-22.7 129.2-49.5 55.5-32.4 111.4-52.1 140.4-16 8.4 43.9-13.7 91.9-50.9 121.5z"/>
  <path d="M2501 3622.9c-105 52.7-228.8 46.4-276.7 3.8-5.2-4.7-10.1-9.7-14.6-15.1-2.2-6.9-2-14.2 1.6-21.9 17.1-37.3 64.9-43.2 126.9-58.4-2.4 14.7-3.5 40 10.6 61.9 23.8 37.1 109.5 33.9 152.2 29.7z" class="B C"/>
  <path d="M2578 3566.8c4.2-9.2 7.3-18.7 9.2-28.4 6.5-33.3-20.8-63.5-54.4-59.2-25.9 3.4-55.8 17.1-85.7 34.6-63.4 37-132.9 37.1-188.3 38.1 49.2-17.8 126.4-22.1 208.5-70 55.5-32.4 111.4-52.1 140.4-16 6.7 34.8-5.7 72.1-29.7 100.9z" opacity=".7" class="D"/>
  <path d="M1765.4 3606.8c-73.2 0-197.4-51.4-268.6-147-40.4-54.2-54.9-120.7-37-169.3.7-1.9 1.9-3.5 3.6-4.7 21.2-15 57.6-25.7 110.6 9 47 30.8 85.9 81.3 117.2 121.8l9.8 12.7c12.2 15.7 27.9 32 43 47.7 41.8 43.5 81.3 84.6 60.1 120.5-1.2 2-3.1 3.6-5.3 4.3-9.1 3.4-20.4 5-33.4 5zm30.2-14.3zm-318.1-292.1c-13.7 41.6.3 100.4 35.3 147.4 79.1 106.3 222.7 150.7 275.6 136.4 8.7-23-25.6-58.7-58.8-93.3-15.5-16.1-31.5-32.8-44.4-49.3l-9.9-12.8c-30.4-39.4-68.2-88.4-112.4-117.3-33.6-22-62.3-25.8-85.4-11.1zm145.8-906.9c-4.9 0-9.2-3.6-9.9-8.7-10.2-75.8 27.8-113.8 55.5-141.6 26.6-26.7 39.9-40.1 15.6-71.8-79-102.8-35-182.6-33.1-186 2.7-4.8 8.8-6.5 13.6-3.7 4.8 2.7 6.5 8.8 3.8 13.6-1.7 3.1-38.8 72.3 31.6 163.9 35 45.6 8.4 72.3-17.3 98.1-27.5 27.6-58.7 58.9-49.8 124.9.7 5.5-3.1 10.5-8.6 11.2-.5.1-1 .1-1.4.1zM2342.9 3671c-52.5 0-98.3-12.9-125.3-36.8-5.5-4.9-10.7-10.3-15.6-16.1-.8-1-1.5-2.1-1.9-3.4-3.1-9.6-2.4-19.5 2-29.2 16.9-36.8 57.7-46.2 109.4-58.2 42.8-9.9 96.1-22.3 150.7-54.1 27.6-16.1 111.8-65.2 153.3-13.6 1 1.3 1.7 2.8 2 4.4 8.9 46.4-12.5 97.9-54.4 131.2-65.4 52.1-149 75.8-220.2 75.8zm-124.2-64.2c3.9 4.5 8 8.7 12.3 12.5 51.3 45.6 208.2 49.1 319.7-39.7 34.9-27.7 53.8-71.3 47.7-109.3-21.2-23.5-62.4-16.9-126 20.2-57.2 33.3-112.1 46.1-156.3 56.3-48.2 11.2-83 19.2-95.8 47-2 4.6-2.6 8.7-1.6 13z" class="B"/>
  <path d="m2648.7 2719.2-.1 4.7c-2.5 82.8-70.3 149.1-153.7 149.1s-151.3-66.4-153.7-149.1c0-1.5-.1-3.1-.1-4.7 0-19.4 3.6-38 10.2-55.2 21.9-57 76.8-97.6 141.2-98.6h4.8c64.5 1 119.3 41.6 141.2 98.6 6.6 17.2 10.2 35.8 10.2 55.2z" class="G"/>
  <defs>
    <path id="B" d="M1884.1 2963.6c-9.8 30.5 11 62.2 42.9 65.4 44.6 4.4 104.6 10.9 150.1 18 45.9 7.2 106.1 22.9 150.5 35.4 31 8.7 62.1-13.6 63.7-45.8l9.1-62.3c1.1-22.5-15.6-103.9-37-111.1-47.6-15.9-142.7-42.2-286.5-57.4-23.7-2.5-73.6 69.2-80.9 91.9l-11.9 65.9z"/>
    <path id="C" d="M2243.6 2915.8c-3.6 15.1-23.1 23.4-43.5 18.5s-34.1-21.1-30.5-36.2c.9-3.8 2.2-28 4.9-30.8 8-8.5 23.4 8.7 38.7 12.3 13.9 3.3 31-4.5 35.3 5.4 2 4.7-3.8 26-4.9 30.8z"/>
    <path id="D" d="M2303.4 3113.2c-.4 0-.9-.1-1.2-.4-1-.7-1.2-2-.5-3l201.6-282c.7-1 2-1.2 3-.5s1.2 2 .5 3l-201.6 282c-.5.6-1.2.9-1.8.9z"/>
    <path id="E" d="M2342.7 3113.2c-.4 0-.9-.1-1.2-.4-1-.7-1.2-2-.5-3l201.6-282c.7-1 2-1.2 3-.5s1.2 2 .5 3l-201.6 282c-.5.6-1.1.9-1.8.9z"/>
    <path id="F" d="M2382 3113.2c-.4 0-.9-.1-1.2-.4-1-.7-1.2-2-.5-3l201.6-282c.7-1 2-1.2 3-.5s1.2 2 .5 3l-201.6 282c-.4.6-1.1.9-1.8.9z"/>
    <path id="G" d="M2701.6 3113.2c-.7 0-1.3-.3-1.7-.9l-201.6-282c-.7-1-.5-2.3.5-3s2.3-.5 3 .5l201.6 282c.7 1 .5 2.3-.5 3-.4.3-.8.4-1.3.4z"/>
    <path id="H" d="M2662.3 3113.2c-.7 0-1.3-.3-1.7-.9l-201.6-282c-.7-1-.5-2.3.5-3s2.3-.5 3 .5l201.6 282c.7 1 .5 2.3-.5 3-.4.3-.9.4-1.3.4z"/>
    <path id="I" d="M2623 3113.2c-.7 0-1.3-.3-1.7-.9l-201.6-282c-.7-1-.5-2.3.5-3s2.3-.5 3 .5l201.6 282c.7 1 .5 2.3-.5 3-.5.3-.9.4-1.3.4z"/>
    <circle id="A" cx="2494.9" cy="2719.2" r="153.8"/>
  </defs>
  <path d="M2575.9 2804.7c-.7-7.6-5-14.7-11.3-18.9-8.1-5.4-9.9-17.2-11.1-25.7-.9-6.8-5.2-12.1-11.9-7.4-15.3 10.8-37.5-5.6-41.9-21.4-3.8-16.9.2-31.7 8.8-46 6-10 18.5-13 28.5-8 11.8 5.8 30.3-12.1 32.3-23.9.2-1.3.4-3.1-.1-4.2-4.8-10.8-21.2-11.5-26.7-1.5-3.6 6.5-10.9 8.8-17.5 5.3-12.1-6.4-15.9-1.1-20 10.8-1.3 3.8-1.3 10.7-6.1 7.8-4.7-2.9-8.6-8.6-6.2-14.1 5.9-13.4 11.4-27.5 14.9-41.9.2-.9 1.2-2.2 1.8-2.3 15-1.6 13.4-20.9 16.3-31.7 1-3.8.2-5.5-2.2-7-2.5-1.5-3.7.2-4.6 2.9l-4.9 13.4c-.8 2.3-1.2 5.8-3.7 5.4-3-.4-4.5-4.1-4.3-7.4.5-9.5 3-20 8.8-27.7 4.4-5.8 12.8-10 19.5-5.5 8.3 5.5 14.8 5 23.8.3 3.8-2 7.9-4.1 12-5.3 6.8-2.1 11.7-7.5 13.4-14.5 1.8-6.9 7.4-11.9 14.3-13.2 4.4-.8 7.2-3.2 8.5-8.5 2.3-9.4 9.7-16.5 18.6-19.5 13.3-4.5 24.2-3.7 33.9 6.2 2.6 2.7 5.4 1.7 7.9 1.1 6.7-1.4 13.9-2.5 20.3-4.1 4.8-1.2 11.8 1.1 14.9 5 2.1 2.6 4.6 2.9 7 2.6 3.3-.5 6.9-.5 10-.9 7.6-.9 10.8.7 14.8 7.5 1.6 6.7-2.9 15.6-9.1 17.2-1.8.5-4 .8-6.1.8-5.9.1-6.8 3.8-4.9 11.2 4.2 15.9-1.1 39.3-18 45.2-4.1 1.4-6.4 3-4.5 9.6 1 3.4 1.6 7.5-.1 11-3.9 8.1-5.9 17.2-3.4 25.9 2 6.8-4.6 12-10.8 8.4-6.7-3.9-13.2-8.4-19.4-13.1-4.8-3.7-7.5-2.5-9.6 3.9-1.8 5.5-4.7 11.2-6 16.5-1.7 6.8-7.4 11.5-13.7 6.3-7.1-4.5-11-6.3-18.4-4.4-2.6.7-5.5-.4-8.1-2.3s-5.5-4.1-6.9 1.2c-1.3 5 2.8 4.7 4.7 6.2 3.4 2.7 7 4.9 10.5 7.2 6.2 3.9 6.9 10.2 2.8 16-3.9 5.7-11.3 10.4-18.1 5.7l-13.7-8.9c-2.2-1.4-4.2-3.8-6.2 1.2-2.1 5.3.9 5.7 3 7.1l24.2 15.9c7 4.4 9.4 13.3 5.7 20.6-7.7 15-6.3 31.3-.8 48.2 2.2 6.9 3.9 13.8 5.4 20.9 3.1 14.2-3.6 35.3-19.3 39.2-6.2 1.4-11.4-3-13.2-8.7-1.2-5.4-2.5-10.7-3.8-15.7zm-295-97.2c-6.5-13.4-5.5-24 9.5-29.8 22.2-9.6 44-19.9 65.6-30.8 3.6-1.8 7.4-4 10.6 0 2.7 3.4 2.5 7.6 1.2 12.2-2.5 8 3.5 10 9.1 12.7 4.7 2.3 9.9-.7 13.8-4.5 3.4-3.4-.1-7.7-.8-11.4-.5-2.7-2-5.5 0-7.8 2.1-2.4 4.2-.1 6 1.1 3.6 2.5 7 2.9 11 .6 3.5-2 7.2-1.9 9.9 2.1 2.6 4 2.2 8.8.6 13.3l-20.2 53.8c-2.7 7.5-11.1 10.1-17.8 12.9s-6.9 10.2-4 15.9c1.2 2.3 2.5 4 4.6 3.1 8.5-3.4 15.5 2.8 21.8 7.1 4.8 3.3 11.4 5.4 17.1 2.4 6.9-3.6 12.5-3.2 19.3.9 5.3 3.2 12.8 8 19.4 6.1 8.7-2.5 13.2 22.6 11.4 29-4.8 17.7-11.2 36.6-17.9 53.9-3.6 9.4-4.2 19-1.1 28.2 1.5 4.6 2.8 10.1 3.9 15.2.7 3.2 3 7.1 1.3 9.5-2.1 3.1-5.3-.1-7.8-1.6-8.3-5-13.5-14.4-16-23.4-1.8-6.7-3.9-13.7-5.3-20.4-2.8-13.5-7.6-27.8-20-35.6-11.3-7.8-15.4-31.5-12-43.4.9-3.1 4.9-6.4 1.8-9.9-3.2-3.6-7.5-8.4-11.9-6.6-9 3.6-18.8-2-25.7-7.4-6.7-5.2-13.5-10.4-21.1-14.6-11-6-14.1-19-17.9-29.6-3.2-9-16.4-19.1-26.1-17.9-6.9 1-9.2 9-12.3 14.7zm495.6-9.8.3.8c.4 4.3 5.2 8.6 1.3 12.4-3.7 3.6-11 7.3-16.3 4.5-8-2.6-11.1-2-18 1.8-5.5 3.1-12.7 3-17-2.5-4.9-5.9-4.5-14-2-20.7 3.9-10.5 14.2-21.5 26-20.9 11.7.6 22.2 14 25.7 24.6zM2430.7 2570l8.3-4.5c5.6-3 15.3-11.3 20.4-2.3 7.3 12.8 8.9 24.7 4.2 37.8-4 11.1-8.8 23.1-12.6 34.9-3.2 9.9-7.1 11.1-13.6 5.5-3.7-3.2-8-6.2-9.5-11.3-2.4-8.5-8.6-14.8-16.1-18.9-4.2-2.3-8.7-5.6-7.2-13.4 1.2-6.7 2.7-15.2 9.4-18.6 5.5-2.8 11.2-6.1 16.7-9.2 0 .1 0 .1 0 0zm-44.7 63c-4.8 2.9-8.9 5-13.3 3.1-1.9-.8-3.4-2.3-3.8-4.6-.5-3.1 2-3.7 3.6-4.7 2.8-1.6 5.6-3 8.4-4.6 5-2.8 10.7-4.3 12.3 3.2 1.6 7-5.4 4.9-7.2 7.6zm300.6 26.7c6.8-.6 16.8 4.5 20.1 9.6 2.1 3.3-.9 5.1-2.6 5.4-5.1.9-17.1-5.5-20.1-10.1-1.1-1.7-.1-3.8 2.6-4.9zm-72.4 109.5c-1.1-5.8-1.6-13.4 3.9-17.1 4.1-2.8 4.7 3.3 5.5 6.7 1.4 5.8 2 13.4-3.8 17.1-4.5 3-4-3.7-5.6-6.7zm118.6-211.5c1.1 7.1-5.5 20.7-11 22.1-1.4.4-3.9-1.3-3.2-3.2 2.4-6.7 4.3-14.8 10.3-18.9 1.1-.8 3.4-1.9 3.9 0zm-2.9 108.3c-2.1-.1-5.9 4.9-7.2-1.6-1.4-7 3.2-9.5 7.8-10.5 2.5-.5 6.2-4.3 7.5.5 2 6-2.4 10.6-8.1 11.6zm62.6 34.3c-.3 2.2 4.2 5.3-.3 6.5-4.7 1.2-7.2-3.1-8.2-7.6-.6-2.6-3.9-6.8-.2-7.9 6.4-2.1 6.6 4.9 8.7 9zm-297.2-90.7c1.3 4.9 3.5 12.2-1.8 15.5-3.3 2.1-3.8-3.3-4.3-6.1-.9-5-3.7-12.4 1.2-16.1 4.1-3.1 2.9 5.4 4.9 6.7zm215.3 29.9c1.2 5 2.6 10.1-2.5 11.8-4 1.3-3.7-3.9-4.7-6.6-1.8-4.7-.8-9.3 2.6-11 4.2-2 3.3 3.9 4.6 5.8zm-224.3-17.3c.8 3.2.4 5.8-2.3 7.1-1.8.8-3.2.3-3.9-2.3-.8-3.1-.2-5.9 2-7.6 2.3-1.9 3.4.2 4.2 2.8z" fill="#5ce205"/>
  <g fill="#54a520">
    <path d="M2590.8 2831.4c-6.5 0-11.5-5-13.2-10.7-1.3-4.1-2.4-8.5-3.4-12.7l-.7-2.8c0-.1-.1-.2-.1-.4-.6-6.9-4.4-13.3-10.2-17.1-9.3-6.2-11.1-19.5-12.1-27.4-.4-3.4-1.8-6.1-3.5-6.8-1.2-.5-2.6-.1-4.4 1.1-6.1 4.3-13.7 5.1-21.6 2.3-11-3.9-21.2-14.5-24.1-25.1-3.7-16.3-.8-31.5 9-48 6.5-10.8 20.1-14.7 31.8-9 3.9 1.9 8.4.4 11.5-1.2 8-4.1 16.1-13.9 17.2-20.8.3-1.7.2-2.6.1-2.8-2.2-5-7.2-6.9-11.1-7.1-4.7-.2-9.1 2-11.2 5.8-4.2 7.7-13.2 10.4-20.8 6.3-4.2-2.3-7.3-2.9-9.4-2.1-2.9 1.1-4.9 5.4-7 11.5-.3.8-.5 1.7-.7 2.6-.7 2.9-1.4 6.1-4 7.2-1.5.6-3.2.4-5-.7-5.8-3.6-10.1-10.7-7.2-17.3 7-16 11.7-29.1 14.8-41.5.4-1.6 1.9-4 4-4.2 8.9-.9 10.8-9.3 12.6-21 .5-3.2.9-6.2 1.6-8.8.8-3.1.1-3.5-1.1-4.2-.1-.3-.4 0-1 1.6l-1.7 4.6-3.2 8.8c-.2.4-.3.9-.4 1.4-.6 2-1.8 6.3-6 5.6-4.5-.7-6.7-5.6-6.5-10 .4-6.7 2-19.4 9.3-29 5.2-6.9 14.9-11.4 22.8-6.1 7 4.7 12.4 4.7 21.3.2 4-2.1 8.2-4.2 12.4-5.5 5.8-1.7 10.2-6.5 11.7-12.7 2.1-7.8 8.3-13.5 16.3-15.1 3.6-.7 5.5-2.6 6.5-6.7 2.4-9.8 10-17.8 20.2-21.3 15.3-5.2 26.9-3 36.5 6.8 1.3 1.3 2.4 1.1 4.7.6l.9-.2c2.7-.6 5.5-1.1 8.2-1.6l12-2.5c5.8-1.4 13.7 1.2 17.4 5.8 1.2 1.5 2.5 2 4.7 1.6 1.9-.3 4-.4 5.9-.6 1.4-.1 2.8-.2 4.2-.4 8.6-1 12.8 1.1 17.2 8.7.1.2.2.4.3.7 2 8.3-3.5 18.3-10.9 20.2-2.1.5-4.5.9-6.7.9-1 0-2.3.2-2.9.9-.4.6-.9 2.2.4 7.2 4.2 15.9-.3 41.5-19.6 48.2-3.1 1.1-4.4 1.5-2.9 6.5 1.5 5.1 1.4 9.3-.3 12.8-4.2 8.9-5.3 17-3.3 24.2 1.2 4.2 0 8.3-3.2 10.8s-7.5 2.6-11.2.4c-6.4-3.7-13-8.2-19.7-13.3-2.2-1.7-3.1-1.6-3.3-1.5-.3.1-1.3.6-2.4 4.2-.8 2.5-1.8 5-2.8 7.4-1.3 3.1-2.5 6.1-3.2 8.9-1.3 5-4.3 8.8-8 10-3.2 1-6.6.2-9.7-2.4-6.5-4.1-9.6-5.6-16.1-3.9-3.2.8-6.8-.2-10.2-2.7-.6-.4-1.9-1.4-2.5-1.6 0 .1-.2.5-.4 1.4-.4 1.5-.4 1.5 1.4 2.3.8.3 1.7.7 2.5 1.3 2.7 2.2 5.6 4 8.5 5.8l1.8 1.2c3.4 2.2 5.6 5.1 6.3 8.5.7 3.6-.2 7.4-2.7 11-3.1 4.5-7.5 7.7-11.9 8.5-3.4.6-6.7-.1-9.7-2.2l-7.1-4.6-6.5-4.2c-.3-.2-.7-.4-1-.7-.3-.2-.6-.5-.9-.6-.1.2-.4.6-.6 1.3-.9 2.4-.7 2.5.8 3.3.4.2.9.5 1.3.7 6.5 4.4 15.2 10.2 24.1 15.8 8.1 5.1 10.9 15.3 6.6 23.9-6.5 12.8-6.7 27.5-.6 46.3 2 6.3 3.8 13 5.5 21.2 3.2 14.6-3.3 37.8-21.1 42.1-1.3.6-2.3.7-3.3.7zm-12.4-27.2.7 2.6c1 4.1 2.1 8.4 3.3 12.4 1.3 4.2 5.1 8.2 10.2 7 14.6-3.6 20-23.8 17.4-36.2-1.7-8-3.4-14.6-5.4-20.7-6.5-20.2-6.3-36.1.9-50.1 3.2-6.2 1.1-13.7-4.8-17.4-9-5.6-17.7-11.5-24.3-15.9-.3-.2-.6-.3-.9-.5-1.8-1-5.6-3.1-3-9.5.6-1.6 1.7-3.8 3.9-4.4s3.9.6 5.2 1.5l.8.5c2.2 1.4 4.4 2.8 6.5 4.3l7.1 4.6c1.9 1.3 3.9 1.8 6 1.4 3.1-.6 6.3-3 8.7-6.4 1.7-2.5 2.4-5 1.9-7.2-.4-2.1-1.8-3.8-4.1-5.3l-1.8-1.1c-3-1.9-6.1-3.8-9-6.2-.2-.2-.7-.4-1.2-.6-1.7-.7-5.8-2.4-4.3-8.1.3-1 1-4 3.7-4.9 2.7-1 5.3 1 7.1 2.4 2.1 1.6 4.3 2.3 5.9 1.8 8.3-2.1 12.8-.1 20.3 4.7 2 1.7 3.7 2.1 5.2 1.7 2.1-.7 3.9-3.2 4.7-6.5.8-3.2 2.1-6.4 3.4-9.6 1-2.4 1.9-4.7 2.7-7.1.9-2.7 2.4-6.4 5.6-7.5 2.3-.7 4.9 0 7.9 2.3 6.5 5 13 9.3 19.2 13 2 1.2 4.1 1.1 5.6-.1 1.6-1.2 2.1-3.3 1.5-5.5-2.4-8.4-1.2-17.7 3.6-27.7 1.1-2.3 1.1-5.3 0-9.2-2.3-7.9.7-10.8 6-12.6 14.9-5.2 20.6-26.4 16.4-42.2-1-3.7-1.8-8.4.5-11.5 1.4-1.8 3.7-2.8 6.8-2.8 1.8 0 3.8-.3 5.5-.7 4.7-1.2 8.5-8.4 7.4-13.9-3.4-5.6-5.6-6.7-12.1-5.9-1.4.2-2.9.3-4.4.4-1.9.1-3.8.3-5.6.5-3.9.6-6.9-.6-9.3-3.5-2.5-3.1-8.4-5.1-12.3-4.1s-8.1 1.8-12.2 2.6l-8.1 1.6-.8.2c-2.4.6-6.1 1.4-9.4-2-8.3-8.5-17.6-10.2-31.3-5.5-8.7 2.9-15 9.5-17 17.7-1.4 5.9-4.9 9.3-10.4 10.4-6.1 1.2-10.8 5.5-12.4 11.4-2 7.9-7.6 14-15.1 16.2-3.7 1.1-7.6 3.1-11.3 5-9 4.6-16.8 6.3-26.6-.3-5.7-3.8-12.8.6-16.1 5-6.4 8.5-7.9 20.1-8.3 26.3-.1 2.3.9 4.6 2.2 4.8-.1-.1.2-1.3.4-2.1.2-.6.3-1.2.5-1.7l3.2-8.8 1.7-4.6c.7-2 1.7-4.1 3.9-4.9 1.4-.5 2.9-.2 4.4.7 3.6 2.2 4.6 5.1 3.3 9.8-.6 2.3-1.1 5.2-1.5 8.2-1.6 10.5-3.5 23.4-16.4 25.2-.1.2-.2.3-.2.5-3.1 12.7-7.9 26.1-15 42.3-2 4.5 2.1 9 5.3 11 .5.3.7.3.7.3.1-.3.6-2.5.8-3.7.3-1.1.5-2.2.8-3.1 2.6-7.6 5.2-12.7 9.9-14.5 3.6-1.4 7.9-.7 13.6 2.4 5.3 2.8 11.2 1 14.1-4.3 3-5.4 9.1-8.6 15.8-8.4 6.9.3 12.8 4.1 15.4 10 .6 1.3.7 3.2.3 5.6-1.4 8.5-10.3 19.5-19.8 24.4-5.9 3.1-11.5 3.5-16 1.3-9.3-4.5-20.2-1.5-25.3 7.1-9.1 15.3-11.8 29.3-8.5 44.2 2.5 8.9 11.5 18.2 20.9 21.6 4.5 1.6 11.1 2.6 17.1-1.6 4.1-2.9 7.3-2.5 9.3-1.6 3.4 1.5 5.8 5.4 6.5 10.8 1.2 9.2 3.1 19.3 10 23.9 7.1 4.5 11.7 12.1 12.5 20.4zm-125.3 102.9c-2.1 0-4-1.3-5.6-2.4l-1.3-.9c-7.9-4.7-14.1-13.8-17.1-25l-1.5-5.5c-1.4-4.9-2.8-10.1-3.8-15.1-2.4-11.8-6.8-26.4-18.9-34-12.5-8.6-16.5-34-13-46.2.3-1.2 1-2.3 1.6-3.4 1.5-2.6 1.6-3.3.8-4.2-3.2-3.6-6.5-7-9.1-6-7.9 3.1-17.4.6-28.1-7.7-6.5-5-13.3-10.2-20.7-14.4-10.5-5.7-14.3-16.9-17.6-26.8-.5-1.4-.9-2.8-1.4-4.1-2.8-7.9-14.8-17.3-23.4-16.2-4.3.6-6.5 5-8.8 9.7-.6 1.3-1.2 2.5-1.9 3.7-.4.8-1.4 1.2-2.3 1.3-.9 0-1.8-.6-2.2-1.4-4.2-8.7-5.2-15.6-2.9-21.4 2-5.1 6.6-9.1 13.7-11.8 21.6-9.4 43.6-19.7 65.3-30.7l.6-.3c3.5-1.8 8.8-4.5 13.1.9 2.9 3.7 3.5 8.4 1.6 14.5-1.6 5.1.8 6.4 6.4 9.1l1.4.7c4.2 2.1 9-2.2 10.9-4.1 1.1-1.1.9-2.3-.3-5.5-.5-1.2-.9-2.4-1.2-3.8-.1-.5-.2-1.1-.4-1.6-.6-2.3-1.5-5.5 1-8.3 3.3-3.8 7.2-.9 8.6.2l.7.5c2.9 2 5.4 2.2 8.3.5 5.1-2.9 10.1-1.8 13.2 2.9 2.8 4.2 3.1 9.5.9 15.5l-10.5 27.9-9.7 25.9c-2.8 7.7-10.6 10.9-16.9 13.4l-2.2.9c-1.9.8-3.1 2-3.8 3.8-.9 2.4-.5 5.7 1 8.6.9 1.7 1.3 2 1.4 2 8.9-3.6 16.3 1.7 22.2 5.9l2 1.4c1.9 1.3 8.5 5.4 14.5 2.2 7.6-3.9 14.1-3.7 21.8 1l.7.4c4.8 2.9 11.5 6.9 16.8 5.4 1.8-.5 4.5-.5 7.2 2.1 6.3 6.2 8.9 24.4 7.3 30-4.3 16-10.5 34.8-18 54.2-3.5 9.2-3.9 18.1-1.1 26.5 1.6 4.9 2.9 10.8 4 15.5.2.8.5 1.6.8 2.5.9 2.7 2.1 6.2.2 9-1.1 1.6-2.4 2.1-3.3 2.3-.4.4-.7.4-1 .4zm-67.1-147.7c4.9 0 9.2 4.8 11.9 7.9 3.4 3.8 1.1 7.7-.2 10-.5.8-.9 1.6-1.1 2.3-3.1 10.9.6 33.5 11 40.7 13.6 8.6 18.4 24.4 21 37.2 1 4.8 2.4 9.9 3.8 14.7l1.5 5.5c2.7 9.9 8.1 17.9 14.9 22 .5.3 1 .7 1.6 1 .8.5 2.2 1.5 2.7 1.5.6-1-.1-3.1-.7-4.8-.4-1-.7-2.1-.9-3-1-4.6-2.3-10.3-3.9-15-3.2-9.5-2.8-19.6 1.2-29.9 7.4-19.3 13.5-37.8 17.8-53.7 1.2-4.4-1.3-20.5-6-25.1-1.2-1.2-2-1-2.3-.9-7.4 2.1-15.1-2.6-20.7-6l-.7-.4c-6.1-3.7-10.9-3.9-16.9-.8-5.7 3-13.1 2-19.7-2.6l-2-1.4c-5.5-3.9-11.1-8-17.4-5.4-3.1 1.2-5.7-.2-7.8-4.3-2.2-4.2-2.7-8.9-1.3-12.7 1.1-3 3.4-5.3 6.5-6.7l2.3-.9c5.9-2.4 12.1-4.8 14.1-10.5l9.7-26 10.4-27.8c1.1-3.1 2-7.5-.4-11-1.1-1.6-2.9-3.4-6.6-1.4-4.6 2.7-9.1 2.4-13.6-.7l-.9-.6c-.5-.4-1.4-1-1.7-1.1-.7.9-.6 1.9 0 3.9.2.7.4 1.3.5 2 .2.9.6 1.9.9 2.9 1.2 3 2.7 7.2-.8 10.8-5.6 5.6-11.6 7.4-16.6 5l-1.3-.6c-5-2.4-11.9-5.6-9-15.1 1.4-4.4 1.1-7.6-.7-9.9-1.6-1.9-2.9-1.7-6.9.4l-.6.3c-21.8 11-43.9 21.4-65.7 30.8-5.9 2.3-9.5 5.2-11 9-1.3 3.3-1.1 7.4.7 12.5 2.4-4.9 5.6-10.4 12-11.2 10.9-1.4 25.2 9.7 28.7 19.5l1.5 4.2c3.2 9.5 6.5 19.3 15.3 24 7.8 4.3 15 9.9 21.4 14.8 9.2 7.1 17.1 9.5 23.3 7 .9-.2 1.8-.4 2.7-.4zm350.3-37.8c-4.5 0-8.7-1.9-11.5-5.4-4.8-5.7-5.7-14.2-2.4-23.2 4.3-11.7 15.6-23.3 28.5-22.5 13.5.8 24.4 15.9 27.9 26.3v.1l-2.4.8 2.4-.7c.1.3.3.7.3 1.2.1 1.1.6 2.3 1.2 3.6 1.2 2.8 3.1 7.1-.6 10.8-3.9 3.8-12.5 8.5-19.2 4.9-6.7-2.1-9.1-1.9-15.6 1.8-2.7 1.5-5.7 2.3-8.6 2.3zm13.5-46.1c-10.1 0-19.1 9.8-22.6 19.3-1.3 3.4-3.6 12.1 1.6 18.3 3.6 4.6 9.6 4.2 13.8 1.9 7.7-4.3 11.6-4.6 20-2 4.5 2.4 10.8-.9 13.7-3.9 1.1-1.1.9-2.1-.5-5.2-.7-1.6-1.5-3.3-1.6-5.2l2.2-1-2.4.8c-3.5-10.6-13.5-22.4-23.4-22.9-.2-.1-.5-.1-.8-.1zm-305.9-28.3c-3.2 0-6.1-2.2-8.1-3.9l-1.5-1.3c-3.4-2.8-7.2-6-8.7-11.2-2.6-9.1-9.6-14.5-14.9-17.4-2.8-1.5-10.4-5.7-8.5-16.1 1.3-7.1 3-16.4 10.8-20.4 3.8-1.9 7.7-4.1 11.5-6.2l4.6-2.6c.1-.1.3-.2.4-.3l.8-.4c2.5-1.4 5.2-2.8 7.6-4.1.9-.5 1.9-1.1 2.9-1.7 4.3-2.6 9.7-5.9 14.7-4.6 2.5.6 4.5 2.3 6.1 5 7.8 13.7 9.2 26.3 4.4 39.8-1.4 4-3 8.2-4.6 12.4-2.8 7.4-5.6 15-8 22.5-2 6.2-4.4 9.4-7.7 10.3-.6.1-1.2.2-1.8.2zm-11.6-75.2c-.1.1-.3.2-.4.3l-5 2.8c-3.9 2.2-7.9 4.4-11.7 6.3-5.5 2.8-6.9 10.1-8.1 16.5-1.1 6 1.4 8.6 5.9 11.1 6.2 3.4 14.3 9.7 17.4 20.4 1.1 3.7 4 6.2 7.1 8.8l1.6 1.4c2.4 2 4.2 2.9 5.3 2.6.8-.2 2.4-1.4 4.2-7.1 2.4-7.6 5.3-15.3 8.1-22.7l4.5-12.3c4.3-12.2 3.1-23.2-4-35.7-.8-1.5-1.8-2.3-3-2.6-3-.8-7.3 1.9-10.9 4.1-1.2.7-2.2 1.4-3.2 1.9-2.3 1.2-5 2.7-7.5 4.1l-.3.1zm-56.2 67.4c-1.4 0-2.9-.3-4.4-.9-2.9-1.2-4.8-3.6-5.3-6.5-.7-4.4 2.5-6.1 4.1-6.9.3-.1.5-.3.7-.4l5-2.8 3.5-1.9c4.7-2.6 8.3-3.3 11.2-2 2.4 1.1 4 3.4 4.8 6.8 1.5 6.7-3.4 8.1-5.8 8.8-.6.2-1.7.5-1.9.7-.2.3-.5.6-.8.8-3.6 2.3-7.2 4.3-11.1 4.3zm11.7-16.9c-1.1 0-2.8.4-5.6 2-1.2.7-2.4 1.3-3.6 1.9-1.6.8-3.2 1.7-4.8 2.6-.3.2-.7.4-1 .6-1.6.8-1.5.9-1.4 1.6.2 1.5 1.4 2.3 2.3 2.7 3 1.3 6 .1 10.6-2.7 1.2-1.4 2.9-1.8 4.3-2.2 2.5-.7 2.7-.8 2.2-2.9-.4-1.8-1-2.9-1.9-3.3-.2-.2-.6-.3-1.1-.3zm-1.8 10.5zm317.2 44.3c-6.6 0-18.1-6.4-21.2-11.3-.9-1.3-1.1-2.9-.6-4.3.6-1.8 2.1-3.3 4.3-4.3.2-.1.5-.2.8-.2 7.3-.6 18.5 4.7 22.5 10.7 1.6 2.5 1.1 4.6.7 5.6-.9 2.1-3.2 3.4-5 3.7-.5 0-1 .1-1.5.1zm-15.9-15.2c-.9.5-1.2.9-1.2 1 2.7 4.2 13.6 9.8 17.7 9.1.5-.1 1.1-.5 1.2-.8.1-.1-.1-.5-.3-.9-2.6-3.9-11.5-8.8-17.4-8.4zm-69.4 117.1c-.5 0-1-.1-1.5-.3-2.4-.9-3-3.6-3.6-5.9-.2-1-.5-2-.8-2.6-.1-.2-.2-.5-.2-.7-.7-3.6-2.8-14.5 5-19.7 2.2-1.4 3.8-1.2 4.9-.8 2.8 1.1 3.5 4.7 4.2 7.6l.3 1.4c2.9 11.9-1 17.3-4.8 19.8-1.3.8-2.5 1.2-3.5 1.2zm-1.3-10.8c.5 1.1.8 2.2 1.1 3.4.2.6.4 1.6.6 2.2.1 0 .2-.1.3-.2 3.6-2.3 4.5-7.2 2.7-14.4l-.3-1.5c-.2-1-.6-3.1-1.1-3.9-.1 0-.2.1-.3.2-3.4 2.2-4.4 6.9-3 14.2zm104.8-186c-1.5 0-3.1-.7-4.2-2-1.2-1.4-1.5-3.1-.9-4.7l1-2.8c2.1-6.2 4.4-13.2 10.2-17.2.7-.5 3.2-2 5.4-1.2 1.2.4 2 1.4 2.4 2.7 0 .1 0 .2.1.3 1.2 7.9-5.8 23.1-12.9 24.9-.4-.1-.7 0-1.1 0zm-.3-5.1c.1 0 .2.1.3.1 3.3-.9 8.9-11.2 9-17.7 0 0-.1 0-.1.1-4.4 3.1-6.4 9-8.3 14.7l-.9 2.8zm4.1 93c-.6 0-1.2-.1-1.8-.4-2.3-1.1-2.9-4-3.1-5-.8-4.1-.6-11.3 9.8-13.5.4-.1 1-.4 1.6-.7 1.6-.8 3.8-1.9 6-.9 1.4.6 2.3 1.9 2.9 3.9 1 3.1.7 6.2-.9 8.9-1.8 3.1-5.2 5.2-9.2 5.9h-.4c-.2.1-.7.3-1 .5-1.1.6-2.4 1.3-3.9 1.3zm10.2-16c0 .2-1 .7-1.6 1-.9.4-1.8.9-2.7 1.1-6.2 1.3-6.5 4.4-5.9 7.6.1.6.3 1 .4 1.3.3-.1.8-.4 1.1-.5.9-.5 1.9-1 3.1-1.1 2.5-.5 4.5-1.8 5.6-3.5.9-1.4 1-3.1.4-4.9-.3-.8-.4-1-.4-1zm55.2 55.1c-1.4 0-2.7-.4-3.8-1-3.1-1.9-4.6-5.8-5.3-8.7-.1-.5-.4-1.2-.7-1.8-.8-1.9-1.9-4.3-.9-6.5.4-.8 1.2-2 3.1-2.5 7.2-2.2 9.4 4.1 10.6 7.4.3 1 .7 2 1.1 2.9.2.4.3.9.3 1.4.1.3.4.8.6 1.1.7 1.3 1.7 3 .9 4.9s-2.9 2.5-3.6 2.6c-.8.1-1.5.2-2.3.2zm-4.8-16.1c-.4 0-.8.1-1.3.3 0 .2.6 1.5.9 2.3.4.9.8 1.9 1 2.7.7 2.8 1.8 4.8 3 5.6.4.2.9.5 1.9.3-.1-.1-.1-.2-.2-.3-.5-.9-1.1-2-1.2-3.2-.4-.9-.8-1.9-1.1-2.9-1.2-3.7-1.8-4.8-3-4.8zm6.3 10.8zm-300-76c-.7 0-1.2-.2-1.6-.4-2.6-1.2-3.2-4.6-3.6-7.3l-.2-.9c-.1-.7-.3-1.5-.5-2.4-1.2-5.1-2.8-12.1 2.6-16.2 1.5-1.2 3-1.5 4.4-1 2.3.9 2.8 3.4 3.2 5.7.1.7.4 1.9.6 2.2.5.3.6.6.7 1.2l.2.8c1.3 5 3.5 13.4-3.1 17.5-1 .6-1.9.8-2.7.8zm-.8-22.5c-1.9 2.3-1.3 6-.2 10.5.2.9.4 1.7.5 2.5l.2 1c.1.7.4 2.2.7 3.1 2.8-2.2 1.9-6.6.6-11.7v-.1c-.9-1.1-1.2-2.7-1.5-4.3-.1-.3-.2-.7-.3-1zm215.6 48.4c-.8 0-1.6-.2-2.3-.6-2.1-1.2-2.6-3.8-3-5.8-.1-.7-.3-1.4-.5-2-2.3-6-.7-11.8 3.9-14.1 1.7-.8 3.1-.9 4.4-.3 2.1 1 2.5 3.4 2.9 5.2.1.6.3 1.4.4 1.7.1.2.3.6.3.8l-2.4.6 2.5-.4c1.2 4.8 3 12.2-4.2 14.6-.7.2-1.3.3-2 .3zm.2-17.9c-2.1 1.4-2.6 4.4-1.3 7.7.3.8.5 1.7.7 2.7.2.8.5 2.2.7 2.6 2.3-1 2.5-2.6 1-8.7-.5-.9-.7-2-.9-3 0-.3-.1-.9-.2-1.3z"/>
    <path d="M2482.6 2632.1c-.8 0-1.5-.2-1.9-.4-1.4-.7-2.4-2-2.9-4.1-1.1-4.2-.1-7.9 2.8-10.2 1.8-1.4 3.4-1.4 4.4-1.1 2.2.7 3.2 3.1 3.9 5.1v.2c1.4 6.1-1.2 8.8-3.7 9.9-1.1.5-1.9.6-2.6.6zm.8-10.5c-1.4 1.5-1.3 3.4-.9 4.8.2.7.4.9.4.9.7-.6 1.8-1.1 1-4.4-.2-.6-.3-1.1-.5-1.3z"/>
  </g>
  <path d="M2638.5 2664c-21.9-57-76.7-97.6-141.2-98.6h-4.8c-63.2 1-117 40.1-139.8 95.3 26.4-44.4 74.6-74.4 129.8-75.3h4.8c64.5 1 119.3 41.6 141.2 98.6 6.6 17.1 10.2 35.7 10.2 55.2 0 1.6 0 3.1-.1 4.7-.6 19-4.6 37.2-11.5 53.8 12.9-21.7 20.7-46.9 21.5-73.8 0-1.5.1-3.1.1-4.7 0-19.4-3.6-38-10.2-55.2z" class="D F"/>
  <path d="M2494.9 2881.8c-89.6 0-162.5-72.9-162.5-162.5s72.9-162.5 162.5-162.5 162.5 72.9 162.5 162.5c0 63.3-37.2 121.3-94.7 147.7-8.8 4.4-15.2 6.2-25.8 9.1l-5.3 1.5c-.1 0-.3.1-.4.1-11.8 2.7-24 4.1-36.3 4.1zm34.4-12.6zm-34.4-295c-80 0-145 65.1-145 145s65.1 145 145 145c10.9 0 21.7-1.2 32.2-3.6l5.2-1.4c10.5-2.9 15.3-4.2 22.8-8 51.6-23.7 84.8-75.5 84.8-132 .1-79.9-65-145-145-145z" class="B"/>
  <path fill="#ff9b17" d="m2579.5 2870.1-8.6 22.7-5.8 15.5-62.2 165.6c-4.1 10.9-23.1 10.9-27.2 0l-27.2-72.4-33.8-89.9-7-18.7-8.6-22.9h180.4z"/>
  <defs>
    <path id="K" d="m2579.5 2870.1-14.4 38.2-62.2 165.6c-4.1 10.9-23.1 10.9-27.2 0l-27.2-72.4-33.8-89.9-15.6-41.6h180.4z"/>
  </defs>
  <clipPath id="L">
    <use xlink:href="#K"/>
  </clipPath>
  <g clipPath="url(#L)">
    <path d="m2605.9 2973.3 99.9-139.8c.7-1 .5-2.3-.5-3s-2.3-.5-3 .5l-99.1 138.6-17-23.8 80.2-112.2c.7-1 .5-2.3-.5-3s-2.3-.5-3 .5l-79.4 111-17-23.8 60.6-84.7c.7-1 .5-2.3-.5-3s-2.3-.5-3 .5l-59.7 83.5-17-23.8 40.9-57.2c.7-1 .5-2.3-.5-3s-2.3-.5-3 .5l-40.1 56-17-23.8 21.2-29.7c.7-1 .5-2.3-.5-3s-2.3-.5-3 .5l-20.4 28.5-17-23.8 1.6-2.2c.7-1 .5-2.3-.5-3s-2.3-.5-3 .5l-.7 1-.7-1c-.7-1-2-1.2-3-.5s-1.2 2-.5 3l1.6 2.2-17 23.8-20.4-28.5c-.7-1-2-1.2-3-.5s-1.2 2-.5 3l21.2 29.7-17 23.8-40.1-56c-.7-1-2-1.2-3-.5s-1.2 2-.5 3l40.9 57.2-17 23.8-59.7-83.5c-.7-1-2-1.2-3-.5s-1.2 2-.5 3l60.6 84.7-17 23.8-79.4-111c-.7-1-2-1.2-3-.5s-1.2 2-.5 3l80.2 112.2-17 23.8-99.1-138.6c-.7-1-2-1.2-3-.5s-1.2 2-.5 3l99.9 139.8-99.9 139.8c-.7 1-.5 2.3.5 3a1.92 1.92 0 0 0 1.2.4c.7 0 1.3-.3 1.7-.9l99.1-138.6 17 23.8-80.2 112.2c-.7 1-.5 2.3.5 3a1.92 1.92 0 0 0 1.2.4c.7 0 1.3-.3 1.7-.9l79.4-111 17 23.8-60.6 84.7c-.7 1-.5 2.3.5 3a1.92 1.92 0 0 0 1.2.4c.7 0 1.3-.3 1.7-.9l59.7-83.5 17 23.8-40.9 57.2c-.7 1-.5 2.3.5 3a1.92 1.92 0 0 0 1.2.4c.7 0 1.3-.3 1.7-.9l40.1-56 17 23.8-21.2 29.7c-.7 1-.5 2.3.5 3a1.92 1.92 0 0 0 1.2.4c.7 0 1.3-.3 1.7-.9l20.4-28.5 17 23.8-1.6 2.2c-.7 1-.5 2.3.5 3a1.92 1.92 0 0 0 1.2.4c.7 0 1.3-.3 1.7-.9l.7-1 .7 1c.4.6 1.1.9 1.7.9.4 0 .9-.1 1.2-.4 1-.7 1.2-2 .5-3l-1.6-2.2 17-23.8 20.4 28.5c.4.6 1.1.9 1.7.9.4 0 .9-.1 1.2-.4 1-.7 1.2-2 .5-3l-21.2-29.7 17-23.8 40.1 56c.4.6 1.1.9 1.7.9.4 0 .9-.1 1.2-.4 1-.7 1.2-2 .5-3l-40.9-57.2 17-23.8 59.7 83.5c.4.6 1.1.9 1.7.9.4 0 .9-.1 1.2-.4 1-.7 1.2-2 .5-3l-60.6-84.7 17-23.8 79.4 111c.4.6 1.1.9 1.7.9.4 0 .9-.1 1.2-.4 1-.7 1.2-2 .5-3l-80.2-112.2 17-23.8 99.1 138.6c.4.6 1.1.9 1.7.9.4 0 .9-.1 1.2-.4 1-.7 1.2-2 .5-3l-98.7-139.8zm-24.9-27.5-17 23.8-17-23.8 17-23.8 17 23.8zm-73.4 0 17-23.8 17 23.8-17 23.8-17-23.8zm14.4 27.5-17 23.8-17-23.8 17-23.8 17 23.8zm-17-31.2-17-23.8 17-23.8 17 23.8-17 23.8zm-2.7 3.7-17 23.8-17-23.8 17-23.8 17 23.8zm-19.6 27.5-17 23.8-17-23.8 17-23.8 17 23.8zm2.6 3.7 17 23.8-17 23.8-17-23.8 17-23.8zm19.7 27.5 17 23.8-17 23.8-17-23.8 17-23.8zm2.6-3.7 17-23.8 17 23.8-17 23.8-17-23.8zm19.7-27.5 17-23.8 17 23.8-17 23.8-17-23.8zm34-55-17 23.8-17-23.8 17-23.8 17 23.8zm-19.6-27.5-17 23.8-17-23.8 17-23.8 17 23.8zm-36.7-51.4 17 23.8-17 23.8-17-23.8 17-23.8zm-19.7 27.6 17 23.8-17 23.8-17-23.8 17-23.8zm-19.7 27.5 17 23.8-17 23.8-17-23.8 17-23.8zM2446 2922l17 23.8-17 23.8-17-23.8 17-23.8zm-36.7 51.3 17-23.8 17 23.8-17 23.8-17-23.8zm19.6 27.5 17-23.8 17 23.8-17 23.8-17-23.8zm19.7 27.5 17-23.8 17 23.8-17 23.8-17-23.8zm19.7 27.5 17-23.8 17 23.8-17 23.8-17-23.8zm36.7 51.4-17-23.8 17-23.8 17 23.8-17 23.8zm19.6-27.5-17-23.8 17-23.8 17 23.8-17 23.8zm19.7-27.5-17-23.8 17-23.8 17 23.8-17 23.8zm19.7-27.6-17-23.8 17-23.8 17 23.8-17 23.8zm19.6-27.5-17-23.8 17-23.8 17 23.8-17 23.8z" opacity=".3" class="D"/>
    <g class="B">
      <use xlink:href="#D"/>
      <use xlink:href="#E"/>
      <use xlink:href="#F"/>
      <path d="M2421.4 3113.2c-.4 0-.9-.1-1.2-.4-1-.7-1.2-2-.5-3l201.6-282c.7-1 2-1.2 3-.5s1.2 2 .5 3l-201.6 282c-.5.6-1.2.9-1.8.9zm39.3 0c-.4 0-.9-.1-1.2-.4-1-.7-1.2-2-.5-3l201.6-282c.7-1 2-1.2 3-.5s1.2 2 .5 3l-201.6 282c-.5.6-1.1.9-1.8.9zm39.3 0c-.4 0-.9-.1-1.2-.4-1-.7-1.2-2-.5-3l201.6-282c.7-1 2-1.2 3-.5s1.2 2 .5 3l-201.6 282c-.4.6-1.1.9-1.8.9z"/>
      <use xlink:href="#G"/>
      <use xlink:href="#H"/>
      <use xlink:href="#I"/>
      <path d="M2583.6 3113.2c-.7 0-1.3-.3-1.7-.9l-201.6-282c-.7-1-.5-2.3.5-3s2.3-.5 3 .5l201.6 282c.7 1 .5 2.3-.5 3-.4.3-.8.4-1.3.4zm-39.3 0c-.7 0-1.3-.3-1.7-.9l-201.6-282c-.7-1-.5-2.3.5-3s2.3-.5 3 .5l201.6 282c.7 1 .5 2.3-.5 3-.4.3-.9.4-1.3.4zm-39.3 0c-.7 0-1.3-.3-1.7-.9l-201.6-282c-.7-1-.5-2.3.5-3s2.3-.5 3 .5l201.6 282c.7 1 .5 2.3-.5 3-.5.3-.9.4-1.3.4z"/>
    </g>
  </g>
  <g class="B">
    <path d="m2565.1 2908.3-62.2 165.6c-4.1 10.9-23.1 10.9-27.2 0l-27.2-72.4c39.6 21.4 87.6-44 116.6-93.2z" opacity=".2"/>
    <path d="M2489.3 3095.3c-9.1 0-17-5.5-20.1-14l-78.2-208.2c-1-2.7-.6-5.7 1-8.1s4.3-3.8 7.2-3.8h180.4c2.9 0 5.6 1.4 7.2 3.8s2 5.4 1 8.1l-78.2 208.2c-3.3 8.5-11.2 14-20.3 14zm-77.6-216.5 73.8 196.4c.9 2.3 2.7 2.6 3.8 2.6s2.9-.3 3.8-2.6l73.8-196.4h-155.2z"/>
    <path d="m2579.5 2870.1-8.6 22.7c-16.7 1.5-46.7 3.7-82.5 3.7-34.6 0-63.7-2-80.7-3.5l-8.6-22.9h180.4z" opacity=".2"/>
  </g>
  <path fill="#ff9b17" d="m2594.1 2849.7-6.8 24.4c-1.4 5-5.7 8.7-11 9.2-14.9 1.5-47.8 4.2-88 4.2s-73-2.7-88-4.2c-5.2-.5-9.5-4.2-11-9.2l-3-10.9-3.8-13.5c-2.2-8.1 3.8-16.1 12.2-16.1h187c5 0 9.2 2.9 11.3 6.9 1.6 2.8 2 6 1.1 9.2z"/>
  <path d="m2594.1 2849.7-.2.6c-.2-.7-.5-1.3-.8-1.9-2.1-4-6.3-6.9-11.3-6.9h-187c-5.8 0-10.4 3.8-12.1 8.8l-.2-.6c-2.2-8.1 3.8-16.1 12.2-16.1h187c5 0 9.2 2.8 11.3 6.9 1.6 2.8 2 6 1.1 9.2z" opacity=".3" class="D"/>
  <path d="M2488.4 2896.2c-40.1 0-72.9-2.6-88.8-4.2-8.9-.9-16.1-7-18.5-15.6l-6.8-24.4c-1.8-6.5-.5-13.3 3.6-18.7s10.3-8.5 17.1-8.5h187c6.8 0 13 3.1 17.1 8.5s5.4 12.2 3.6 18.7l-6.8 24.4a21.37 21.37 0 0 1-18.5 15.6c-16.1 1.6-48.9 4.2-89 4.2zm-93.5-53.8c-1.7 0-2.7 1-3.1 1.6s-1.1 1.8-.7 3.4l6.8 24.4c.4 1.6 1.8 2.7 3.4 2.9 15.6 1.5 47.8 4.1 87.1 4.1 39.4 0 71.5-2.6 87.1-4.1 1.6-.2 3-1.3 3.4-2.9l6.8-24.4c.4-1.6-.2-2.8-.7-3.4-.4-.6-1.4-1.5-3.1-1.5h-187zm199.2 7.3z" class="B"/>
  <path d="M2473.9 2854.2c0 2.6-14.4 4.8-32.1 4.8s-32.1 0-32.1-4.8 14.4-4.8 32.1-4.8 32.1 2.1 32.1 4.8zm28 0c0 2.6-5.4 4.8-12.1 4.8s-12.1 0-12.1-4.8 5.4-4.8 12.1-4.8 12.1 2.1 12.1 4.8z" opacity=".3" class="D"/>
  <path d="M2582.7 2821.3s-6.6 4.2-6.4 18.8c.2 9.7-3 32.3-17.9 26.2-14.1-5.7 1.5-26.5-10.5-44.6" class="G"/>
  <path d="M2563.1 2872.3c-1.9 0-4.1-.4-6.6-1.4-10.6-4.3-9.8-14.3-9.1-23.1.6-7.8 1.3-15.9-3.7-23.3-1.5-2.3-.9-5.4 1.4-6.9s5.4-.9 6.9 1.4c6.8 10.3 6 21 5.3 29.6-.7 9.2-.5 11.7 2.9 13.1 2.7 1.1 4.1.6 5 0 4-2.7 6.2-13.1 6.1-21.5-.3-16.9 7.8-22.5 8.7-23.1 2.3-1.5 5.4-.8 6.9 1.6 1.4 2.3.8 5.3-1.4 6.8-.3.2-4.4 3.8-4.2 14.6 0 2.3.1 22.7-10.4 29.9-1.8 1.1-4.4 2.3-7.8 2.3z" class="B"/>
  <path d="M2534.2 2819.9s-8 13.9-5.8 24.1c2.2 10.3-4.9 21.4-16 17.9s-9.2-20.3-13.6-20.8c-4.7-.5-6.9 5.1-7.1 28.6-.2 26.7-34.4 23.7-31.1-1.5 2.8-21.9 10.7-30 4.5-45.9" class="G"/>
  <path d="M2475.8 2893.5c-4.1 0-8.2-1.2-11.7-3.7-6.7-4.7-9.8-12.8-8.6-22.3 1-8 2.7-14.1 4.1-19.5 2.5-9.4 4.1-15.1.6-23.9-1-2.6.3-5.5 2.8-6.5 2.6-1 5.5.3 6.5 2.8 4.6 11.9 2.3 20.3-.3 30.1-1.4 5.1-2.9 10.9-3.9 18.2-.7 5.7.8 10.3 4.4 12.8 3.1 2.2 7.2 2.5 10.5.8 4-2 6.2-6.6 6.2-12.7.1-19.8 1.6-27.7 5.8-31.4 1.3-1.2 3.6-2.5 6.9-2.1 5.1.5 6.5 5.5 7.7 9.9 1.5 5.5 3 9.8 6.9 11 2.7.8 5 .4 6.8-1.2 2.6-2.4 3.8-6.7 2.9-10.9-2.5-11.7 5.5-26 6.4-27.6 1.4-2.4 4.4-3.2 6.8-1.9 2.4 1.4 3.2 4.4 1.9 6.8-2 3.4-6.7 13.8-5.3 20.6 1.6 7.6-.7 15.6-6 20.3-4.4 4-10.4 5.3-16.5 3.4-8.6-2.7-11.5-10.7-13.1-16.4-.5 3.4-1 9.4-1.1 19.5-.1 9.9-4.3 17.8-11.6 21.5-2.8 1.6-6 2.4-9.1 2.4z" class="B"/>
  <g class="D">
    <path d="M2566.2 2843.6c1.2 4.6.6 12.9-2.5 14.5s-1.5-6.6-1.9-10.3c-.4-3.6 1.9-13.7 4.4-4.2zm-85.2 15.8c1.2 6.2-.3 17.1-4.6 19s-1.4-8.8-1.6-13.7 3.8-18 6.2-5.3z" opacity=".7"/>
    <path d="M2383.7 3002.9c-1.2 28.5 29.4 88.5 55.8 79.4 19.5-6.7 33.9-103.6 3.5-124.3-16.6-11.4-57.2-5.1-59.3 44.9z"/>
  </g>
  <g class="B">
    <path d="M2439.5 3082.3c-26.4 9.1-57-50.9-55.8-79.4.3-8.1 1.6-15 3.7-20.9 8.8 29 31.7 63.2 52.1 56.1 8.7-3 16.3-23.8 19.5-47.8 5.8 36.3-5.6 87.2-19.5 92z" class="C"/>
    <path d="M2433.9 3097.5c-6.6 0-14.5-2.1-23.2-8.5-24.1-17.9-42.3-62.1-41.2-86.7 1.5-37 20.9-52.1 32.4-57.9 16.2-8.1 36-7.4 49.3 1.7 29 19.8 24.2 74.3 22 90.6-2.6 19.2-9.8 52.5-29 59.2-2.9.9-6.4 1.6-10.3 1.6zm-.6-28zm-7.7-102.1c-3.4 0-7.2.7-11 2.6-10.2 5.1-15.9 16.7-16.6 33.5-.7 16.4 14.2 51 29.7 62.5 1.2.9 4.1 2.8 6.2 2.8 5.6-6.5 13.8-36.1 12-65.9-1.2-19.8-6.5-30.1-11-33.2-1.9-1.2-5.3-2.3-9.3-2.3zm-41.9 35.5z"/>
  </g>
  <path d="M2602.8 2942.2s-104.7-18.9-133.8 44.7c-14.8 32.3-16.5 150.4 22.1 169.7 23.2 11.7 55.3 1.9 74.2-21.6 22.7-28 82-166 37.5-192.8z" class="D"/>
  <g class="B">
    <path d="M2615.5 3012.7c-9.5 48.4-36.5 105.5-50.2 122.4-18.9 23.4-51.1 33.2-74.2 21.6-38.6-19.4-36.8-137.4-22.1-169.7.8-1.8 1.7-3.6 2.7-5.3-4.4 42.6 1.3 94.4 35.1 111 23.3 11.5 64.9 2.7 78.4-16 7.7-10.7 20-35.5 30.3-64z" class="C"/>
    <path d="M2512.7 3175.8c-9.8 0-19.4-2.1-28-6.4-50.3-25.3-44.1-154.8-28.7-188.5 33.3-72.9 144.6-53.7 149.3-52.9 1.7.3 3.4.9 4.8 1.8 11.5 6.9 18.8 18.7 21.7 35 9.6 54.6-34.8 153.7-55.4 179.2-16.4 20.4-40.7 31.8-63.7 31.8zm55.5-221.9c-29.6 0-71.3 6.3-86.2 39-13.5 29.6-12.7 136.9 15.5 151 16.9 8.5 41.8.7 56.7-17.8 17.8-22.1 57.1-112.9 49.5-156.3-1.2-6.5-3.3-11.2-6.4-14-5.1-.7-15.9-1.9-29.1-1.9zm-448 355.4c-3.6 0-7-1.9-8.8-5.3-2.6-4.9-.8-10.9 4.1-13.5 7.8-4.2 192.6-101.9 288.5-64.4 24.6 9.6 41.5 27.2 50.2 52.3 1.8 5.2-1 10.9-6.2 12.7s-10.9-1-12.7-6.2c-6.8-19.6-19.4-32.7-38.6-40.2-87.4-34.2-269.9 62.5-271.7 63.4-1.6.8-3.2 1.2-4.8 1.2zm-130.8-10.6c-3 0-5.9-1.3-7.9-3.8-1.1-1.5-116.1-145.5-221.7-155.7-29.8-2.9-56.3 5.4-78.8 24.8-4.2 3.6-10.5 3.1-14.1-1.1s-3.1-10.5 1.1-14.1c26.8-23 58.4-32.9 93.8-29.5 114.1 11.1 230.5 157 235.4 163.2 3.4 4.3 2.7 10.6-1.7 14-1.8 1.5-4 2.2-6.1 2.2zm-21.5-137.5c7.8 11.8 16.1 22.8 25.1 32.5 4.4 4.9 9.3 9.2 13.9 13.5 4.6 4.4 9.6 8 14.1 12.5l.7.7c4 3.9 4.1 10.2.2 14.2-3.1 3.2-7.9 3.9-11.7 2-7-3.5-13.4-8.2-18.6-13.8-5.4-5.5-9.7-11.9-13.4-18.5s-6.7-13.4-8.9-20.5-3.8-14.2-4.2-21.7c0-.8.6-1.5 1.4-1.5.6-.2 1.1.1 1.4.6zm202.3 41.1c-1.9 6.2-5.2 11.7-9 16.8-3.9 5.1-8.4 9.7-13.4 13.8-5 4-10.4 7.7-16.2 10.4s-11.9 4.7-18.3 5.4c-5.5.6-10.5-3.3-11.2-8.9-.5-4.2 1.7-8.1 5.2-10l.8-.4c2.5-1.3 5-2.3 7.5-3.2 2.5-1.1 5.1-1.8 7.5-2.9 5.1-1.8 10.1-3.6 15.2-5.7 10-4.3 20-9.6 29.4-16.7l.1-.1c.6-.5 1.6-.4 2.1.3.4.2.4.7.3 1.2zm-706.5 164.2c-4.8 0-9-3.5-9.8-8.3-.9-5.4 2.7-10.6 8.2-11.5 5.7-1 12.3-1.8 20-2.9 30-4 75.2-10 108.8-28.6 4.8-2.7 10.9-.9 13.6 3.9s.9 10.9-3.9 13.6c-36.9 20.4-84.4 26.7-115.9 30.9l-19.3 2.8c-.6 0-1.1.1-1.7.1zm25.1 72.7c-4.9 0-9.2-3.6-9.9-8.6-.8-5.5 3-10.5 8.5-11.3 34.1-4.8 128.7-22.4 156.6-45.7 4.2-3.5 10.5-3 14.1 1.3 3.5 4.2 3 10.5-1.3 14.1-38 31.8-161.4 49.5-166.7 50.2h-1.3zm60 72.4c-4.9 0-9.2-3.6-9.9-8.6-.8-5.5 3-10.5 8.5-11.3 1.2-.2 117.6-17.3 156.6-44.7 4.5-3.2 10.8-2.1 13.9 2.4 3.2 4.5 2.1 10.8-2.4 13.9-42.9 30.2-160.3 47.5-165.2 48.2-.5.1-1 .1-1.5.1zm85.5 58c-5.2 0-9.6-4.1-10-9.4-.3-5.5 3.9-10.3 9.4-10.6.9-.1 88.3-5.8 129.2-38.7 4.3-3.5 10.6-2.8 14.1 1.5s2.8 10.6-1.5 14.1c-45.9 36.8-136.6 42.8-140.5 43.1h-.7zm968.2-35.5c-29.6 0-84.8-16.4-115.7-61.6-3.1-4.6-1.9-10.8 2.6-13.9 4.6-3.1 10.8-1.9 13.9 2.6 26.3 38.6 74.8 52.9 99.2 52.9 5.5 0 10 4.5 10 10s-4.4 10-10 10zm-40.8 59.3c-.4 0-.8 0-1.2-.1-3.5-.4-86.7-11.2-140.1-85.9-3.2-4.5-2.2-10.7 2.3-14 4.5-3.2 10.7-2.2 14 2.3 48.1 67.3 125.4 77.6 126.2 77.7 5.5.7 9.4 5.7 8.7 11.1-.7 5.2-5 8.9-9.9 8.9zm-87.5 51.6c-1 0-2-.2-3.1-.5-3.3-1.1-82.3-27.1-138.4-108.3-3.1-4.5-2-10.8 2.5-13.9s10.8-2 13.9 2.5c52 75.3 127.3 100.3 128 100.6 5.2 1.7 8.1 7.3 6.4 12.6-1.2 4.3-5.1 7-9.3 7zm-101.7 24.3c-1.5 0-2.9-.3-4.3-1-3.9-1.9-95.2-46.8-103-120.6-.6-5.5 3.4-10.4 8.9-11 5.5-.5 10.4 3.4 11 8.9 6.6 62.7 91 104.3 91.8 104.7 5 2.4 7 8.4 4.6 13.4-1.7 3.5-5.3 5.6-9 5.6zm74.7-293.7c-6.8 3-14.5 5.8-21.7 8.7-7.3 3-14.7 5.8-21.8 9.2s-14 7.2-20.6 11.7c-6.5 4.5-12.5 9.8-18.2 16l-.1.1c-.5.6-1.5.6-2.1.1-.4-.4-.6-1-.4-1.5 2.5-8.4 7-16.2 12.5-23.3 5.7-6.9 12.2-13 19.3-18.4 7.1-5.3 14.7-10 22.7-13.7 8.1-3.7 16.1-6.7 25.3-8.1 5.5-.9 10.6 2.9 11.5 8.3.7 4.6-1.8 9-5.9 10.8l-.5.1zM1652 3245.4c8.7 3.2 16 7.5 23.3 12.5 7.2 4.9 13.9 10.8 20.2 16.9 6.2 6.2 12 13 17 20.3 4.9 7.4 9 15.3 11.4 23.7.2.8-.2 1.6-1 1.8-.6.2-1.1 0-1.5-.4-5.7-6.3-11.6-11.9-17.8-17.1-6.3-5.1-12.8-9.8-19.5-14.3-6.7-4.4-13.7-8.4-20.5-12.6-6.8-4.1-13.9-8.3-20.2-12.7l-.5-.3c-4.6-3.1-5.7-9.4-2.6-14 2.7-3.9 7.5-5.3 11.7-3.8z"/>
  </g>
</svg>
