<svg xmlns="http://www.w3.org/2000/svg" xmlns:xlink="http://www.w3.org/1999/xlink" width="4000" height="4000" viewBox="0 0 5900 5900">
  <style>
    .B{fill:#fff}.C{fill:#371a45}.D{opacity:.35}
  </style>
  <path d="M1604.7 2936.2h710.1c121.8 0 221.4-99.6 221.4-221.4v-627.4c0-121.8-99.6-221.4-221.4-221.4h-710.1c-121.8 0-221.4 99.6-221.4 221.4v627.4c-.1 121.7 99.6 221.4 221.4 221.4z" class="B"/>
  <path d="M1604.7 1865.9h710.1c121.8 0 221.4 99.6 221.4 221.4v627.4c0 121.8-99.6 221.4-221.4 221.4h-710.1c-121.8 0-221.4-99.6-221.4-221.4v-627.4c-.1-121.8 99.6-221.4 221.4-221.4m0-35c-34.5 0-68 6.8-99.7 20.3-30.5 13-57.9 31.5-81.5 55-23.6 23.6-42.1 51-55 81.5-13.4 31.6-20.3 65.2-20.3 99.7v627.4c0 34.5 6.8 68 20.3 99.7 13 30.5 31.5 57.9 55 81.5 23.6 23.6 51 42.1 81.5 55 31.6 13.4 65.2 20.3 99.7 20.3h710.1c34.5 0 68-6.8 99.7-20.3 30.5-13 57.9-31.5 81.5-55 23.6-23.6 42.1-51 55-81.5 13.4-31.6 20.3-65.2 20.3-99.7v-627.4c0-34.5-6.8-68-20.3-99.7-13-30.5-31.5-57.9-55-81.5a254.44 254.44 0 0 0-81.5-55c-31.6-13.4-65.2-20.3-99.7-20.3h-710.1z" class="C"/>
  <path d="M1399.1 2548.2c110.6 13 220.8 16.1 220.8 16.1s56.1-279.8 71.7-499.3c11.5-162.6.7-292-71.7-249.8-33.3 19.4-71.6 56-111.6 102.4-149.9 174.1-322.2 486.6-331.7 551.4-6.1 41.8 108.4 65.7 222.5 79.2z" class="B"/>
  <path d="M1619.3 2582.5c-1 0-97.5-2.9-199.4-13.7-60.2-6.4-110.7-14.3-149.9-23.5-53.5-12.5-85.7-26.9-101.1-45.4-10.7-12.7-11.5-25.2-10.3-33.5 4.2-28.4 31.6-86.1 53.9-129.5 31.6-61.6 72.7-132.9 115.5-200.7 64.3-101.6 186.4-280.5 282.7-336.7 29.2-17 49.7-10.4 61.8-1.7 27.4 19.6 40.5 70.7 41.2 160.8.5 66-5.9 152.6-19 257.6-22.2 178-56.5 350-56.9 351.7l-3 15-15.5-.4zm9.7-751.5c-65.4 38.2-163.9 156.5-270.3 324.7-91.8 145.2-159 280.6-164.2 316-.1.6-.3 1.9 2.2 4.8 8.8 10.5 48.6 37.1 226.8 56 76.7 8.2 150.4 11.8 181.4 13 8.8-45.7 35.3-187.9 53.5-334.1 40.3-322.9 4.7-375.6-7.2-384.1-1-.7-2.8-2-6.4-2-3.3.1-8.4 1.4-15.8 5.7z" class="C"/>
  <path d="m2182.5 1805 22.4 169.3 12.7 96.2 27.2 205.5s49.6 33.7 132.2 60.5c30.8 10 66.4 19 105.6 24.8 64.1 9.6 138.2 10.9 218.4-5.5 206.5-42.3 330.5-195.7 384.1-272.8 103.7-148.9 119.7-189.1 90.8-251.8-22-48-59.7-56.8-59.7-56.8s1.9-38.4-28.5-52c-91.1-40.9-208.3 68.3-208.3 68.3s-4.4-117.4-67.2-90.3c-43.3 18.7-53.1 146.5-53.1 146.5s-58.1 74.7-150.4 84.6c-48.3 5.2-115-8.8-181.3-29.2-.8-.2-1.5-.5-2.3-.7-35.3-10.9-70.4-23.6-102.6-36.1l-41.2-16.6c-58.2-24-98.8-43.9-98.8-43.9z" class="B"/>
  <g class="C">
    <path d="M3085 2082.9c-53.7 77.1-177.6 230.5-384.1 272.8-129.4 26.5-242.7 7-324-19.3-82.5-26.7-132.2-60.5-132.2-60.5l-3.6-162.2s56.2-54.2 108.6-32.1c62.9 26.6 42.8 116.8 132.7 141.9 249.9 69.8 452.9-57.7 518.2-113.7 90.6-77.6 114.3-126.5 127-146.7 26.4-41.8 46.8-74.6 58.3-103.9 11.6 49.8-13.4 98-100.9 223.7z" class="D"/>
    <path d="M2518 2383.9c-50-4.5-100-14.9-148.6-30.8-83-27.1-132.9-60.7-134.9-62.2-4.3-2.9-7.1-7.5-7.8-12.7l-62.2-471c-.9-6.6 2-13.2 7.4-17.2 5.4-3.9 12.6-4.5 18.6-1.6 2.8 1.4 285.2 138.7 416 124.7 71.7-7.7 121.9-59.3 134.8-73.8 1.1-11.1 4.1-36.2 10.2-63 12-52.2 29.4-82.6 53.3-92.9 23.5-10.2 40.8-4.5 51.2 2 16.8 10.6 28.9 32 36 63.4.5 2.2 1 4.4 1.4 6.6 42.3-31.7 127.7-83.1 201.8-49.9 26.1 11.7 36 36.6 38.6 55.9 15.7 7.4 41.6 24.6 58.8 61.9 17.4 38 18.8 69.1 4.8 107.4-14.6 40-46.7 89.8-97.2 162.4-41.4 59.4-87.8 110.9-138 153-78 65.4-164.6 108.2-257.4 127.2-42.2 8.6-85.1 13-128.3 13-19.6.2-39.1-.6-58.5-2.4zm580-610.4c0-1.8.4-26.4-17.8-34.6-78.9-35.4-187.4 64-188.5 65-5.2 4.8-12.8 6.2-19.3 3.5-6.6-2.7-11-9-11.3-16.1-1-25.3-9.3-65.3-24.6-74.9-1.8-1.1-6.5-4.1-17.3.6-4.3 1.9-19.5 12.3-32.2 67.3-7.5 32.6-10 63.7-10 64-.3 3.6-1.6 7-3.8 9.8-2.6 3.3-64 80.9-162.9 91.5-59.9 6.4-151.8-13.3-272.9-58.7-54.4-20.4-102.9-41.7-132.6-55.2l56.8 429.6c15.6 9.5 57.8 33.4 119.1 53.4 72.2 23.6 185.8 46.1 316.5 19.4 143.5-29.4 272.4-121.1 372.8-265.4 106.8-153.4 112.6-183 89.3-233.8-17.3-37.7-45.1-46-47.4-46.7-8.8-2.1-14.5-9.7-13.9-18.7z"/>
    <path d="M2864.3 1790.6c-.4 5.1.3 9.8 1.4 13.8.5 2.1 1.1 3.9 1.8 5.7.6 1.7 1.4 3.5 2.1 5.1 2.9 6.5 6 11.8 8.9 17l8.5 15 1.9 3.7 1.9 3.7 1.7 3.8 1.6 3.8 1.5 3.9 1.4 3.9c.5 1.3.8 2.7 1.2 4s.8 2.7 1.1 4c1.4 5.4 2.6 11 3.3 16.8s1.2 11.7 1.4 17.7c.1 3 .1 6 .1 9.1 0 1.5-.1 3.1-.1 4.6s-.1 3.1-.1 4.7v.1a2.22 2.22 0 0 0 2.2 2.2c.8 0 1.6-.5 1.9-1.2 2.9-5.7 5.6-11.5 7.6-17.7 2.2-6.1 3.7-12.5 4.8-19 2.2-13.1 2.2-26.9-.3-40.4l-1-5-1.2-5c-.4-1.7-.9-3.3-1.4-4.9s-1.1-3.2-1.6-4.8c-2.2-6.4-4.9-12.5-7.7-18.2s-5.7-11.1-8.1-15.7c-2.5-4.7-4-8.6-4.8-10.6l-1.8-4.3c-3.1-7.5-11.6-11.1-19.1-8.1-5.3 2-8.7 7-9.1 12.3zm-143.4 577.6c4.6 0 9-2.5 11.2-6.9 3.1-6.2.6-13.7-5.6-16.8-50.4-25.1-84.9-103.4-99.6-226.4-11.4-95.4-6.7-184-6.6-184.9.4-6.9-4.9-12.8-11.8-13.2s-12.8 4.9-13.2 11.8c-.1.9-4.9 91.5 6.7 189 6.9 57.7 18.1 106.6 33.4 145.5 19.8 50.3 46.7 84.2 79.9 100.7 1.8.8 3.7 1.2 5.6 1.2z"/>
    <path d="M1107.6 3172.8v-2.5c20 .8 0 2.5 0 2.5z" class="D"/>
  </g>
  <path d="M1359.9 2865.7h1200.9s-7.3-207.3-78.4-504.5c-28.5-119.2-67.2-252.9-119.8-393.4-12.6-33.7-26.1-67.9-40.4-102.4-39.9-96.2-86.5-194.7-140.8-293.2h-442.1c-44.9 81.5-84.5 162.9-119.4 243-22.6 51.8-43.3 103.1-62.1 153.5-82.2 219.7-130.4 422.4-158.7 579.4-34.8 193.7-39.2 317.6-39.2 317.6z" class="B"/>
  <path d="M1524.8 2123.4c-23.2 25.9-33.8 56.1-43.6 86.4l-14.4 45.6-6.8 22.9-6.3 23.1-6.1 23.1-5.9 23.2-11 46.5-5.5 23.2-5.3 23.3-5.4 23.3-5.4 23.3-10.4 46.6c-1.8 7.8-3.3 15.6-5 23.4l-4.9 23.4-2.4 11.7-1.2 5.8-1.1 5.9-4.6 23.5-4.7 23.4-4.8 23.4c-7 31.1-12 62.7-14.2 94.6l-.8 12-.5 12c-.3 8-.5 16-.4 24.1s.2 16.1.7 24.2 1.1 16.2 2.4 24.3c.2 1.6 1.7 2.7 3.3 2.4 1.1-.2 1.9-.9 2.3-1.8 5.7-15.2 10.4-30.6 14.9-45.9l6.3-23 2.9-11.5 2.8-11.5c3.7-15.4 7-30.8 10-46.3l3.9-23.3 3.7-23.4 3.7-23.4c1.3-7.8 2.8-15.5 4.3-23.3l4.5-23.2 1.1-5.8 1.2-5.8 2.4-11.6 4.8-23.2 4.9-23.2 10.3-46.2 5.4-23.1 5.7-23 5.8-23c.9-3.8 2-7.6 3-11.5l3.1-11.4 12.5-45.7 12.9-45.6 6.2-22.8 1.5-5.7 1.6-5.7 3.2-11.4 12.2-45.8 2.9-11.5 3.1-11.4c2-7.6 3.7-15.4 5-23.2 1.3-7.9 2.2-15.9 2.5-24.1.2-4.1.2-8.2.1-12.4-.2-4.2-.4-8.4-1.2-12.8v-.2c-.3-1.7-1.9-2.8-3.5-2.5-.7-.3-1.3.1-1.7.6zm1038.8 742.3c1.9-4.1 3.1-8.2 4.3-12.3s2.1-8.2 2.9-12.3c1.6-8.2 2.5-16.3 2.9-24.5.2-4.1.4-8.1.4-12.2 0-4-.2-8.1-.4-12.1l-.7-12.1c-.2-4-.5-8.1-.8-12.1l-4.3-48.2-2.7-24-1.6-12-1.7-12-3.5-23.9c-1.2-8-2.7-15.9-4-23.8l-8.5-47.6-9-47.4-9.3-47.4-2.3-11.8-2.5-11.8-5-23.6-5-23.6c-.4-2-.8-3.9-1.3-5.9l-1.4-5.9-2.8-11.7-11-47c-.9-3.9-1.9-7.8-2.9-11.7l-2.9-11.7-5.5-23.5-5.5-23.5c-1.8-7.8-4.1-15.6-6.3-23.3-2.3-7.7-4.8-15.4-7.3-23l-8.1-22.8-4.3-11.3c-.7-1.9-1.5-3.7-2.3-5.6l-2.4-5.6-10-22.2a554.06 554.06 0 0 0-10.8-21.9c-3.8-7.2-7.7-14.4-12-21.4-.8-1.3-2.6-1.8-4-.9-.9.6-1.4 1.6-1.4 2.6 1.8 33 8 64.4 14.1 95.8l4.9 23.4 5.7 23.2 12.9 46 6.5 23c1.1 3.8 2.1 7.7 3.1 11.5l2.9 11.6 10.9 46.5 2.7 11.6 1.4 5.8c.4 1.9.8 3.9 1.3 5.8l5 23.4 5 23.4 2.5 11.7 2.3 11.7c12.8 62.4 21.4 125.5 29.7 188.5l3.2 23.6 3.1 23.6 6.4 47.2c1.2 7.9 2.1 15.7 3.2 23.6.5 3.9 1.1 7.9 1.9 11.8.7 3.9 1.4 7.8 2.3 11.7 1.7 7.8 3.9 15.6 6.5 23.4 1.3 3.9 2.8 7.8 4.4 11.7s3.4 7.8 5.5 11.7c.8 1.5 2.7 2 4.2 1.2.7-.3 1.1-.9 1.4-1.4z" class="C"/>
  <path d="M2214.9 2604.3c68.5 27.7 174.5 21.9 246.8 13.2 43.3-5.2 73.8-45.2 67.4-88.4-5.8-39.4-40.5-68.1-80.3-66.2-67.6 3.2-169 4.7-233.2-9.6" class="B"/>
  <g class="C">
    <path d="M2214.9 2604.3c68.5 27.8 174.5 21.9 246.8 13.2 43.3-5.3 73.8-45.3 67.4-88.4-1.3-8.8-4-17.1-8-24.6-11.4 21.8-33 37.8-59.4 41-72.1 8.8-178 14.5-246.5-13l-.3 71.8z" class="D"/>
    <path d="M2208.1 2621.1c-48.7-19.7-50.3-96.8-36-142.7 14-45.2 37.8-45.1 47.4-43 47.7 10.6 128.8 13.8 228.4 9.2 23.8-1.1 47 6.6 65.3 21.8 18.3 15.1 30.4 36.4 33.8 60 3.8 25.8-2.8 51.5-18.6 72.2s-38.7 33.8-64.6 37c-33.7 4.1-73.1 7.4-112.8 7.4-51.1-.1-102.7-5.6-142.9-21.9zm241.5-140.1c-71.4 3.3-169.5 4.4-234.7-9.3-6.7 7.9-17.4 40.4-13.4 75.6 1.1 10.1 5.4 34.1 20.2 40.1 50 20.2 134.4 24.5 237.7 12 16-1.9 30.2-10.1 40-22.9 9.8-12.9 13.9-28.8 11.6-44.8-4.3-29.4-29.3-50.8-58.6-50.8-.9 0-1.8 0-2.8.1z"/>
  </g>
  <path d="M1691 2604.3c-68.5 27.7-174.5 21.9-246.8 13.2-43.3-5.2-73.8-45.2-67.4-88.4 5.8-39.4 40.5-68.1 80.3-66.2 67.6 3.2 169 4.7 233.2-9.6" class="B"/>
  <g class="C">
    <path d="M1444.3 2617.5c72.3 8.7 178.3 14.5 246.8-13.2l-.3-72.5c-68.5 27.6-174.3 21.8-246.5 13-26.3-3.1-47.7-19.1-59.2-40.7-4 7.6-6.9 16-8.2 25-6.4 43.1 24.1 83.1 67.4 88.4z" class="D"/>
    <path d="M1442.1 2635.5c-25.8-3.1-48.8-16.2-64.6-37-15.8-20.7-22.4-46.4-18.6-72.2 3.5-23.5 15.5-44.8 33.8-60 18.4-15.1 41.5-22.9 65.3-21.8 99.6 4.7 180.7 1.4 228.4-9.2 9.6-2.1 33.4-2.2 47.4 43 14.3 45.9 12.7 123-36 142.7-40.2 16.3-91.8 21.7-143 21.7-39.6.2-79-3.1-112.7-7.2zm14.3-154.5c-30.6-1.4-57 20.4-61.5 50.7-2.4 16 1.7 31.9 11.6 44.8 9.8 12.8 24 21 40 22.9 103.3 12.5 187.8 8.2 237.7-12 14.8-6 19.1-30.1 20.2-40.1 4-35.2-6.7-67.7-13.4-75.6-65.1 13.7-163.2 12.6-234.6 9.3z"/>
  </g>
  <path d="M1664.6 2403.3v242.1c0 44.9 36.8 81.7 81.7 81.7H2192c44.9 0 81.6-36.8 81.6-81.7v-242.1c0-44.9-36.8-81.6-81.6-81.6h-445.8c-26.4 0-50 12.7-65 32.4-10.4 13.6-16.6 30.7-16.6 49.2z" class="B"/>
  <g class="C">
    <path d="M1664.6 2403.3v242.1c0 44.9 36.7 81.7 81.7 81.7H2192c44.9 0 81.7-36.7 81.7-81.7v-90.5c-67 68.3-198.6 111.1-319.4 111.8-38.8.2-70.1-30.5-72.9-69.2 0-.4-.1-.8-.1-1.2-3-34-30.9-61.5-64.9-63.9-38.7-2.8-71.4 25.8-75.2 63-58.4-72.2-41.3-197.6-59.9-241.2-10.5 13.6-16.7 30.6-16.7 49.1z" class="D"/>
    <path d="M1646.4 2645.4v-242.1c0-55 44.8-99.8 99.8-99.8H2192c55 0 99.8 44.8 99.8 99.8v242.1c0 55-44.8 99.8-99.8 99.8h-445.8c-55 0-99.8-44.8-99.8-99.8zm99.8-305.5c-35 0-63.4 28.5-63.4 63.4v242.1c0 35 28.5 63.4 63.4 63.4H2192c35 0 63.4-28.5 63.4-63.4v-242.1c0-35-28.5-63.4-63.4-63.4h-445.8z"/>
  </g>
  <circle fill="#22a7f0" cx="1811.2" cy="2524.3" r="70.4"/>
  <path d="M1740.8 2524.3c0 4.8.5 9.5 1.4 14.1 6.5-32.2 34.9-56.4 69-56.4s62.6 24.2 69.1 56.4c.9-4.6 1.4-9.2 1.4-14.1 0-38.9-31.5-70.4-70.4-70.4-39 .1-70.5 31.5-70.5 70.4z" opacity=".7" class="B"/>
  <g class="C">
    <path d="M1740.8 2524.3c0 38.9 31.5 70.4 70.4 70.4s70.4-31.5 70.4-70.4a69.65 69.65 0 0 0-4.8-25.5c-10.1 26.3-35.7 44.9-65.6 44.9s-55.4-18.6-65.6-44.9c-3.1 8-4.8 16.5-4.8 25.5z" class="D"/>
    <path d="M1727.1 2524.3c0-46.3 37.7-84 84-84s84 37.7 84 84-37.7 84-84 84c-46.3.1-84-37.6-84-84zm27.3 0c0 31.3 25.5 56.8 56.8 56.8s56.8-25.5 56.8-56.8-25.5-56.8-56.8-56.8c-31.3.1-56.8 25.6-56.8 56.8zm256.3 216.4c7.5 0 13.6-6.1 13.6-13.6v-165.8l89.2-67.1v-172.4c0-7.5-6.1-13.6-13.6-13.6s-13.6 6.1-13.6 13.6v158.8l-89.2 67.1V2727c-.1 7.6 6 13.7 13.6 13.7z"/>
  </g>
  <path d="M1960.4 2857.4c-78.9 0-154.7-29.3-213.9-81.3-82-72.1-220.2-158.1-372.6-103-61.2 22.1-102.9 62.7-131.3 107.6-73.2-169.7-226.9-179.9-293.4-83.7 0 0 111.8 533.3 148.2 545.2 52.2 17 177.6-.9 177.6-.9s436.3-59.1 685.4-59.1 685.4 59.1 685.4 59.1 125.4 17.9 177.6.9c36.4-11.9 148.2-545.2 148.2-545.2-66.5-96.2-220.1-86-293.4 83.7-28.4-44.9-70.1-85.5-131.3-107.6-152.4-55.2-290.6 30.8-372.6 103-59.2 52-135.1 81.3-213.9 81.3z" class="B"/>
  <g class="C">
    <path d="M949.2 2697s111.8 533.3 148.2 545.2c52.2 17 177.6-.9 177.6-.9s436.2-59.1 685.4-59.1c249.1 0 685.4 59.1 685.4 59.1s125.4 17.9 177.6.9c36.4-11.9 148.2-545.2 148.2-545.2-11-15.8-24.2-28.8-39.2-38.6-35.8 156.4-86.7 360.5-109.1 367.8-52.2 17-177.6-.9-177.6-.9s-436.3-118.2-685.4-118.2-685.4 118.2-685.4 118.2-125.4 17.9-177.6.9c-22.4-7.3-73.2-211.4-109.1-367.8-14.8 9.8-28.1 22.8-39 38.6z" class="D"/>
    <path d="M2643.3 3259.3c-6.8-.9-438.5-58.9-682.9-58.9-244.3 0-676.1 58-682.9 58.9-6.3.9-130.4 18.2-185.7.2-12.7-4.1-23.3-17.9-43-78.8-11.6-35.7-25.4-85.5-41.2-148.1-27.9-110.3-54.9-233.1-68.6-296.5-7.2-33.6 5.6-68.2 32.7-88.2 38.3-28.3 87.5-37.1 135-24.3 56.2 15.2 104.7 57.8 138.9 121.4 32.6-41.5 73.5-71.4 122.2-89 55.6-20.1 113.8-24 173-11.4 47.6 10.1 96.1 30.9 143.9 61.7 8.4 5.4 10.9 16.7 5.4 25.1-5.4 8.4-16.7 10.9-25.1 5.4-98.7-63.6-194.6-79.3-284.8-46.7-50.5 18.3-91.6 52-122.1 100.2-3.6 5.7-10.1 8.9-16.8 8.4s-12.6-4.7-15.3-10.9c-29.7-68.9-75.5-114.7-128.8-129.2-37.2-10.1-74.1-3.5-103.9 18.4-15.6 11.5-22.9 31.6-18.7 51.2l65.3 283.2c15 60 28.3 108.7 39.5 144.9 15.6 50.2 23.7 65.1 26.7 69.3 41.1 11.5 133.5 2.2 166.5-2.5h.1c4.4-.6 440.3-59.2 687.8-59.2s683.5 58.6 687.8 59.2h.1c32.9 4.7 125.4 14 166.5 2.5 3-4.3 11.4-19.6 27.5-71.9 11.5-37.4 25.1-87.6 40.5-149.5 28-112.4 54.8-235.5 65-283.2 2.9-13.7-1.4-27.8-11.3-36.7-28.9-25.9-67.8-35.8-106.6-27.2-55.2 12.1-104.4 59.8-135 130.7-2.7 6.2-8.6 10.4-15.3 10.9s-13.2-2.7-16.8-8.4c-30.6-48.3-71.6-82-122.1-100.2-89.5-32.4-184.5-17.2-282.4 45.1a18.15 18.15 0 1 1-19.5-30.7c47.6-30.3 95.7-50.6 143-60.4 58.6-12.1 116.2-8.2 171.3 11.8 48.6 17.6 89.6 47.5 122.2 89 16-29.8 35.3-55.1 57.4-75.3 26.7-24.4 57.6-41 89.4-48 50.4-11.1 101 1.9 138.7 35.7 19.6 17.6 28.3 44.9 22.6 71.4l-68.4 296.6c-16.2 64.4-30.4 115.8-42.2 152.7-20.2 63-31 77.2-43.8 81.4-18.8 6.1-45.5 8.2-72.9 8.2-53.3 0-108.8-7.7-112.9-8.3zm170.4-32.2z"/>
  </g>
  <path fill="#afafb2" d="M1129.8 3242.1h-32.4c-38 0-72.5-22.3-88-57-48.5-108.6-136.9-347.3-54.1-492.9 2.4-4.2 5-8.3 7.7-12.3 0 0 79.5-72.3 136.6 30 53.4 95.6 165.4 504.3 30.2 532.2z"/>
  <path d="m1128.9 2778.1-4.2-6.5c-70.2-102.3-168-30-168-30-3.4 3.9-6.5 8-9.5 12.3-9.8 14-17.7 28.9-23.8 44.5 4-38.2 13.9-74.4 31.9-106.1 2.4-4.2 5-8.3 7.7-12.3 0 0 79.5-72.3 136.6 30 8.7 15.4 18.9 39.1 29.3 68.1z" opacity=".7" class="B"/>
  <g class="C">
    <path d="M923.8 2809.2c.8 0 1.7-.1 2.5-.2l198.8-33.2c8.2-1.4 13.7-9.1 12.3-17.3s-9.1-13.7-17.3-12.3l-198.8 33.2c-8.2 1.4-13.7 9.1-12.3 17.3 1.2 7.4 7.6 12.5 14.8 12.5zm1.3 107.4c.7 0 1.3 0 2-.1l232.5-31.3c8.2-1.1 14-8.7 12.9-16.9s-8.7-14-16.9-12.9l-232.5 31.3c-8.2 1.1-14 8.7-12.9 16.9 1 7.6 7.5 13 14.9 13zm20.5 105.2c.6 0 1.2 0 1.8-.1l236-28.9c8.2-1 14.1-8.5 13.1-16.7s-8.5-14.1-16.7-13.1l-236 28.9c-8.2 1-14.1 8.5-13.1 16.7.9 7.6 7.4 13.2 14.9 13.2zm37.4 114.7c.5 0 .9 0 1.4-.1l211-19c8.3-.7 14.3-8 13.6-16.3s-8-14.3-16.3-13.6l-211 19c-8.3.7-14.3 8-13.6 16.3.7 7.9 7.2 13.7 14.9 13.7z"/>
    <path d="M1129.8 3242.1h-32.4c-38 0-72.5-22.3-88-57-12.5-28.2-27.8-65-42-106.7 19.5 32.3 59 52.8 102.4 52.8h38.6c55-9.5 75.6-63.4 76.5-134.1 18.5 119.2 13.4 230.9-55.1 245z" class="D"/>
    <path d="M995.7 3191.2c-25.4-56.9-59.4-144-77.3-235.8-22-113-14-204 23.9-270.6 2.6-4.6 5.5-9.2 8.5-13.4a13.15 13.15 0 0 1 2.2-2.5c1.6-1.4 39.2-35.1 84.8-27.6 29.7 4.9 55 25.5 75 61.4 21.8 39 55.2 133 76.8 237 17.7 85.1 32.4 200.5 2.1 266.7-12.8 28.1-32.6 45.1-58.8 50.5-1 .2-2 .3-3 .3h-32.4c-44-.1-84-25.9-101.8-66zm168.7 2.7c21-45.9 19.5-134-4.2-248.1-20.8-100-53.4-192.4-73.6-228.5-15.3-27.4-33.3-43-53.5-46.4-27.7-4.6-53.2 14.6-58.8 19.2-2.1 3.1-4.1 6.3-5.9 9.5-34.2 60.2-41.1 144.3-20.5 250 17.4 89.1 50.5 173.9 75.3 229.3 13 29.3 42.2 48.2 74.3 48.2h30.8c15.7-3.7 27.6-14.6 36.1-33.2z"/>
  </g>
  <path fill="#afafb2" d="M2790.9 3242.1h32.4c38 0 72.5-22.3 88-57 48.5-108.6 136.9-347.3 54.1-492.9-2.4-4.2-5-8.3-7.7-12.3 0 0-79.5-72.3-136.6 30-53.4 95.6-165.4 504.3-30.2 532.2z"/>
  <path d="m2791.8 2778.1 4.3-6.5c70.2-102.3 168-30 168-30 3.4 3.9 6.5 8 9.5 12.3 9.8 14 17.7 28.9 23.8 44.5-4-38.2-13.9-74.4-31.9-106.1-2.4-4.2-5-8.3-7.7-12.3 0 0-79.5-72.3-136.6 30-8.8 15.4-18.9 39.1-29.4 68.1z" opacity=".7" class="B"/>
  <g class="C">
    <path d="M2996.9 2809.2c7.2 0 13.6-5.2 14.8-12.5 1.4-8.2-4.2-15.9-12.3-17.3l-198.8-33.2c-8.2-1.4-15.9 4.2-17.3 12.3-1.4 8.2 4.2 15.9 12.3 17.3l198.8 33.2c.9.2 1.7.2 2.5.2zm-1.2 107.4c7.4 0 13.8-5.5 14.8-13 1.1-8.2-4.7-15.8-12.9-16.9l-232.5-31.3c-8.2-1.1-15.8 4.7-16.9 12.9s4.7 15.8 12.9 16.9l232.5 31.3c.7.1 1.4.1 2.1.1zm-20.5 105.2c7.5 0 13.9-5.6 14.9-13.2 1-8.2-4.8-15.7-13.1-16.7l-236-28.9c-8.2-1-15.7 4.8-16.7 13.1-1 8.2 4.8 15.7 13.1 16.7l236 28.9c.5.1 1.2.1 1.8.1zm-37.5 114.7c7.7 0 14.2-5.9 14.9-13.7.7-8.3-5.3-15.5-13.6-16.3l-211-19c-8.3-.7-15.5 5.3-16.3 13.6-.7 8.3 5.3 15.5 13.6 16.3l211 19c.5.1 1 .1 1.4.1z"/>
    <path d="M2790.9 3242.1h32.4c38 0 72.5-22.3 88-57 12.5-28.2 27.8-65 42-106.7-19.5 32.3-59 52.8-102.4 52.8h-38.6c-55-9.5-75.6-63.4-76.5-134.1-18.4 119.2-13.3 230.9 55.1 245z" class="D"/>
    <path d="M2787.9 3256.8c-26.2-5.4-46-22.4-58.8-50.5-30.3-66.2-15.6-181.6 2.1-266.7 21.6-104 55-198 76.8-237 20-35.9 45.3-56.6 75-61.4 45.6-7.4 83.2 26.2 84.8 27.6.8.8 1.6 1.6 2.2 2.5 3 4.3 5.8 8.8 8.5 13.4 37.9 66.6 45.9 157.6 23.9 270.6-17.9 91.9-51.9 178.9-77.3 235.8-17.9 40.1-57.8 65.9-101.7 65.9H2791c-1.1.1-2.1 0-3.1-.2zm99.8-585.9c-20.2 3.4-38.2 19-53.5 46.4-20.2 36.1-52.8 128.5-73.6 228.5-23.7 114.1-25.2 202.2-4.2 248.1 8.5 18.6 20.4 29.5 36.2 33.3h30.8c32.1 0 61.3-18.9 74.3-48.2 24.8-55.4 57.9-140.2 75.3-229.3 20.6-105.8 13.7-189.9-20.5-250.1-1.9-3.3-3.8-6.5-5.9-9.5-5.8-4.7-31.3-23.9-58.9-19.2zm-462.5 557.6c2.1 0 4.3-.5 6.3-1.6 6.7-3.5 9.3-11.7 5.8-18.4-57-108.9-57.8-231.3-2.5-363.8 41.7-100 101.5-168.4 102.1-169.1 5-5.7 4.4-14.3-1.2-19.3-5.7-5-14.3-4.4-19.3 1.2-2.5 2.9-62.9 71.9-106.5 175.9-25.7 61.3-40 122-42.6 180.4-3.2 73.4 12.2 143.2 45.8 207.4 2.4 4.6 7.2 7.3 12.1 7.3zm-935.2 0c4.9 0 9.7-2.7 12.1-7.3 33.6-64.2 49-134 45.8-207.4-2.6-58.4-16.9-119.1-42.6-180.4-43.5-103.9-103.9-173-106.5-175.9-5-5.7-13.6-6.2-19.3-1.2-5.6 5-6.2 13.6-1.2 19.3.6.7 60.3 69.1 102.1 169.1 55.3 132.6 54.5 255-2.5 363.8-3.5 6.7-.9 14.9 5.8 18.4 2 1.1 4.2 1.6 6.3 1.6z"/>
    <path d="M1508.3 1917.7c15.7 18 32.3 35.1 49.5 51.2 40.9 38.1 85.8 70.5 133.8 96.2 81 43.5 171 67.9 265.6 68.3 92.5.4 180.6-22.1 260.4-62.9 52.3-26.8 101-61.4 145-102.6 21.9-20.6 42.7-42.7 62.2-66.3-35.3-10.9-70.4-23.6-102.6-36.1-39.9-96.2-86.5-194.7-140.8-293.2h-442.1c-44.9 81.5-84.5 162.9-119.4 243-33.3 19.4-71.7 56-111.6 102.4z" class="D"/>
  </g>
  <path d="M1285.2 1478.5c7.7.8 14.6-4.7 15.4-12.4l43.1-401.5c.8-7.7-4.7-14.6-12.4-15.4-80.8-8.7-153.3 49.8-162 130.5l-14.7 136.9c-8.6 80.7 49.9 153.2 130.6 161.9z" class="B"/>
  <g class="C">
    <path d="m1284.9 1481.9.4-3.4-.4 3.4c-40-4.3-75.9-23.9-101.1-55.2s-36.8-70.6-32.5-110.6l14.7-136.9c8.9-82.5 83.2-142.5 165.8-133.6a17.43 17.43 0 0 1 11.7 6.4c2.9 3.6 4.3 8.2 3.8 12.8l-43.1 401.5a17.43 17.43 0 0 1-6.4 11.7c-3.1 2.5-7 3.9-10.9 3.9-.8.1-1.4.1-2 0zm-112.1-302-14.7 136.9c-4.1 38.1 6.9 75.6 31 105.5s58.3 48.6 96.5 52.7c2.8.3 5.6-.5 7.8-2.3s3.6-4.3 3.9-7.1l43.1-401.5c.3-2.8-.5-5.6-2.3-7.8s-4.3-3.6-7.1-3.9c-5.2-.6-10.3-.8-15.5-.8-72.3 0-134.7 54.8-142.7 128.3z"/>
    <path d="m1161.6 1252.3-6.9 64.2c-8.7 80.7 49.8 153.3 130.6 162 7.7.8 14.6-4.8 15.4-12.5l11.5-106.7c-2.7 4.6-7.9 7.5-13.6 6.9l-9.5-1.1c-63.8-6.8-113.8-53.6-127.5-112.8z" class="D"/>
    <path d="M1283.2 1497.6c-44.2-4.7-83.9-26.4-111.7-61-27.9-34.6-40.6-78-35.9-122.1l14.7-136.9c9.8-91.2 92-157.4 183.2-147.6 8.8.9 16.8 5.3 22.3 12.2 5.6 6.9 8.1 15.6 7.2 24.4l-43.1 401.5c-.9 8.8-5.3 16.8-12.2 22.3-6 4.8-13.2 7.4-20.8 7.4-1.3 0-2.5-.1-3.7-.2zm4.1-38.3zm-98.8-277.7-14.7 136.9c-3.6 34 6.1 67.3 27.6 93.9 20.3 25.2 48.8 41.5 80.7 46.2l42-391c-68-4.4-128.2 45.7-135.6 114z"/>
  </g>
  <path d="M2656.8 1191.5c-7.7-.8-14.6 4.7-15.4 12.4l-43.1 401.5c-.8 7.7 4.7 14.6 12.4 15.4 80.8 8.7 153.3-49.8 162-130.5l14.7-136.9c8.6-80.7-49.8-153.2-130.6-161.9z" class="B"/>
  <g class="C">
    <path d="M2610.3 1624.3c-9.6-1-16.5-9.7-15.5-19.2l43.1-401.5c1-9.6 9.7-16.5 19.2-15.5l-.4 3.4.4-3.4c82.5 8.9 142.5 83.2 133.6 165.8l-14.7 136.9c-8.3 77.1-73.7 134.5-149.6 134.5-5.3-.1-10.7-.4-16.1-1zm34.5-420-43.1 401.5c-.6 5.8 3.6 11 9.4 11.6 78.8 8.5 149.7-48.7 158.2-127.5L2784 1353c8.5-78.7-48.7-149.7-127.5-158.2-.4 0-.8-.1-1.1-.1-5.4.1-10 4.2-10.6 9.6z"/>
    <path d="m2610.1 1494.1-12 111.4c-.8 7.7 4.8 14.6 12.5 15.4 42.4 4.5 82.6-9.4 112.4-35.4 26.9-23.5 45.4-56.8 49.6-95.1l6.2-57.7c-28.4 48.2-83.2 77.9-142.5 71.6l-14.7-1.6c-5.3-.6-9.5-4-11.5-8.6z" class="D"/>
    <path d="M2608.6 1640c-18.2-2-31.5-18.4-29.5-36.6l43.1-401.5c2-18.2 18.4-31.5 36.6-29.5 91.2 9.8 157.4 92 147.6 183.1l-14.7 136.9c-9.2 85.2-81.4 148.6-165.3 148.6-5.8 0-11.8-.3-17.8-1zm9.3-37.8c68 4.5 128.2-45.6 135.6-113.9l14.7-136.9c7.3-68.4-40.9-130.1-108.3-140.1l-42 390.9z"/>
  </g>
  <circle cx="1970.9" cy="1335" r="688.2" class="B"/>
  <g class="C">
    <path d="M1946 2026.2c-93.3-3.4-183.2-24.9-267.1-64-81.1-37.8-153.2-90.3-214.4-156.1s-108.4-141.5-140.2-225.1c-33-86.5-48-177.7-44.6-271s24.9-183.2 64-267.1c37.8-81.1 90.3-153.2 156.1-214.4s141.5-108.4 225.1-140.2c86.5-33 177.7-48 271-44.6s183.2 24.9 267.1 64c81.1 37.8 153.2 90.3 214.4 156.1s108.4 141.5 140.2 225.1c33 86.5 48 177.7 44.6 271s-24.9 183.2-64 267.1c-37.8 81.1-90.3 153.2-156.1 214.4s-141.5 108.4-225.1 140.2c-78.6 29.9-161 45.1-245.4 45.1l-25.6-.5zm-659.4-715.9c-6.6 182.8 58.4 357.2 183 491.1s293.9 211.3 476.6 217.9c8.5.3 16.9.5 25.3.5 173.5 0 338.1-64.6 465.8-183.4 133.9-124.6 211.3-293.9 217.9-476.6 13.6-377.3-282.3-695.4-659.6-709-8.4-.3-16.7-.5-25-.5-366.2-.1-670.7 291-684 660z"/>
    <path d="M1293.2 1215.2c-5.5 30.9-8.9 62.6-10 95-13.7 379.8 283.1 698.8 663 712.6 379.8 13.7 698.8-283.1 712.6-663 .4-10.9.5-21.9.4-32.6-58.4 333.1-355 580.5-702.5 568-369-13.4-659.6-314.7-663.5-680z" class="D"/>
    <path d="M1945.4 2041.9c-95.4-3.4-187.3-25.5-273.2-65.5-82.9-38.6-156.7-92.3-219.3-159.6s-110.8-144.7-143.4-230.2c-33.7-88.5-49.1-181.8-45.6-277.2 3.4-95.4 25.5-187.3 65.5-273.2 38.6-82.9 92.3-156.7 159.6-219.3s144.7-110.8 230.2-143.4c88.5-33.7 181.8-49.1 277.2-45.6 95.4 3.4 187.3 25.5 273.2 65.5 82.9 38.6 156.7 92.3 219.3 159.6s110.8 144.7 143.4 230.2c33.7 88.5 49.1 181.8 45.6 277.2-3.4 95.4-25.5 187.3-65.5 273.2-38.6 82.9-92.3 156.7-159.6 219.3s-144.7 110.8-230.2 143.4c-80.4 30.6-164.7 46.1-251 46.1-8.7 0-17.4-.1-26.2-.5zm-643-731.1c-6.4 178.6 57 349 178.8 479.8s287.1 206.4 465.7 212.9c8.3.3 16.5.4 24.7.4 169.5 0 330.3-63.1 455.1-179.2 130.8-121.7 206.4-287.1 212.9-465.7 13.3-368.6-275.8-679.3-644.4-692.6-8.2-.3-16.3-.4-24.4-.4-358 0-655.4 284.4-668.4 644.8z"/>
    <path d="M1284.7 1327.9c-6.9 134.5 30.4 261.6 99.8 368.7 52 80.3 275.2 227.7 559.2 244.8 263.3 15.9 510.3-112.3 570.2-186.9 80-99.5 130-222.1 136.9-356.6 18.2-355.9-280-519.1-657.2-538.4-377.3-19.4-690.6 112.5-708.9 468.4z"/>
    <path d="M1942.9 1954.6c-161.7-9.7-291.4-59.8-371.7-100.1-91.5-45.8-167.3-103.6-197.8-150.7-73.4-113.4-108.7-243.6-101.9-376.6 4.5-88.2 27.2-166.4 67.3-232.3 37.8-62 91.3-113.6 159-153.4 123.7-72.7 295.4-105.6 496.4-95.3s368.4 60.6 484.1 145.5c63.3 46.5 111.2 103.3 142.5 168.8 33.2 69.7 47.7 149.7 43.2 237.9-6.8 133-55.1 258.9-139.8 364.2-34.5 42.9-118.6 94.5-214.4 131.4-75.6 29.2-189.5 61.8-320.4 61.8-15.3.2-30.8-.3-46.5-1.2zm-431.7-990.3c-133.1 78.2-204.9 200.7-213.3 364.2-6.5 127.4 27.2 252.1 97.6 360.9 21 32.5 82.7 89 187.4 141.5 78.1 39.2 204.3 87.8 361.5 97.3 145.6 8.8 273.9-27.1 355.8-58.7 111.4-43 179.1-93.3 203.3-123.3 81.1-101 127.5-221.6 134-349 8.4-163.5-50.5-292.7-174.9-384.1-111.5-81.9-273.9-130.4-469.8-140.4-23.7-1.2-46.9-1.8-69.6-1.8-165.7-.1-307.2 31.9-412 93.4z"/>
  </g>
  <g class="B">
    <ellipse transform="rotate(-7.342 1509.548 1291.424)" cx="1509.2" cy="1290.9" rx="88.3" ry="121.8" opacity=".5"/>
    <ellipse transform="rotate(-15.284 1604.507 1537.16)" cx="1604.8" cy="1537.4" rx="48" ry="55.9" opacity=".5"/>
  </g>
  <path fill="#111a28" d="M1434.6 1002.7c-87.6 75.4-142.5 182.3-149.8 325.2-6.9 134.5 30.4 261.6 99.7 368.8 52 80.3 275.2 227.7 559.2 244.8 100.3 6.1 198.2-8.8 284.3-33.7-348.7-28.5-620.5-209.2-685-308.8-88.1-136-135.3-297.3-126.6-468 2.3-45.7 8.6-88.4 18.2-128.3z" class="D"/>
  <path d="M2614.9 1110.2c3.9 0 7.8-1.2 11.1-3.7 7.9-5.9 9.7-16.9 4.3-25-28.6-46.9-65-89.8-108.4-127.4-42.2-36.6-91.3-68.6-145.9-95.1-53.5-25.9-112.6-46.6-175.6-61.6-62.5-14.9-129.2-24.2-198.4-27.8-68-3.5-134.6-1.1-198 7-64 8.2-124.8 22.2-180.8 41.8-57.3 20-109.7 45.9-155.7 76.8-47.4 31.8-88.3 69.2-121.8 111.2-5.8 6.5-6.4 16.4-1 23.6 6.2 8.1 17.8 9.7 25.9 3.5l1.9-1.4 1.5-1.9c123.9-156.2 352.1-237.7 626-223.7 275.5 14.1 493.8 121.5 598.9 294.7l.5.8.6.8c3.7 4.9 9.3 7.4 14.9 7.4z" class="C"/>
  <path d="M2486.6 1601.7s128.2-345.5-53.8-495.1c-182.1-149.6-454.3-163-448.9-145.2 0 0 297.7 88.4 403.4 332.7 81.4 188.4 99.3 307.6 99.3 307.6z" opacity=".5" class="B"/>
  <path d="m1228.1 2784.8 1.6 9.4 2 9.5c1.4 6.3 2.9 12.5 4.5 18.8 3.2 12.5 6.9 24.9 10.4 37.3l10.2 37.5 2.4 9.5c.9 3.2 1.6 6.3 2.3 9.5l1.1 4.8.6 2.4.5 2.4 2.2 9.7v.1c.3 1.2 1.5 1.9 2.6 1.6.8-.2 1.5-.9 1.6-1.7 1.3-6.6 2.4-13.3 3-20l.5-5.1.3-5 .5-10.1c.3-13.5-.2-26.9-1.3-40.3-1.1-13.3-2.7-26.7-5.3-39.8-1.3-6.5-2.8-13-4.6-19.5-.9-3.2-1.8-6.4-2.9-9.6s-2.2-6.3-3.5-9.6c-3.2-7.7-12-11.3-19.7-8.1-6.5 2.7-10.1 9.3-9.2 16l.2.3zm1434.4-8.2c-1.4 3.3-2.5 6.4-3.5 9.6-1.1 3.2-2 6.4-2.9 9.6-1.8 6.4-3.3 12.9-4.6 19.5-2.6 13.1-4.2 26.4-5.3 39.8s-1.6 26.8-1.3 40.3c.1 3.4.3 6.7.5 10.1l.3 5 .5 5.1c.6 6.7 1.7 13.4 3 20 .2 1.2 1.4 2 2.6 1.7.9-.2 1.5-.8 1.7-1.6v-.1c.8-3.3 1.5-6.5 2.2-9.7l.5-2.4.6-2.4 1.1-4.8 2.3-9.5 2.4-9.5 10.2-37.5 10.4-37.3c1.6-6.2 3.1-12.5 4.5-18.8l2-9.5c.6-3.1 1.2-6.4 1.6-9.4l.1-.4c1.1-8.3-4.7-15.9-12.9-17-7-.9-13.5 3-16 9.2z" class="C"/>
  <path fill="#1698f9" d="M1347.2 3281.7h1220.6c39.5 0 71.6-32 71.6-71.6 0-22.8-18.5-41.2-41.2-41.2H1316.9c-22.8 0-41.2 18.5-41.2 41.2 0 39.6 32 71.6 71.5 71.6z"/>
  <path d="M1275.7 3210.2c0 7.8 1.3 15.3 3.6 22.4 6.4-14.4 20.8-24.4 37.6-24.4h1281.2c11.4 0 21.7 4.6 29.2 12.1 3.5 3.5 6.5 7.7 8.5 12.3a71.99 71.99 0 0 0 3.6-22.4c0-11.4-4.6-21.7-12.1-29.2s-17.8-12.1-29.2-12.1H1316.9c-22.8 0-41.2 18.5-41.2 41.3z" opacity=".3" class="B"/>
  <g class="C">
    <path d="M1275.7 3210.2c0 19.7 8 37.7 21 50.6 12.9 13 30.8 21 50.6 21h1220.5c39.5 0 71.6-32 71.6-71.5 0-7.6-2-14.7-5.7-20.9-10.8 25.6-36.3 43.6-65.9 43.6H1347.2c-19.7 0-37.7-8-50.6-21-6.5-6.5-11.7-14.1-15.3-22.6-3.6 6.1-5.6 13.2-5.6 20.8z" class="D"/>
    <path d="M1257.5 3210.2c0-32.8 26.7-59.4 59.4-59.4h1281.2c32.8 0 59.4 26.7 59.4 59.4 0 49.5-40.3 89.8-89.8 89.8H1347.2c-49.5-.1-89.7-40.3-89.7-89.8zm59.4-23c-12.7 0-23 10.3-23 23 0 29.4 23.9 53.4 53.4 53.4h1220.6c29.4 0 53.4-23.9 53.4-53.4 0-12.7-10.3-23-23-23H1316.9z"/>
  </g>
  <use xlink:href="#B" fill="#ff66ac"/>
  <use xlink:href="#B" fill="#1698f9"/>
  <path d="M2665.6 2413.3c3.8-25.5-16-48.4-41.8-48.4H1204.7l-.2-1.6c-3.8-25.5 16-48.4 41.8-48.4H2669c25.7 0 45.5 22.9 41.8 48.4l-115.1 776.5-4.3 29.2h-37.6l111.8-755.7z" opacity=".5" class="B"/>
  <g class="C">
    <path d="M1286.2 2314.9h99.9c-37.9 138.8-17 452.2 227.4 615.9 306.8 205.6 859.7 204.3 977 208.9l-4.3 29.2H1363.8l-119.4-805.6c-3.8-25.5 16-48.4 41.8-48.4z" class="D"/>
    <path d="M1186.4 2366a60.16 60.16 0 0 1 14-48.3 60.27 60.27 0 0 1 45.7-20.9h1422.7a60.27 60.27 0 0 1 45.7 20.9 60.16 60.16 0 0 1 14 48.3l-121.7 821.2H1308.1L1186.4 2366zm1506.2-5.4c1-7-.9-13.8-5.6-19.2-4.6-5.4-11.1-8.3-18.2-8.3H1246.1c-7.1 0-13.5 3-18.2 8.3-4.6 5.4-6.6 12.2-5.6 19.2l117.1 790.1h1236l117.2-790.1z"/>
  </g>
  <path d="M2490.3 2980.7c48.1-106 83.1-286.9 75.2-393.4s-69.6-73.9-88.8 62.5c-50.9 363-7.9 378.2 13.6 330.9z" opacity=".3" class="B"/>
  <path d="M1825.2 2749.6c13.9 22.3 31.6 41 53.7 55.4l29.6 18.5c1.1.7 2.2 2.8 1.9 4.1-5.1 32.2 5.9 59.4 25.7 83.9 15.9 19.4 35.8 34 57.7 45.9 9.5 5.1 19.2 10 28.9 14.6 10.7 5.1 20.1-.5 20.7-12.4l3.8-75.3.4-5.3 5.6 1.4c9.7 2.7 14 1.3 20.3-6.8l16.7-21.8c6.1 4.7 11.8 9.3 17.8 13.5 4.7 3.4 9.9 3.5 15 .5 4.8-2.8 7.6-8.3 5.9-13.7-1-3.3-3.2-6.7-5.7-9-5-4.6-10.7-8.4-16.5-12.9l12.3-16.1c.7-1 1.4-2 2.3-2.9 7.6-8.1 9.4-16.7 2.1-26-.2-.3-.4-.7-.5-1.1-.1-.3 0-.5-.1-1.1l52.2-16.9 21.8-7.1c11.5-3.9 14.5-14.2 6.8-23.4-18.2-21.8-37.7-42.2-61.9-57.5-22.3-14-46.3-22.7-73.2-21.5-10 .5-19.9 2.4-29 6.5-3.9 1.8-6 .7-8.8-2-10.3-9.7-20.4-19.8-31.5-28.6-30.6-24.6-66.1-36.6-104.8-39.9-29.7-2.6-58.9.4-87.8 7.8-4.1 1-7.9 2.9-11.9 4.3l-3.5 4.5c-2.7 13.8-.9 27.6.7 41.2 4 35.5 14.4 68.8 33.3 99.2zm229.9-63.1c9.3-3.8 25-4.1 38.7-.4 31.5 8.7 55 29.2 77.1 52.7l-62.4 20.3-53.4-72.6zm-118.5 152.3 84.2 32.7-3.4 67.8c-18.8-9.9-36.2-20.8-51.1-35.3-12-11.8-21.8-25.1-26.9-41.4-2.6-7.9-3.9-16.1-2.8-23.8zM1835 2702.4c4.8-6 9.4-12.1 14.1-18.2l46.7-60.9c1-1.3 3-2.7 4.4-2.5 15.4 1.6 30.3 5.5 44.8 11.1 22.6 8.7 41.2 23.4 58.4 40.1 18.4 17.6 35 36.8 49.7 57.5 14.8 20.9 29 42.3 43.2 63.6.9 1.2 1.5 3.6.9 4.6-3.7 5.4-7.8 10.5-12.1 16l-36.3-27.8-48.2-36.9c-5.8-4.3-12.4-4.4-17.4-.3-7.2 5.8-6.8 15.9.9 21.8l80.4 61.6c1.3 1 2.6 1.9 3.8 2.9-.3.8-.4 1.2-.6 1.5l-10.4 13.7c-1.5 2.1-2.9 2.2-5.2 1.6-46.9-14.1-92.7-30.7-135.5-54.9-15.8-8.9-30.8-18.9-44-31.4-17.1-16.3-29.1-35.9-38.3-57.5-.9-2.3-.7-3.8.7-5.6zm-17.6-77.7 53.2-6.4c.1.5.2 1 .2 1.5l-45.7 59.8c-4.5-18.1-7.4-35.7-7.7-54.9z" class="C"/>
  <path d="M1834.3 2707.9c9.1 21.6 21.2 41.2 38.3 57.5 13.2 12.5 28.2 22.5 44 31.4 42.8 24.2 88.6 40.8 135.5 54.9 2.3.7 3.7.5 5.2-1.6 3.3-4.6 6.9-9.1 10.4-13.7.2-.3.3-.7.6-1.5-1.2-1-2.5-1.9-3.8-2.9l-80.4-61.6c-7.7-5.9-8.1-16-.9-21.8 5-4.1 11.6-4 17.4.3l48.2 36.9 36.3 27.8c4.3-5.6 8.4-10.7 12.1-16 .6-1 0-3.4-.9-4.6l-43.2-63.6c-14.7-20.8-31.4-39.9-49.7-57.5-17.2-16.6-35.9-31.3-58.4-40.1-14.5-5.6-29.4-9.5-44.8-11.1-1.4-.2-3.4 1.2-4.4 2.5l-46.7 60.9-14.1 18.2c-1.4 1.9-1.6 3.4-.7 5.6zm39.4-39c15.5-20.1 44.5-24.1 64.3-8.8 20.3 15.6 24.2 44.5 8.7 64.7-15.4 20.2-44.3 23.9-64.8 8.5-19.8-15-23.6-44.3-8.2-64.4z" class="B"/>
  <path d="m1825 2679.6 45.7-59.8c0-.5-.2-1-.2-1.5l-53.2 6.4c.4 19.2 3.3 36.8 7.7 54.9zm230.1 6.9 53.4 72.7 62.4-20.3c-22.2-23.6-45.6-44.1-77.1-52.7-13.7-3.8-29.4-3.5-38.7.3zm-88.9 217.5c14.9 14.6 32.3 25.4 51.1 35.3l3.4-67.8-84.2-32.7c-1.1 7.7.3 15.9 2.7 23.8 5.2 16.3 15 29.6 27 41.4z" fill="#db2c2c"/>
  <path d="M1882 2733.4c20.5 15.4 49.4 11.6 64.8-8.5 15.5-20.1 11.6-49.1-8.7-64.7-19.9-15.3-48.8-11.4-64.3 8.8-15.5 20-11.7 49.3 8.2 64.4zm8.8-51.3c7.8-10.4 23.3-12.6 33.7-4.9 11.1 8.2 13.3 23.9 5 34.6-8.1 10.4-23.3 12.4-33.7 4.6-10.9-8.3-13.2-23.5-5-34.3z" class="C"/>
  <path fill="#22a7f0" d="M1895.8 2716.3c10.4 7.8 25.6 5.8 33.7-4.6 8.3-10.7 6.1-26.3-5-34.5-10.4-7.7-25.9-5.5-33.6 4.9-8.3 10.8-6 26 4.9 34.2z"/>
  <path d="M1210.7 2405.8s98.2-46.6 190.5-4.8c88.3 40 150.8 325.1 36.4 397.3-70.6 44.6-118.7 5.2-158.7 16.8-59.3 17.1-180.9-276.4-68.2-409.3z" class="B"/>
  <g class="C">
    <path d="M1166.4 2591.3c11.6 119.5 74.7 234.7 112.5 223.8 40-11.6 88 27.8 158.7-16.7 54.7-34.5 68.9-117.6 59.3-199.3-6.5 47.7-24.9 88.6-59.3 110.3-70.6 44.5-117.7 23.8-158.7 16.7-50.7-8.8-92.1-64.2-112.5-134.8z" class="D"/>
    <path d="M1323.3 2834.1c-15.4-2.5-28.8-4.6-39.3-1.6-16.3 4.7-42.1.3-73-47.4-30.8-47.7-54.6-119.1-62-186.4-6.6-59.8-3.6-143.8 48-204.6l2.5-3 3.5-1.7c4.3-2.1 107-49.7 205.8-4.9 35.4 16.1 59.8 58.2 74.1 90.7 18.6 42.6 30.8 93.2 34.2 142.6 2.9 41.7-.8 80.6-10.6 112.5-11.7 38-31.5 66.1-59.1 83.5-30.7 19.4-58.3 24.6-82.1 24.6-15.8-.1-29.8-2.3-42-4.3zm-47.7-428.6c-26 4.5-45.9 12.1-53.6 15.3-68.1 85.3-36.5 248.2 13.2 334.4 21.4 37 36.5 42.8 38.6 42.5 18.4-5.3 36.2-2.5 55.2.6 29.3 4.7 59.6 9.5 98.8-15.2 39-24.6 58.2-83.9 52.8-162.7-3.1-44.6-14.4-92.2-31.2-130.5-16.3-37.2-36.6-63.5-55.8-72.2-23.3-10.6-48.9-15.8-76.6-15.8-13.3-.2-27.1 1.1-41.4 3.6z"/>
  </g>
  <defs>
    <path id="B" d="m1204.4 2363.3 119.4 805.6h1267.4l4.3-29.2 115.1-776.5c3.8-25.5-16-48.4-41.8-48.4H1246.2c-25.8.1-45.6 23-41.8 48.5z"/>
  </defs>
</svg>
