<svg data-v-423bf9ae="" height="30px" width="50px" xmlns="http://www.w3.org/2000/svg" viewBox="0 0 256 90" class="iconLeft"><!----><!----><!----><g data-v-423bf9ae="" id="43c88bfb-7197-40e8-98d8-d07ae06d36cd" fill="#6253e1" transform="matrix(5.58545446395874,0,0,5.58545446395874,109.56363677978516,-7.276362895965576)"><path d="M1.86 4.97L1.86 4.97L1.86 4.97Q2.58 4.51 3.40 4.25L3.40 4.25L3.40 4.25Q4.21 3.99 5.00 3.99L5.00 3.99L5.00 3.99Q5.10 3.99 5.21 4.00L5.21 4.00L5.21 4.00Q5.33 4.00 5.56 4.02L5.56 4.02L4.65 8.30L4.65 8.30Q5.24 7.49 6.53 5.77L6.53 5.77L6.53 5.77Q7.83 4.05 7.83 4.06L7.83 4.06L9.30 4.06L5.40 8.54L5.40 8.54Q5.46 8.54 5.51 8.54L5.51 8.54L5.51 8.54Q5.56 8.54 5.67 8.53L5.67 8.53L5.89 8.53L5.89 8.53Q6.78 8.53 7.20 8.89L7.20 8.89L7.20 8.89Q7.63 9.25 7.63 10.02L7.63 10.02L7.63 10.02Q7.63 10.35 7.56 10.76L7.56 10.76L7.56 10.76Q7.49 11.17 7.25 12.01L7.25 12.01L7.25 12.01Q7.06 12.73 7 13.03L7 13.03L7 13.03Q6.94 13.34 6.94 13.57L6.94 13.57L6.94 13.57Q6.94 13.89 7.09 14.14L7.09 14.14L7.09 14.14Q7.24 14.39 7.49 14.49L7.49 14.49L7.49 14.49Q7.08 14.60 6.73 14.67L6.73 14.67L6.73 14.67Q6.37 14.73 6.10 14.73L6.10 14.73L6.10 14.73Q5.56 14.73 5.29 14.50L5.29 14.50L5.29 14.50Q5.01 14.27 5.01 13.79L5.01 13.79L5.01 13.79Q5.01 13.55 5.08 13.21L5.08 13.21L5.08 13.21Q5.15 12.87 5.36 12.07L5.36 12.07L5.36 12.07Q5.60 11.20 5.68 10.80L5.68 10.80L5.68 10.80Q5.75 10.40 5.75 10.11L5.75 10.11L5.75 10.11Q5.75 9.63 5.54 9.39L5.54 9.39L5.54 9.39Q5.33 9.16 4.91 9.16L4.91 9.16L4.91 9.16Q4.84 9.16 4.75 9.17L4.75 9.17L4.75 9.17Q4.66 9.18 4.45 9.21L4.45 9.21L3.33 14.49L1.32 14.49L3.35 4.97L3.35 4.97Q2.39 5.36 1.89 6.15L1.89 6.15L1.89 6.15Q1.39 6.94 1.39 8.04L1.39 8.04L1.39 8.04Q1.39 8.30 1.42 8.50L1.42 8.50L1.42 8.50Q1.46 8.69 1.54 8.88L1.54 8.88L1.54 8.88Q1.57 8.93 1.57 8.95L1.57 8.95L1.57 8.95Q1.58 8.97 1.58 8.99L1.58 8.99L1.58 8.99Q0.80 8.99 0.44 8.66L0.44 8.66L0.44 8.66Q0.08 8.33 0.08 7.63L0.08 7.63L0.08 7.63Q0.08 6.93 0.55 6.23L0.55 6.23L0.55 6.23Q1.02 5.53 1.86 4.97ZM11.87 5.63L11.87 5.63L11.87 5.63Q11.87 6.09 11.54 6.41L11.54 6.41L11.54 6.41Q11.21 6.73 10.75 6.73L10.75 6.73L10.75 6.73Q10.29 6.73 9.97 6.41L9.97 6.41L9.97 6.41Q9.65 6.09 9.65 5.63L9.65 5.63L9.65 5.63Q9.65 5.17 9.97 4.84L9.97 4.84L9.97 4.84Q10.29 4.51 10.75 4.51L10.75 4.51L10.75 4.51Q11.21 4.51 11.54 4.84L11.54 4.84L11.54 4.84Q11.87 5.17 11.87 5.63ZM8.30 12.89L8.30 12.89L8.30 12.89Q8.30 12.71 8.33 12.48L8.33 12.48L8.33 12.48Q8.36 12.25 8.41 11.98L8.41 11.98L9.37 7.49L11.38 7.49L10.37 12.25L10.37 12.25Q10.35 12.38 10.33 12.48L10.33 12.48L10.33 12.48Q10.32 12.59 10.32 12.70L10.32 12.70L10.32 12.70Q10.32 12.98 10.45 13.10L10.45 13.10L10.45 13.10Q10.58 13.22 10.89 13.22L10.89 13.22L10.89 13.22Q11.28 13.22 11.63 12.87L11.63 12.87L11.63 12.87Q11.98 12.53 12.15 11.98L12.15 11.98L12.74 11.98L12.74 11.98Q12.29 13.26 11.54 13.92L11.54 13.92L11.54 13.92Q10.78 14.57 9.80 14.57L9.80 14.57L9.80 14.57Q9.10 14.57 8.70 14.13L8.70 14.13L8.70 14.13Q8.30 13.69 8.30 12.89ZM15.02 13.44L15.02 13.44L15.02 13.44Q15.33 13.47 15.49 13.48L15.49 13.48L15.49 13.48Q15.65 13.50 15.78 13.50L15.78 13.50L15.78 13.50Q16.09 13.50 16.25 13.43L16.25 13.43L16.25 13.43Q16.41 13.36 16.44 13.22L16.44 13.22L16.44 13.22Q16.31 13.20 16.24 13.13L16.24 13.13L16.24 13.13Q16.17 13.05 16.17 12.92L16.17 12.92L16.17 12.92Q16.17 12.68 16.39 12.50L16.39 12.50L16.39 12.50Q16.62 12.32 16.95 12.32L16.95 12.32L16.95 12.32Q17.25 12.32 17.41 12.50L17.41 12.50L17.41 12.50Q17.57 12.68 17.57 12.99L17.57 12.99L17.57 12.99Q17.57 13.57 17.07 14.03L17.07 14.03L17.07 14.03Q16.58 14.49 15.86 14.49L15.86 14.49L12.15 14.49L15.72 8.25L14.94 8.25L14.94 8.25Q14.50 8.25 14.34 8.30L14.34 8.30L14.34 8.30Q14.17 8.36 14.17 8.47L14.17 8.47L14.17 8.47Q14.17 8.47 14.24 8.53L14.24 8.53L14.24 8.53Q14.32 8.58 14.32 8.78L14.32 8.78L14.32 8.78Q14.32 9.11 14.10 9.32L14.10 9.32L14.10 9.32Q13.89 9.52 13.57 9.52L13.57 9.52L13.57 9.52Q13.29 9.52 13.10 9.35L13.10 9.35L13.10 9.35Q12.92 9.18 12.92 8.90L12.92 8.90L12.92 8.90Q12.92 8.39 13.40 7.94L13.40 7.94L13.40 7.94Q13.89 7.49 14.55 7.49L14.55 7.49L18.14 7.49L14.71 13.41L14.71 13.41Q14.76 13.41 14.82 13.42L14.82 13.42L14.82 13.42Q14.88 13.43 15.02 13.44ZM22.69 8.13L22.69 8.13L22.69 8.23L22.85 7.49L24.86 7.49L23.86 12.25L23.86 12.25Q23.83 12.38 23.81 12.48L23.81 12.48L23.81 12.48Q23.80 12.59 23.80 12.70L23.80 12.70L23.80 12.70Q23.80 13.01 23.94 13.15L23.94 13.15L23.94 13.15Q24.08 13.30 24.37 13.30L24.37 13.30L24.37 13.30Q24.74 13.30 25.03 12.96L25.03 12.96L25.03 12.96Q25.33 12.61 25.51 11.98L25.51 11.98L26.10 11.98L26.10 11.98Q25.65 13.27 24.93 13.92L24.93 13.92L24.93 13.92Q24.22 14.57 23.28 14.57L23.28 14.57L23.28 14.57Q22.68 14.57 22.32 14.24L22.32 14.24L22.32 14.24Q21.97 13.90 21.91 13.29L21.91 13.29L21.91 13.29Q21.48 13.93 20.95 14.25L20.95 14.25L20.95 14.25Q20.43 14.57 19.82 14.57L19.82 14.57L19.82 14.57Q18.96 14.57 18.46 13.99L18.46 13.99L18.46 13.99Q17.96 13.40 17.96 12.32L17.96 12.32L17.96 12.32Q17.96 11.54 18.20 10.68L18.20 10.68L18.20 10.68Q18.44 9.83 18.86 9.13L18.86 9.13L18.86 9.13Q19.38 8.30 20.06 7.86L20.06 7.86L20.06 7.86Q20.75 7.42 21.56 7.42L21.56 7.42L21.56 7.42Q22.11 7.42 22.40 7.61L22.40 7.61L22.40 7.61Q22.69 7.80 22.69 8.13ZM21.90 11.98L22.57 8.82L22.57 8.82Q22.57 8.61 22.41 8.45L22.41 8.45L22.41 8.45Q22.26 8.29 21.99 8.29L21.99 8.29L21.99 8.29Q21.22 8.29 20.63 9.58L20.63 9.58L20.63 9.58Q20.03 10.86 20.03 12.12L20.03 12.12L20.03 12.12Q20.03 12.67 20.19 12.94L20.19 12.94L20.19 12.94Q20.34 13.22 20.73 13.22L20.73 13.22L20.73 13.22Q21.10 13.22 21.44 12.87L21.44 12.87L21.44 12.87Q21.78 12.52 21.90 11.98L21.90 11.98Z"></path></g><!----><g data-v-423bf9ae="" id="c755b881-6cf6-4834-8ca8-cb8bf32b0b9d" transform="matrix(2.8125,0,0,2.8125,0,0)" stroke="none" fill="#6253e1"><path d="M9.382 8.675h13.943v13.943L32 31.293V0H.707zM22.618 23.325H8.675V9.382L0 .707V32h31.293z"></path></g><!----></svg>