<svg width="46" height="46" viewBox="0 0 46 46" fill="none" xmlns="http://www.w3.org/2000/svg">
<path d="M7.30171 45.2698C6.09194 45.2698 5.11123 44.2891 5.11123 43.0794C5.11123 41.8696 6.09194 40.8889 7.30171 40.8889C8.51148 40.8889 9.49219 41.8696 9.49219 43.0794C9.49219 44.2891 8.51148 45.2698 7.30171 45.2698Z" fill="#5D5360"/>
<path d="M8.03149 37.9685V43.0796C8.03149 43.4828 7.70491 43.8098 7.30133 43.8098C6.89775 43.8098 6.57117 43.4828 6.57117 43.0796V37.9685H8.03149Z" fill="white"/>
<path d="M32.1271 45.2698C30.9174 45.2698 29.9367 44.2891 29.9367 43.0794C29.9367 41.8696 30.9174 40.8889 32.1271 40.8889C33.3369 40.8889 34.3176 41.8696 34.3176 43.0794C34.3176 44.2891 33.3369 45.2698 32.1271 45.2698Z" fill="#5D5360"/>
<path d="M32.8572 37.9685V43.0796C32.8572 43.4828 32.5306 43.8098 32.127 43.8098C31.7234 43.8098 31.3969 43.4828 31.3969 43.0796V37.9685H32.8572Z" fill="white"/>
<path d="M5.11115 37.2383H33.5789C33.8277 37.2383 34.0487 37.1197 34.1864 36.9121C34.324 36.7046 34.3483 36.4544 34.2512 36.2251L31.1975 28.9724C31.6569 28.8088 32.1192 28.6551 32.5753 28.4804L35.5976 35.6586C35.8828 36.3364 35.81 37.1072 35.4029 37.7201C34.9964 38.3329 34.314 38.6988 33.5789 38.6988H5.11106C4.70748 38.6988 4.3809 38.3718 4.3809 37.9686C4.3809 37.5654 4.70748 37.2383 5.11115 37.2383Z" fill="white"/>
<path d="M1.48655 16.0633L1.43381 14.6037L6.81428 14.4077L6.45652 9.96134L7.91253 9.84436L8.2755 14.3544L14.0376 14.1446L13.9093 9.3292L15.3697 9.29003L15.4976 14.0915L21.4338 13.8752L21.7785 8.2836L23.2359 8.37344L22.9001 13.8218L29.1961 13.5925L30.3258 7.52882L31.7618 7.79619L30.6921 13.538L37.2109 13.3006L37.2637 14.7602L30.4179 15.0095L29.2932 21.0469L35.0639 21.1751L35.0311 22.6347L29.0222 22.5012L27.8393 28.8504L26.4033 28.583L27.5425 22.4684L22.3742 22.3536L22.0109 28.2476L20.5535 28.1578L20.9132 22.3211L15.7137 22.2056L15.8565 27.5669L14.3962 27.6062L14.2514 22.1731L8.89488 22.0541L9.29567 27.0351L7.83967 27.152L7.42683 22.0216L2.32784 21.9083L2.36063 20.4487L7.30914 20.5587L6.93143 15.8652L1.48655 16.0633ZM27.8135 21.014L28.9219 15.064L22.8098 15.2866L22.4641 20.8951L27.8135 21.014ZM21.0031 20.8627L21.3435 15.34L15.5365 15.5515L15.6748 20.7443L21.0031 20.8627ZM8.77737 20.5911L14.2126 20.7119L14.0765 15.6047L8.39274 15.8118L8.77737 20.5911Z" fill="white"/>
<path d="M30.745 29.7741C32.3508 29.7741 33.7613 28.738 34.2319 27.1783L40.4019 6.82534C40.4725 6.59291 40.4226 6.34045 40.2686 6.15187C40.1153 5.96365 39.8742 5.86554 39.6361 5.88665L0.662928 9.49541C0.465451 9.51355 0.283608 9.61166 0.159534 9.76637C0.0354594 9.92144 -0.0194346 10.1201 0.00626074 10.3168L1.96575 25.3397C2.144 26.708 3.2728 27.774 4.64822 27.8749L30.4706 29.7642C30.5626 29.7706 30.6546 29.7741 30.745 29.7741ZM38.6892 7.44077L32.8344 26.7555C32.5356 27.7455 31.5936 28.3877 30.5776 28.3074L4.75522 26.4182C4.06711 26.3679 3.50307 25.8349 3.41322 25.1504L1.5522 10.8794L38.6892 7.44077Z" fill="white"/>
<path d="M41.5564 7.23906L45.5723 3.22314C46.1426 2.65281 46.1426 1.72823 45.5723 1.1579C45.0019 0.587574 44.0773 0.587574 43.507 1.1579L39.4911 5.17383C38.9208 5.74416 38.9208 6.66874 39.4911 7.23906C40.0615 7.8093 40.9861 7.8093 41.5564 7.23906Z" fill="#E6646E"/>
<path d="M43.5072 1.1579C43.5445 1.12062 43.5869 1.09241 43.627 1.05997C43.6672 1.09241 43.7096 1.12062 43.7469 1.1579C44.3171 1.72823 44.3171 2.65281 43.7469 3.22314L39.731 7.23907C39.6937 7.27635 39.6513 7.30456 39.6111 7.337C39.5709 7.30456 39.5285 7.27635 39.4913 7.23907C38.921 6.66883 38.921 5.74416 39.4913 5.17383L43.5072 1.1579Z" fill="#FF8087"/>
</svg>
